<?xml version="1.0" encoding="UTF-8"?>
<!DOCTYPE svg PUBLIC "-//W3C//DTD SVG 1.0//EN" "http://www.w3.org/TR/2001/REC-SVG-20010904/DTD/svg10.dtd">
<!-- Creator: CorelDRAW 2018 (64-Bit) -->
<svg xmlns="http://www.w3.org/2000/svg" xml:space="preserve" width="3.26767in" height="1.04309in" version="1.0" style="shape-rendering:geometricPrecision; text-rendering:geometricPrecision; image-rendering:optimizeQuality; fill-rule:evenodd; clip-rule:evenodd"
viewBox="0 0 664.29 212.05"
 xmlns:xlink="http://www.w3.org/1999/xlink">
 <defs>
  <style type="text/css">
   <![CDATA[
    .fil1 {fill:white}
    .fil0 {fill:white;fill-rule:nonzero}
   ]]>
  </style>
 </defs>
 <g id="Layer_x0020_1">
  <metadata id="CorelCorpID_0Corel-Layer"/>
  <path class="fil0" d="M43.5 204.86c-4.76,4.78 -10.51,7.17 -17.24,7.17 -6.74,0 -12.48,-2.39 -17.24,-7.17 -4.76,-4.78 -7.14,-10.54 -7.14,-17.27 0,-6.74 2.38,-12.48 7.14,-17.24 4.76,-4.76 10.51,-7.14 17.24,-7.14 6.74,0 12.48,2.38 17.24,7.14 4.76,4.76 7.14,10.5 7.14,17.24 0,6.74 -2.37,12.5 -7.14,17.27zm-29.93 -4.28c3.52,3.59 7.75,5.39 12.69,5.39 4.94,0 9.17,-1.8 12.69,-5.39 3.53,-3.59 5.29,-7.93 5.29,-13 0,-5.07 -1.76,-9.42 -5.29,-13.03 -3.52,-3.62 -7.75,-5.42 -12.69,-5.42 -4.94,0 -9.17,1.81 -12.69,5.42 -3.52,3.62 -5.29,7.95 -5.29,13.03 0,5.07 1.76,9.4 5.29,13zm49.19 10.71l0 -30.17 -5.19 0 0 -4.91 5.19 0 0 -5.11c0,-3.1 1.19,-5.78 3.57,-8.05 2.37,-2.27 5.16,-3.4 8.35,-3.4 2.6,0 4.53,0.32 5.79,0.95l-2.22 4.91c-0.45,-0.45 -1.64,-0.67 -3.56,-0.67 -1.75,0 -3.28,0.62 -4.58,1.85 -1.3,1.23 -1.95,2.7 -1.95,4.41l0 5.11 8.82 0 0 4.91 -8.82 0 0 30.17 -5.39 0zm24.58 0l0 -30.31 -5.12 0 0 -4.91 5.12 0 0 -4.99c0,-3.1 1.18,-5.78 3.56,-8.05 2.38,-2.27 5.16,-3.4 8.35,-3.4 2.65,0 4.58,0.32 5.79,0.95l-2.15 4.91c-0.45,-0.45 -1.66,-0.67 -3.64,-0.67 -1.75,0 -3.26,0.6 -4.54,1.82 -1.28,1.21 -1.92,2.7 -1.92,4.45l0 4.99 21.95 0 0 35.22 -5.39 0 0 -30.31 -16.56 0 0 30.31 -5.45 0 0 -0.01zm27.34 -41.68c-0.72,0.72 -1.59,1.08 -2.63,1.08 -1.03,0 -1.91,-0.37 -2.63,-1.11 -0.72,-0.74 -1.08,-1.61 -1.08,-2.6 0,-0.99 0.36,-1.85 1.08,-2.6 0.72,-0.74 1.59,-1.11 2.63,-1.11 1.03,0 1.91,0.36 2.63,1.08 0.72,0.72 1.08,1.59 1.08,2.63 0,1.03 -0.36,1.91 -1.08,2.63l0 0.01zm26.46 42.42c-5.03,0 -9.33,-1.79 -12.9,-5.39 -3.57,-3.59 -5.35,-7.9 -5.35,-12.93 0,-5.03 1.79,-9.34 5.35,-12.93 3.57,-3.59 7.87,-5.39 12.9,-5.39 3.32,0 6.38,0.83 9.19,2.49 2.8,1.66 5.01,3.88 6.64,6.67l-4.91 2.83c-1.08,-1.97 -2.6,-3.56 -4.55,-4.75 -1.95,-1.19 -4.07,-1.79 -6.36,-1.79 -3.46,0 -6.41,1.26 -8.86,3.77 -2.45,2.52 -3.67,5.54 -3.67,9.09 0,3.54 1.22,6.56 3.67,9.06 2.45,2.49 5.4,3.74 8.86,3.74 2.29,0 4.42,-0.6 6.4,-1.79 1.97,-1.19 3.48,-2.77 4.51,-4.75l4.91 2.83c-1.61,2.83 -3.82,5.07 -6.64,6.74 -2.8,1.66 -5.87,2.49 -9.19,2.49l0 0zm28.01 -42.46c-0.72,0.74 -1.59,1.11 -2.63,1.11 -1.03,0 -1.91,-0.37 -2.63,-1.11 -0.72,-0.74 -1.08,-1.63 -1.08,-2.66 0,-1.03 0.36,-1.91 1.08,-2.63 0.72,-0.72 1.59,-1.08 2.63,-1.08 1.03,0 1.91,0.36 2.63,1.08 0.72,0.72 1.08,1.59 1.08,2.63 0,1.03 -0.36,1.92 -1.08,2.66zm-5.32 41.71l0 -35.22 5.39 0 0 35.22 -5.39 0zm31.11 0.74c-4.76,0 -8.82,-1.79 -12.19,-5.39 -3.36,-3.59 -5.05,-7.9 -5.05,-12.93 0,-5.03 1.69,-9.34 5.05,-12.93 3.37,-3.59 7.43,-5.39 12.19,-5.39 2.92,0 5.6,0.79 8.05,2.36 2.45,1.57 4.3,3.64 5.55,6.2l0 -7.88 5.45 0 0 35.22 -5.45 0 0 -7.88c-1.25,2.6 -3.11,4.69 -5.55,6.26 -2.45,1.57 -5.13,2.36 -8.05,2.36l0 -0.02zm1.08 -5.52c3.46,0 6.41,-1.25 8.86,-3.74 2.45,-2.49 3.67,-5.51 3.67,-9.06 0,-3.55 -1.22,-6.58 -3.67,-9.09 -2.45,-2.51 -5.4,-3.77 -8.86,-3.77 -3.5,0 -6.48,1.26 -8.95,3.77 -2.47,2.52 -3.7,5.54 -3.7,9.09 0,3.54 1.23,6.56 3.7,9.06 2.47,2.49 5.45,3.74 8.95,3.74zm29.42 4.78l0 -51.25 5.45 0 0 51.25 -5.45 0zm43.3 0l0 -41.61 -13.54 0 0 -5.79 33.2 0 0 5.79 -13.47 0 0 41.61 -6.2 0 0.01 0zm36.22 0.67c-5.16,0 -9.63,-1.79 -13.4,-5.35 -3.77,-3.57 -5.66,-7.89 -5.66,-12.96 0,-5.07 1.77,-9.39 5.32,-12.96 3.54,-3.57 7.88,-5.35 13,-5.35 5.12,0 9.45,1.79 13,5.35 3.55,3.57 5.32,7.89 5.32,12.96 0,0.54 -0.04,1.25 -0.14,2.15l-30.03 0c0.32,3.14 1.69,5.8 4.11,7.98 2.42,2.18 5.25,3.26 8.48,3.26 4.49,0 8.08,-1.77 10.77,-5.32l4.91 2.76c-3.68,4.98 -8.91,7.47 -15.7,7.47l0.01 0.01zm-12.59 -21.08l24.17 0c-0.27,-3.1 -1.58,-5.64 -3.94,-7.65 -2.36,-1.99 -5.15,-3 -8.39,-3 -3.01,0 -5.66,1.01 -7.94,3.03 -2.29,2.02 -3.59,4.55 -3.91,7.61zm52.93 21.15c-5.03,0 -9.33,-1.79 -12.9,-5.39 -3.57,-3.59 -5.35,-7.9 -5.35,-12.93 0,-5.03 1.79,-9.34 5.35,-12.93 3.57,-3.59 7.87,-5.39 12.9,-5.39 3.32,0 6.38,0.83 9.19,2.49 2.8,1.66 5.01,3.88 6.64,6.67l-4.91 2.83c-1.08,-1.97 -2.6,-3.56 -4.55,-4.75 -1.95,-1.19 -4.07,-1.79 -6.36,-1.79 -3.46,0 -6.41,1.26 -8.86,3.77 -2.45,2.52 -3.67,5.54 -3.67,9.09 0,3.54 1.22,6.56 3.67,9.06 2.45,2.49 5.4,3.74 8.86,3.74 2.29,0 4.42,-0.6 6.4,-1.79 1.97,-1.19 3.48,-2.77 4.51,-4.75l4.91 2.83c-1.61,2.83 -3.82,5.07 -6.64,6.74 -2.8,1.66 -5.87,2.49 -9.19,2.49l0 0zm23.23 -0.74l0 -51.25 5.45 0 0 21.89c1.17,-1.97 2.78,-3.56 4.85,-4.75 2.07,-1.19 4.33,-1.79 6.8,-1.79 3.28,0 6.12,1.23 8.51,3.67 2.4,2.45 3.61,5.33 3.61,8.65l0 23.57 -5.39 0 0 -22.16c0,-2.29 -0.81,-4.24 -2.42,-5.86 -1.61,-1.61 -3.55,-2.42 -5.79,-2.42 -2.83,0 -5.23,0.95 -7.21,2.83 -1.97,1.89 -2.96,4.2 -2.96,6.94l0 20.67 -5.45 0 0 0.01zm56.5 0l0 -47.41 19.46 0c3.86,0 7.17,1.37 9.9,4.1 2.74,2.74 4.11,6.04 4.11,9.9 0,3.86 -1.37,7.16 -4.11,9.9 -2.74,2.74 -6.04,4.1 -9.9,4.1l-13.26 0 0 19.4 -6.2 0 0 0.01zm6.2 -25.25l12.6 0c2.29,0 4.23,-0.8 5.82,-2.39 1.59,-1.59 2.39,-3.52 2.39,-5.76 0,-2.25 -0.8,-4.17 -2.39,-5.79 -1.59,-1.61 -3.54,-2.42 -5.82,-2.42l-12.6 0 0 16.36zm49.56 26c-4.76,0 -8.82,-1.79 -12.19,-5.39 -3.36,-3.59 -5.05,-7.9 -5.05,-12.93 0,-5.03 1.69,-9.34 5.05,-12.93 3.37,-3.59 7.43,-5.39 12.19,-5.39 2.92,0 5.6,0.79 8.05,2.36 2.45,1.57 4.3,3.64 5.55,6.2l0 -7.88 5.45 0 0 35.22 -5.45 0 0 -7.88c-1.25,2.6 -3.11,4.69 -5.55,6.26 -2.45,1.57 -5.13,2.36 -8.05,2.36l0 -0.02zm1.08 -5.52c3.46,0 6.41,-1.25 8.86,-3.74 2.45,-2.49 3.67,-5.51 3.67,-9.06 0,-3.55 -1.22,-6.58 -3.67,-9.09 -2.45,-2.51 -5.4,-3.77 -8.86,-3.77 -3.5,0 -6.48,1.26 -8.95,3.77 -2.47,2.52 -3.7,5.54 -3.7,9.09 0,3.54 1.23,6.56 3.7,9.06 2.47,2.49 5.45,3.74 8.95,3.74zm28.96 4.78l0 -35.22 5.39 0 0 5.93c1.13,-2.02 2.67,-3.63 4.65,-4.81 1.97,-1.19 4.11,-1.79 6.4,-1.79 0.49,0 1.15,0.04 1.95,0.14l0 5.52c-0.76,-0.13 -1.51,-0.2 -2.22,-0.2 -2.96,0 -5.49,1.07 -7.57,3.2 -2.09,2.14 -3.13,4.77 -3.13,7.91l0 19.32 -5.45 0 -0.01 0zm42.56 0.74c-3.37,0 -6.26,-1.17 -8.69,-3.5 -2.42,-2.33 -3.64,-5.14 -3.64,-8.42l0 -19.12 -4.85 0 0 -4.91 4.85 0 0 -8.75 5.39 0 0 8.75 9.09 0 0 4.91 -9.09 0 0 19.12c0,1.84 0.67,3.41 2.02,4.71 1.35,1.31 2.98,1.95 4.91,1.95 0.94,0 2.13,-0.29 3.57,-0.87l1.89 4.85c-1.71,0.85 -3.52,1.28 -5.45,1.28l-0.01 0.01zm10.91 -0.74l0 -35.22 5.39 0 0 5.86c1.17,-1.97 2.8,-3.56 4.88,-4.75 2.09,-1.19 4.37,-1.79 6.84,-1.79 3.28,0 6.12,1.23 8.51,3.67 2.4,2.45 3.61,5.33 3.61,8.65l0 23.57 -5.45 0 0 -22.16c0,-2.29 -0.8,-4.24 -2.39,-5.86 -1.59,-1.61 -3.52,-2.42 -5.76,-2.42 -2.83,0 -5.23,0.95 -7.21,2.83 -1.97,1.89 -2.98,4.2 -3.03,6.94l0 20.67 -5.39 0 0 0.01zm54.81 0.67c-5.16,0 -9.63,-1.79 -13.4,-5.35 -3.77,-3.57 -5.66,-7.89 -5.66,-12.96 0,-5.07 1.77,-9.39 5.32,-12.96 3.54,-3.57 7.88,-5.35 13,-5.35 5.12,0 9.45,1.79 13,5.35 3.55,3.57 5.32,7.89 5.32,12.96 0,0.54 -0.04,1.25 -0.14,2.15l-30.03 0c0.32,3.14 1.69,5.8 4.11,7.98 2.42,2.18 5.25,3.26 8.48,3.26 4.49,0 8.08,-1.77 10.77,-5.32l4.91 2.76c-3.68,4.98 -8.91,7.47 -15.7,7.47l0.01 0.01zm-12.59 -21.08l24.17 0c-0.27,-3.1 -1.58,-5.64 -3.94,-7.65 -2.36,-1.99 -5.15,-3 -8.39,-3 -3.01,0 -5.66,1.01 -7.94,3.03 -2.29,2.02 -3.59,4.55 -3.91,7.61zm37.51 20.4l0 -35.22 5.39 0 0 5.93c1.13,-2.02 2.67,-3.63 4.65,-4.81 1.98,-1.19 4.11,-1.79 6.4,-1.79 0.49,0 1.15,0.04 1.95,0.14l0 5.52c-0.76,-0.13 -1.51,-0.2 -2.22,-0.2 -2.96,0 -5.49,1.07 -7.57,3.2 -2.09,2.14 -3.13,4.77 -3.13,7.91l0 19.32 -5.45 0 -0.01 0z"/>
  <g id="_2483857086400">
   <path class="fil1" d="M244.07 131.52l21.18 0 0 -95.72 36.59 65.81 20.29 -0.01 33.34 -61.07 0.58 90.99 23.27 0.09 0.06 -127.18 -22.82 -0.14 -44.39 76.69c-3.4,-8.62 -39.78,-73.27 -44.92,-76.57l-23.19 0.21 0.01 126.9z"/>
   <path class="fil1" d="M641.8 120.31c0.38,0.43 0.69,0.63 0.83,1.52 0.14,0.87 0.59,1.1 0.78,1.51 4.53,10.07 -4.5,8.28 20.85,8.07l0.03 -94.24c-29.07,-0.6 -14.02,0.4 -21.83,10.05 -15.14,-23.13 -71.87,-16.87 -71.89,36.9 -0.03,55.19 58.29,59.9 71.23,36.19zm-30.28 -66.51c-34.34,9.99 -25.09,69.21 13.1,61.32 7.8,-1.61 13.39,-6.7 16.81,-13.33 0.28,-0.53 0.8,-5.6 0.79,-6.21l-0.4 -25.56c-0.01,-0.55 -0.49,-4.3 -0.76,-4.78 -5.27,-9.65 -15.18,-15.63 -29.55,-11.45z"/>
   <path class="fil1" d="M485.07 119.59c-1.83,-4.29 -6.91,-9.5 -9.56,-13.48 -10.98,4.54 -15.85,13.36 -35.57,9.85 -11.27,-2.01 -20.79,-12.03 -21.31,-24.16l69.01 -0.26c-0.02,-28.37 -8.04,-49.58 -31.81,-55.54 -56.14,-14.07 -78.5,63.41 -36.64,90.51 24.25,15.7 49.08,4.55 65.87,-6.93zm-66.39 -43.21l48.73 0.2c0.71,-33.67 -48.24,-31.6 -48.73,-0.2z"/>
   <path class="fil1" d="M512.52 36.77l-18.7 0.15 0.05 16.64 18.55 0.13c0.95,30.92 -11.9,95.38 48.64,77.47l-0.17 -16.03c-31.76,1.22 -29.37,2.26 -28.41,-61.49l28.44 -0.1 0.1 -16.32 -28.49 -0.4 -0.18 -27.28 -19.78 -0.38 -0.05 27.62z"/>
   <path class="fil1" d="M40.81 133.62c32.95,-2.78 47.68,-58.43 60.98,-69.51 6.65,11.42 13.93,23.47 21.36,35.63 9.63,15.76 22.44,33.72 42.66,34.05 58.93,0.97 39.24,-119.87 -11.69,-132.42 -25.86,-6.37 -39.11,13.74 -49.8,26.33 -12.76,-11.17 -26.97,-34.04 -56.6,-26.04 -51.5,13.91 -71.87,137.43 -6.91,131.95zm49.33 -88.31c-2.67,10.83 -33.65,60.63 -45.77,65.53 -8.33,3.37 -17.56,0.31 -20.77,-11.21 -7,-25.13 12.04,-84.04 39.28,-77.77 11.97,2.76 18.93,15.51 27.25,23.44zm55.87 48.44c-4.21,-6.3 -7.28,-11.13 -11.23,-17.46 -4.21,-6.75 -19.32,-30.56 -20.63,-35.58 6.38,-7.97 14.53,-24.29 31.37,-23.1 13.52,0.96 22.98,14.63 27.94,25.14 6.45,13.64 16.07,57.62 1.72,67.3 -12.37,8.33 -23.32,-7.54 -29.17,-16.29z"/>
  </g>
 </g>
</svg>
