<?xml version="1.0" encoding="UTF-8"?>
<!DOCTYPE svg PUBLIC "-//W3C//DTD SVG 1.1//EN" "http://www.w3.org/Graphics/SVG/1.1/DTD/svg11.dtd">
<!-- Creator: CorelDRAW 2018 (64-Bit) -->
<svg xmlns="http://www.w3.org/2000/svg" xml:space="preserve" width="7.58937in" height="6.23959in" version="1.1" style="shape-rendering:geometricPrecision; text-rendering:geometricPrecision; image-rendering:optimizeQuality; fill-rule:evenodd; clip-rule:evenodd"
viewBox="0 0 1060.1 871.56"
 xmlns:xlink="http://www.w3.org/1999/xlink">
 <defs>
  <style type="text/css">
   <![CDATA[
    .fil13 {fill:none}
    .fil4 {fill:black}
    .fil2 {fill:#B3B3B3}
    .fil10 {fill:#B94E26}
    .fil6 {fill:#D1762F}
    .fil8 {fill:#E19F1B}
    .fil5 {fill:#E8BD3D}
    .fil7 {fill:#EDCA66}
    .fil3 {fill:#F1DC6B}
    .fil11 {fill:whitesmoke}
    .fil9 {fill:#F6E4B6}
    .fil12 {fill:black;fill-rule:nonzero}
    .fil0 {fill:#D691E3;fill-opacity:0.168627}
    .fil1 {fill:#E2D6E9}
   ]]>
  </style>
 </defs>
 <g id="Layer_x0020_1">
  <metadata id="CorelCorpID_0Corel-Layer"/>
  <g id="_1525599376784">
   <path class="fil0" d="M240.68 765.48c0,0 -226.84,-284.1 -99.11,-477.91 127.74,-193.81 396.42,-330.35 599.04,-242.26 202.62,88.09 220.23,427.25 151.96,552.79 -68.27,125.53 -99.11,204.82 -99.11,204.82l-552.79 -37.44z"/>
   <path class="fil1" d="M910.2 788.61c0,-35.88 -176.99,-64.97 -395.32,-64.97 -218.33,0 -395.32,29.09 -395.32,64.97 0,35.88 176.99,64.97 395.32,64.97 218.33,0 395.32,-29.09 395.32,-64.97z"/>
   <g>
    <path class="fil2" d="M728.29 496.74c-0.03,0.08 -0.07,0.2 -0.07,0.32 -0.62,25.15 1.1,50.53 2.72,75.64 -7.04,4.02 -13.53,3.77 -20.84,1.27 0.22,-0.22 0.35,-0.53 0.33,-0.95 -1.84,-40.05 -4.34,-80.07 -6.54,-120.11 -2.22,-39.95 -3.12,-80.29 -7.35,-120.11 -0.02,-0.17 -0.07,-0.3 -0.17,-0.4l0.13 -0.1c0.12,0.37 0.45,0.65 1,0.52 0.72,-0.18 1.53,-0.23 2.32,-0.28 8.79,2.47 18.21,3.09 27.28,3.37 -0.02,0.07 -0.05,0.13 -0.05,0.22 -3.1,37.1 -4.82,76.57 0.52,113.56 -3.39,0.63 -6.67,1.73 -8.19,2.18 -0.22,0.07 -0.37,0.18 -0.45,0.33 -0.58,-0.65 -1.88,-0.43 -1.92,0.69 -0.07,1.85 -0.02,3.7 0,5.55 0.02,0.65 0.52,1.1 1.13,1.13 2.27,0.13 5.85,0.7 9.36,0.73 -0.53,2.65 -0.53,5.55 0.33,8.12 -0.22,0.02 -0.43,0.03 -0.63,0.03 -3.03,0.07 -6.07,0.15 -9.09,0.28 -0.08,0 -0.15,0.03 -0.22,0.05 -0.42,-0.18 -0.9,-0.1 -1.15,0.47 -1.13,2.59 -1.65,6.69 1.19,8.42 1.8,1.1 4.15,0.52 6.12,0.33l2.42 -0.23c0.25,3.32 0.72,6.67 1.32,9.94 -2.92,0.37 -5.84,0.75 -8.72,1.27 -0.38,-0.27 -0.92,-0.32 -1.38,0.17 -2.4,2.47 -0.77,6.15 2.22,7.25 2.58,0.96 5.7,0.44 8.38,0.34zm-1.83 1.35c0.27,0 0.27,-0.4 0,-0.4 -0.27,0 -0.27,0.4 0,0.4zm-19.08 -125.06c0.23,0.84 1.38,0.47 1.27,-0.35 -0.5,-3.37 -1.4,-6.75 -2.37,-10.02 -0.18,-0.62 -1.02,-0.35 -0.93,0.25 0.48,3.39 1.07,6.84 2.03,10.12zm-2.67 0.02c0.18,0.82 1.37,0.47 1.23,-0.33 -0.68,-3.9 -1.57,-7.8 -2.43,-11.67 -0.15,-0.68 -1.13,-0.38 -1.02,0.28 0.69,3.9 1.35,7.85 2.22,11.72z"/>
    <path class="fil3" d="M691.57 476.38c0.65,4.67 1.4,10.56 3.68,15.09 -2.42,1.93 -4.95,3.75 -7.59,5.42l-0.07 -0.12c0.4,-0.28 0.65,-0.82 0.42,-1.38 -2.59,-6.07 -6.15,-12.11 -10.32,-17.26 4.55,-2.12 9.04,-4.32 13.41,-6.64 0.09,1.68 0.25,3.35 0.47,4.89z"/>
    <path class="fil3" d="M687.6 496.78l0.07 0.12c-5.7,3.69 -11.87,6.79 -18.27,9.44 -2.85,-6.94 -7.55,-13.57 -11.96,-19.63 6.52,-2.47 12.89,-5.15 19.13,-8.04 3.47,5.85 6.69,11.65 9.67,17.76 0.31,0.64 0.92,0.65 1.36,0.35z"/>
    <path class="fil3" d="M656.07 487.22c4.05,6.47 7.4,13.46 11.54,19.84 -7.77,3.09 -15.89,5.55 -24.03,7.6 -0.02,-0.12 -0.03,-0.23 -0.1,-0.37 -3.03,-6.67 -5.99,-13.19 -8.27,-20.16 7.07,-2.05 14.03,-4.37 20.86,-6.92z"/>
    <path class="fil3" d="M633.64 494.59c1.84,7.07 4.37,14.24 8.05,20.54 -7.3,1.77 -14.61,3.25 -21.66,4.57 -2.9,-6.6 -5.9,-13.22 -9.34,-19.56 7.72,-1.54 15.37,-3.4 22.94,-5.55z"/>
    <path class="fil3" d="M453.99 536.68c-1.78,5.25 -6.94,10.91 -9.69,14.84 -3.37,4.85 -6.99,9.52 -10.39,14.36 -0.12,0.17 -0.15,0.35 -0.15,0.52 -1.78,-1.63 -4.02,-2.87 -6.54,-3.67 9.27,-8.29 17.94,-17.28 26.76,-26.05z"/>
    <path class="fil3" d="M609.15 500.46c2.78,6.59 5.79,13.07 8.64,19.64 -8.15,1.47 -16.29,2.52 -24.45,3.24 -0.6,-6.67 -1.63,-13.42 -3.45,-19.86 6.44,-0.78 12.87,-1.78 19.26,-3.02z"/>
    <path class="fil3" d="M588.69 503.61c1.08,6.64 2.08,13.21 2.65,19.89 -6.3,0.52 -12.61,0.84 -18.91,1 0,-0.02 0,-0.05 0,-0.07 -0.97,-6.44 -1.73,-12.89 -2.7,-19.31 6.3,-0.25 12.64,-0.78 18.96,-1.52z"/>
    <path class="fil3" d="M568.41 505.18c0.03,6.45 0.85,13.04 2,19.38 -7.2,0.13 -14.41,0.1 -21.64,-0.1 -0.42,-6.59 -1.62,-13.22 -3.33,-19.59 7.6,0.48 15.27,0.58 22.98,0.31z"/>
    <path class="fil3" d="M544.08 504.78c1.3,6.52 2.15,13.01 2.83,19.61 -4.6,-0.13 -9.2,-0.33 -13.82,-0.58 -0.05,0 -0.07,0.02 -0.1,0.02 -0.65,-5.35 -2.68,-10.72 -5.09,-14.74 -1.57,-2.63 -3.48,-4.99 -5.67,-7l0.15 -0.17c0.1,0.15 0.27,0.25 0.48,0.3 6.99,1.22 14.06,2.07 21.21,2.57z"/>
    <path class="fil3" d="M444.8 483.52c-8.6,-0.1 -17.21,0.27 -25.56,0.68 -6.2,0.32 -12.46,0.73 -18.71,1.37 0.72,-3.64 1.27,-7.32 1.68,-11.02 13.84,0.82 28.03,0.28 41.81,-1.15 0.2,3.42 0.45,6.8 0.78,10.12z"/>
    <path class="fil3" d="M443.58 461.31c0.03,3.29 0.13,6.55 0.3,9.81 -13.84,0.78 -27.65,1.23 -41.49,1.78 0.3,-3.09 0.5,-6.19 0.62,-9.3 13.32,0.37 26.75,-0.47 39.97,-2.04 0.25,-0.03 0.44,-0.13 0.6,-0.25z"/>
    <path class="fil3" d="M443.73 450.05c-0.12,3.09 -0.18,6.17 -0.17,9.25 -0.17,-0.07 -0.35,-0.12 -0.58,-0.1 -13.31,1.37 -26.56,2.17 -39.9,2.88 0.08,-3.35 0.07,-6.72 -0.03,-10.07 8.8,-0.03 17.63,-0.33 26.43,-0.73 2.9,-0.13 10.87,0.85 13.24,-0.7 0.1,-0.05 0.53,-0.25 1.02,-0.53z"/>
    <path class="fil3" d="M444.3 440.82c-0.17,2.15 -0.32,4.3 -0.43,6.49 -0.07,0 -0.13,0 -0.22,-0.02 -0.85,-0.17 -3.29,0.88 -4.23,1.02 -2.72,0.37 -5.55,0.33 -8.29,0.5 -9.37,0.57 -18.76,1.05 -28.15,1.72 -0.15,-3.65 -0.4,-7.29 -0.77,-10.91l0.78 -0.08c0,0.4 0.27,0.8 0.8,0.84 13.49,0.43 27.01,0.43 40.5,0.45z"/>
    <path class="fil3" d="M445.75 428.26c-0.52,3.27 -0.92,6.62 -1.23,9.99 -13.57,0 -27.16,0.02 -40.72,0.45 -0.53,0.03 -0.8,0.43 -0.8,0.84l-0.78 0.08c-0.35,-3.52 -0.8,-7 -1.35,-10.47 11.79,-0.02 23.6,-0.2 35.39,-0.55 3.17,-0.08 6.34,-0.21 9.5,-0.33z"/>
    <path class="fil3" d="M268.39 357.41c-1.27,4.7 -2.13,9.5 -2.7,14.37 -5.77,0.22 -11.41,-0.2 -17.14,-1.33 0.98,-5.27 2.22,-10.49 3.74,-15.66 0.2,-0.68 -0.12,-1.2 -0.6,-1.47 0.05,0 0.1,0 0.15,0 0.1,0.13 0.23,0.25 0.43,0.32 4.92,1.75 10.57,3.25 16.12,3.77z"/>
    <path class="fil3" d="M248.25 371.96c5.57,1.53 11.39,2.22 17.18,2.07 -0.53,5.62 -0.63,11.3 -0.42,17.02 -6.37,0.67 -12.67,0.68 -19.04,0.25 0.38,-6.48 1.13,-12.94 2.28,-19.34z"/>
    <path class="fil3" d="M265.11 393.24c0.3,5.49 0.93,10.97 1.78,16.44 -6.92,1 -13.89,2.05 -20.74,3.5 -0.5,-6.72 -0.58,-13.46 -0.27,-20.18 6.39,0.78 12.81,0.8 19.23,0.23z"/>
    <path class="fil3" d="M267.23 411.8c0.98,5.9 2.25,11.76 3.68,17.51 -7.17,2.7 -14.22,4.34 -21.79,5.25 -1.35,-6.64 -2.3,-13.32 -2.85,-20.03 7,-0.64 14.01,-1.67 20.96,-2.74z"/>
    <path class="fil3" d="M276.13 447.67c0.18,0.57 0.38,1.13 0.58,1.7 -6.39,4.12 -13.16,6.52 -20.68,7.84 -0.23,0.03 -0.37,0.17 -0.45,0.33 -1.18,-3.3 -2.28,-6.64 -3.27,-10.01 -1.1,-3.82 -2.07,-7.67 -2.88,-11.54 7.49,-0.25 15.04,-1.82 22.05,-4.44 1.42,5.49 2.98,10.89 4.65,16.11zm-3.9 -0.83c0.4,0.38 1.12,-0.12 0.78,-0.6 -2,-2.97 -3.03,-5.55 -2.9,-9.19 0.02,-0.47 -0.75,-0.6 -0.84,-0.12 -0.6,3.41 0.4,7.47 2.95,9.91zm-2.37 1.57c0.69,0.6 1.68,-0.37 1.02,-1 -2.44,-2.35 -3.64,-5.32 -3.3,-8.69 0.05,-0.52 -0.8,-0.63 -0.92,-0.13 -0.74,3.59 0.4,7.4 3.2,9.82z"/>
    <path class="fil3" d="M284.54 468.36c-0.05,0.05 -0.12,0.07 -0.18,0.12 -5.6,5.12 -11.81,8.66 -18.58,11.82 -3.79,-6.99 -7.07,-14.26 -9.82,-21.73 0.08,0.03 0.17,0.05 0.27,0.05 7.6,-0.35 14.87,-2.9 21.24,-6.99 1.99,5.68 4.34,11.3 7.07,16.72z"/>
    <path class="fil3" d="M299.38 490.42c-0.07,0.02 -0.13,0.03 -0.2,0.08 -6.32,4.27 -12.87,7.77 -19.56,11.39 -2.87,-3.84 -5.54,-7.79 -8,-11.66 -1.8,-2.83 -3.52,-5.74 -5.14,-8.67 7.12,-2.12 13.62,-6.29 19.11,-11.22 3.82,7.24 8.38,14.06 13.79,20.08z"/>
    <path class="fil4" d="M742.8 466.76c1.67,3.47 2.32,7.29 1.88,11.12 -0.12,0.93 -1.6,0.95 -1.48,0 0.42,-3.72 -0.03,-7.22 -1.4,-10.7 -0.24,-0.58 0.73,-0.97 1,-0.42z"/>
    <path class="fil5" d="M737.28 456.22c13.37,4.6 17.49,33.2 0.77,35.59 -0.17,-1.35 -0.97,-2.7 -2.32,-3.55 -1.78,-1.12 -3.9,-1.02 -5.94,-0.8 -0.43,-3.29 -1.02,-6.6 -1.8,-9.84 1.95,-0.18 3.92,-0.37 5.89,-0.55 0.62,-0.07 1.1,-0.47 1.12,-1.13 0.07,-2.32 2.33,-5.67 -0.58,-7.17 -1.33,-0.68 -3.15,-0.6 -4.85,-0.47 -0.58,-2.67 -0.93,-5.15 -0.67,-7.9 0,-0.05 -0.02,-0.08 -0.02,-0.12 3.72,-0.15 7.11,-1.09 8.4,-4.05zm7.4 21.66c0.43,-3.83 -0.22,-7.65 -1.88,-11.12 -0.27,-0.55 -1.23,-0.17 -1,0.42 1.37,3.48 1.82,6.99 1.4,10.7 -0.12,0.95 1.37,0.94 1.48,0z"/>
    <path class="fil4" d="M737.78 454.51c17.81,2.42 19.58,39.27 -0.47,40.15 -0.02,0 -0.02,-0.02 -0.03,0 -0.33,0.43 -0.75,0.84 -1.32,1.13 -1.72,0.97 -4.03,0.93 -6.1,0.93 0.05,0.08 0.08,0.2 0.08,0.33 1.93,25.5 2.37,51.16 3.82,76.71 0.05,1 -0.82,1.42 -1.58,1.27 -7.19,4.7 -18.08,5.27 -24.8,-0.45 -0.45,-0.38 -0.17,-1.12 0.32,-1.3 -0.02,-0.1 -0.07,-0.17 -0.07,-0.27 -1.6,-24.95 -2.95,-49.91 -4.29,-74.87 -2.88,-0.6 -5,-2.15 -6.59,-4.25 -21,16.89 -50.01,23.78 -75.94,28.65 -28.63,5.37 -58.71,7.33 -87.66,3.35 0.28,5.84 -1.27,11.42 -6.05,14.97 -0.07,0.07 -0.13,0.07 -0.2,0.1 1.63,5.94 2.82,12.07 3.64,18.23 5.47,41.25 4.94,83.92 2.32,125.38 -0.12,1.74 -2.58,1.88 -2.94,0.45 -17.11,-0.4 -34.17,0.37 -51.24,0.23 0.05,0.4 0.08,0.8 0.13,1.2 1.67,14.07 2.04,28.23 1.37,42.39 0,0.15 -0.05,0.28 -0.1,0.42 0.45,0.87 0.05,2.22 -1.25,2.24 -1.55,0.02 -3.1,0.02 -4.65,0.03 -0.93,11.12 -1.62,22.31 -2.8,33.42 -0.8,7.4 -2.18,14.96 -7.52,20.53 -9.67,10.12 -26.16,10.42 -39.15,10.47 -15.41,0.05 -31.5,-2.77 -39.72,-17.29 -8.17,-14.42 -8.82,-35.2 -9.01,-51.36 -1.67,-0.2 -3.33,-0.4 -5,-0.63 -0.73,-0.1 -0.92,-0.8 -0.73,-1.4 -0.07,-0.1 -0.12,-0.2 -0.15,-0.32 -3.03,-14.24 -4.84,-29.47 -2.65,-43.95 -18.58,1.68 -37.67,1.72 -56.14,-0.65 -0.84,-0.1 -1.22,-0.88 -1.08,-1.52 -0.05,-0.07 -0.1,-0.13 -0.13,-0.22 -6.37,-20.73 -5.87,-43.1 -4.38,-64.51 1.32,-18.96 2.73,-38.25 6.67,-56.88 0.8,-3.82 1.77,-7.5 2.88,-11.09 -9.12,-1.08 -10.61,-10.95 -9.19,-19.09 -0.07,0 -0.15,0 -0.23,-0.03 -14.82,-4.77 -25.28,-18.73 -33.77,-31.1 -9.24,-13.47 -16.36,-28.38 -21.28,-43.95 -6.05,-19.21 -8.6,-39.34 -7.62,-59.31 -0.15,-0.03 -0.3,-0.05 -0.47,-0.07 -0.85,-0.13 -0.63,-1.58 0.22,-1.5 0.1,0.02 0.2,0.02 0.32,0.03 0.73,-12.51 2.85,-24.93 6.4,-37.03 0.13,-0.43 0.42,-0.7 0.73,-0.85 -6.69,-0.73 -14.36,-4.59 -18.03,-9.75 -4.34,-6.09 -3.72,-16.52 -1.45,-23.29 1.32,-3.94 4.17,-7.07 7.89,-9.49 -1.52,-2.88 -2.9,-5.84 -4.29,-8.81 -0.63,-1.3 -1.87,-3.18 -1.62,-4.74 0.55,-3.48 5.2,-2.18 7.05,-4.25 0.45,-0.52 1.48,-0.43 1.78,0.22 2,4.5 4.07,8.99 5.95,13.54 2.75,-0.85 5.67,-1.45 8.57,-1.82 -0.23,-5.35 -0.58,-10.42 -2.2,-15.61 -0.28,-0.92 0.6,-1.55 1.43,-1.42 4.17,0.7 8.2,0.58 12.34,-0.3 0.83,-0.18 1.63,0.52 1.4,1.4 -1.4,5.22 -1.62,10.32 -1.95,15.64 2.82,0.23 5.42,0.72 7.62,1.43 1,-2.4 2.07,-4.79 3.13,-7.19 0.85,-1.92 1.53,-4.2 3.39,-5.42 3.07,-2.07 7.05,-0.13 9.82,1.55 0.7,0.42 0.72,1.23 0.23,1.82 -3.35,4.15 -5.87,8.77 -7.57,13.84 -0.05,0.15 -0.13,0.25 -0.22,0.37 1.63,1.37 3.12,2.93 4.42,4.64 2.2,-2.2 4.47,-4.32 6.72,-6.44 1.45,-1.37 3.22,-3.72 5.22,-4.3 3.42,-0.98 6.75,3.32 8.51,5.72 0.38,0.53 0.07,1.27 -0.42,1.58 -5.64,3.64 -10.19,8 -14.69,12.91 -0.1,0.1 -0.22,0.17 -0.32,0.23 1.72,5.4 2.04,11.26 0.67,16.79 -3.03,12.31 -12.44,15.84 -22.7,15.52 -1.27,4.6 -2.13,9.32 -2.7,14.07 0.12,-0.02 0.23,-0.02 0.35,-0.02 1.42,-0.12 1.42,2.12 0,2.22 -0.22,0.02 -0.42,0.03 -0.62,0.05 -0.55,5.64 -0.63,11.36 -0.38,17.09 0.47,0.35 0.5,1.15 0.08,1.65 0.98,17.54 5.19,35.2 10.1,51.47 0.45,1.47 0.92,2.92 1.4,4.37 0.33,0.28 0.52,0.77 0.42,1.22 7.9,22.98 21.16,43.44 42.67,55.75 6.24,-3.02 13.53,-3.95 20.76,-2.47 0.47,0.08 0.72,0.37 0.83,0.7 6.5,-4.82 13.99,-8.74 22.61,-11.52 10.42,-3.39 21.34,-5.27 32.32,-6.45 1.48,-19.09 1.84,-37.5 -0.57,-56.58 -10.1,0 -20.21,-0.1 -30.32,-0.33 -9.62,-0.23 -22.03,1.23 -31.3,-1.82 -5.4,-1.78 -8.89,-5.47 -8.64,-11.3 0.03,-0.85 0.7,-1.28 1.35,-1.28 -0.95,-24.33 -0.75,-48.76 -0.97,-73.1 -0.15,-15.14 -5.78,-40.35 13.97,-45.16 8.55,-2.07 18.01,-0.7 26.66,-0.35 5.22,0.2 10.44,0.42 15.67,0.62 -0.49,-3.87 -1.48,-7.04 2.43,-8.32 0.87,-0.28 1.88,-0.43 2.95,-0.48 -4.14,-16.56 6.9,-35.24 24.8,-36.2 8.44,-0.45 17.26,2.95 22.66,9.57 6.35,7.75 6.39,18.16 5.74,27.65 -0.02,0.27 -0.12,0.49 -0.23,0.67 0.18,0.08 0.35,0.18 0.5,0.28 2.4,1.73 1.75,6.17 1.48,9.24 9.32,0.38 18.64,0.75 27.96,1.12 7.64,0.3 17.02,-0.8 23.58,3.9 4.72,3.39 6.77,9.14 7.74,14.64 1.58,8.95 0.83,18.34 0.87,27.4 0.03,11.39 0.05,22.79 0.08,34.2 0.03,10.14 1.73,22.18 -0.42,32.13 -1.19,5.42 -4.25,9.22 -9.3,11.49 -8.09,3.6 -18.34,3.05 -26.95,3.53 -6.9,0.37 -13.81,0.69 -20.69,0.95 -0.17,18.39 -1.15,36.95 -1.57,55.38 10.27,0.18 20.53,1.07 30.33,3.35 7.3,1.7 13.72,4.45 19.36,8.05 9.5,-2.39 19.16,0.67 26.11,7.12 2.19,2.02 4.1,4.37 5.67,7 2.4,4.02 4.43,9.39 5.09,14.74 0.03,0 0.05,-0.02 0.1,-0.02 4.62,0.25 9.22,0.45 13.82,0.58 -0.68,-6.6 -1.53,-13.09 -2.83,-19.61 -7.15,-0.5 -14.22,-1.35 -21.21,-2.57 -0.22,-0.05 -0.38,-0.15 -0.48,-0.3 -0.37,-0.52 -0.05,-1.48 0.72,-1.43 29.18,1.68 57.54,2.02 86.41,-3.47 28.55,-5.42 55.84,-15.29 81.56,-28.77l0.02 0c0.25,-6.04 2.17,-11.89 8.42,-13.89 0.25,-0.08 0.49,0 0.63,0.13 0.28,-0.1 0.57,-0.18 0.85,-0.28 -0.03,-0.43 -0.05,-0.87 -0.08,-1.3 -2.2,-39.92 -5.75,-80.11 -5.9,-120.11 0,-0.83 1,-0.93 1.37,-0.4 0.1,0.1 0.15,0.23 0.17,0.4 4.24,39.82 5.14,80.16 7.35,120.11 2.2,40.04 4.7,80.06 6.54,120.11 0.02,0.42 -0.12,0.73 -0.33,0.95 7.32,2.5 13.81,2.75 20.84,-1.27 -1.62,-25.11 -3.33,-50.49 -2.72,-75.64 0,-0.12 0.03,-0.23 0.07,-0.32 -2.68,0.1 -5.8,0.62 -8.39,-0.35 -2.98,-1.1 -4.62,-4.79 -2.22,-7.25 0.47,-0.49 1,-0.43 1.38,-0.17 2.88,-0.52 5.8,-0.9 8.72,-1.27 -0.6,-3.27 -1.07,-6.62 -1.32,-9.94l-2.42 0.23c-1.97,0.18 -4.32,0.77 -6.12,-0.33 -2.83,-1.74 -2.32,-5.84 -1.18,-8.42 0.25,-0.57 0.73,-0.65 1.15,-0.47 0.07,-0.02 0.13,-0.05 0.22,-0.05 3.02,-0.13 6.05,-0.22 9.09,-0.28 0.2,0 0.42,-0.02 0.63,-0.03 -0.87,-2.57 -0.87,-5.47 -0.33,-8.12 -3.5,-0.03 -7.09,-0.6 -9.36,-0.73 -0.62,-0.03 -1.12,-0.48 -1.13,-1.13 -0.02,-1.85 -0.07,-3.7 0,-5.55 0.03,-1.12 1.33,-1.33 1.92,-0.69 0.08,-0.15 0.23,-0.27 0.45,-0.33 1.52,-0.45 4.8,-1.55 8.19,-2.18 -5.34,-36.99 -3.62,-76.45 -0.52,-113.56 0,-0.08 0.03,-0.15 0.05,-0.22 -9.07,-0.28 -18.49,-0.9 -27.28,-3.37 -0.78,0.05 -1.6,0.1 -2.32,0.28 -0.55,0.13 -0.88,-0.15 -1,-0.52 -0.18,-0.57 0.15,-1.35 1,-1.15 0.17,0.05 0.35,0.05 0.53,0.08 0.03,-0.43 0.32,-0.83 0.87,-0.8 9.77,0.72 19.39,2.25 29.21,2.53 1.2,0.03 1.63,1.2 1.35,2.07 0.28,0.22 0.48,0.57 0.45,1.08 -1.33,19.03 -2.24,38.04 -2.25,57.11 0,18.74 1.52,37.43 1.7,56.16 4.7,-0.62 9.04,0.03 8.44,4.99 -0.02,0.05 -0.04,0.09 -0.04,0.14zm0.27 37.3c16.72,-2.39 12.61,-30.98 -0.77,-35.59 -1.3,2.97 -4.69,3.9 -8.4,4.05 0,0.03 0.02,0.07 0.02,0.12 -0.27,2.75 0.08,5.24 0.67,7.9 1.7,-0.13 3.52,-0.22 4.85,0.47 2.92,1.5 0.65,4.85 0.58,7.17 -0.02,0.67 -0.5,1.07 -1.12,1.13 -1.97,0.18 -3.94,0.37 -5.89,0.55 0.78,3.24 1.37,6.55 1.8,9.84 2.04,-0.22 4.15,-0.32 5.94,0.8 1.35,0.85 2.15,2.2 2.32,3.55zm-3.64 2.12c0.67,-2.95 0.02,-4.37 -1.97,-4.27 -0.7,-0.12 -1.4,-0.13 -2.1,-0.05 -1.22,0.03 -2.47,0.22 -3.68,0.33 -2.39,0.2 -4.77,0.42 -7.15,0.52 -0.05,0.12 -0.08,0.22 -0.17,0.33 -3.12,4 5.99,3.67 7.8,3.6 1.84,-0.05 5.67,0.52 7.27,-0.47zm-0.87 -37.02c2.74,-1.72 3.32,-5.17 -1.33,-5.55 -1.45,-0.12 -3.27,0.47 -4.69,0.7 -2.59,0.42 -5.15,0.92 -7.74,1.28 -0.22,0.03 -0.4,-0.02 -0.55,-0.1 0.05,1.37 0.05,2.75 0.07,4.12 2.28,0.15 4.57,0.28 6.85,0.42 2.44,0.15 5.22,0.5 7.39,-0.87zm-0.13 15.71c0.05,-2.18 -1.82,-1.95 -3.62,-1.95 -3.72,-0.03 -7.45,-0.13 -11.19,-0.25 -0.25,1.18 -0.8,2.85 -0.32,3.88 1.13,2.42 3.87,1.57 5.77,1.4 2.95,-0.27 5.92,-0.53 8.87,-0.8 0.18,-0.78 0.48,-1.55 0.48,-2.28zm-30.22 22.68c-0.72,-13.39 -1.42,-26.78 -2.15,-40.15 -0.22,0.03 -0.4,0.07 -0.62,0.1 -0.02,0.2 -0.12,0.4 -0.33,0.53 -9.95,5.99 -8.45,34.45 3.1,39.52zm-7.94 -3.82c-2.28,-4.54 -3.03,-10.42 -3.68,-15.09 -0.22,-1.53 -0.38,-3.2 -0.47,-4.89 -4.37,2.32 -8.85,4.52 -13.41,6.64 4.17,5.15 7.74,11.19 10.32,17.26 0.23,0.57 -0.02,1.1 -0.42,1.38 -0.45,0.3 -1.05,0.28 -1.37,-0.35 -2.98,-6.1 -6.2,-11.91 -9.67,-17.76 -6.24,2.88 -12.61,5.57 -19.13,8.04 4.4,6.05 9.1,12.69 11.96,19.63 6.4,-2.65 12.57,-5.75 18.27,-9.44 2.64,-1.66 5.17,-3.48 7.59,-5.42zm-27.65 15.59c-4.14,-6.39 -7.49,-13.37 -11.54,-19.84 -6.84,2.55 -13.79,4.87 -20.86,6.92 2.28,6.97 5.24,13.49 8.27,20.16 0.07,0.13 0.08,0.25 0.1,0.37 8.14,-2.05 16.26,-4.52 24.03,-7.6zm-25.91 8.07c-3.68,-6.3 -6.22,-13.47 -8.05,-20.54 -7.57,2.15 -15.22,4.02 -22.94,5.55 3.44,6.34 6.44,12.96 9.34,19.56 7.05,-1.31 14.35,-2.8 21.66,-4.57zm-23.91 4.97c-2.85,-6.57 -5.85,-13.06 -8.64,-19.64 -6.39,1.23 -12.82,2.24 -19.26,3.02 1.82,6.44 2.85,13.19 3.45,19.86 8.16,-0.71 16.29,-1.76 24.45,-3.23zm-26.44 3.4c-0.57,-6.69 -1.57,-13.26 -2.65,-19.89 -6.32,0.73 -12.66,1.27 -18.96,1.52 0.97,6.42 1.73,12.87 2.7,19.31 0,0.02 0,0.05 0,0.07 6.3,-0.16 12.6,-0.48 18.91,-1zm-20.93 1.05c-1.15,-6.34 -1.97,-12.92 -2,-19.38 -7.7,0.27 -15.37,0.17 -22.98,-0.32 1.72,6.37 2.92,13.01 3.33,19.59 7.24,0.2 14.44,0.24 21.64,0.1zm-40.4 157.56c2.5,-40.59 2.98,-82.37 -2.43,-122.73 -2.37,-17.59 -7.19,-35.27 -18.49,-49.32 -11.81,-14.67 -28.61,-20.71 -46.91,-22.43 -18.04,-1.7 -36.47,-1.18 -54.51,0.32 -16.86,1.38 -34.2,3.7 -49.77,10.69 -31.02,13.94 -41.44,44.96 -45.54,76.39 -4.45,34.25 -7.04,68.93 -0.27,103 18.73,0.88 37.14,1.12 55.84,0 1.37,-7.17 3.75,-14.11 7.54,-20.63 10.65,-18.34 29.41,-25.46 49.94,-25.35 17.63,0.1 37.43,5.89 46.07,22.61 4.42,8.59 5.8,18.78 6.94,28.4 16.87,-2.31 34.65,-1.98 51.59,-0.95zm-3.92 -143.97c8.52,-6.87 3.25,-22.51 -1.8,-29.85 -6,-8.69 -15.84,-12.74 -26,-11.89 13.92,9.77 22.71,24.88 27.8,41.74zm-27.6 -120.24c4.12,-4.27 3.95,-9.54 3.95,-15.04 0,-5.69 -0.02,-11.36 -0.03,-17.04 -28.51,0.08 -57.05,-0.02 -85.56,-0.05 -14.32,0 -28.66,-0.02 -42.99,-0.02 -6.62,-0.02 -13.22,-0.03 -19.84,-0.03 -6.5,-0.02 -13.72,0.97 -19.86,-1.45 -0.03,-0.02 -0.03,-0.08 0,-0.1 0.35,-0.13 0.7,-0.22 1.05,-0.33 -0.78,-0.05 -1.55,-0.1 -2.28,-0.13 -0.57,-0.03 -0.83,-0.45 -0.83,-0.87 0,-0.42 0.27,-0.83 0.83,-0.87 1.98,-0.08 4.14,-0.4 6.1,-0.12 0.5,0.07 0.73,0.53 0.73,1 4.69,-0.57 9.64,-0.08 14.26,-0.1 6.62,0 13.22,0 19.84,0l37.65 0.03c2.59,-5.19 1.52,-16.69 1.9,-22.44 0.43,-6.4 0.82,-12.79 1.15,-19.19 0.7,-13.32 1,-26.66 1.47,-40 0.02,-0.2 0.07,-0.35 0.12,-0.5 -12.42,-0.5 -24.84,-1 -37.27,-1.48 -13.91,-0.57 -43.6,-7.17 -47.24,12.04 -1.62,8.54 -0.33,18.19 -0.25,26.85 0.07,8.69 0.15,17.37 0.2,26.06 0.03,6.24 0.12,12.47 0.18,18.73 0.12,12.07 0.18,24.16 -0.15,36.23 4.82,8.9 29,6.59 36.42,6.75 9.74,0.23 19.48,0.35 29.23,0.35 20.56,0.02 41.14,-0.47 61.68,-1.43 9.01,-0.43 18.19,-0.53 27.13,-1.74 4.7,-0.63 8.99,-1.55 12.4,-5.1zm3.92 -35.02c-0.03,-11.26 -0.08,-22.51 -0.12,-33.77 -0.03,-14.16 4.69,-41.29 -14.02,-45.26 -8.92,-1.9 -19.06,-1.1 -28.16,-1.47 -8.67,-0.33 -17.33,-0.69 -26,-1.03 -5.12,-0.2 -10.22,-0.4 -15.34,-0.62 0.03,0.13 0.07,0.25 0.07,0.4 -0.03,17.06 -0.92,34.17 -2.04,51.19 -0.55,8.52 -1.03,17.07 -2.02,25.56 -0.25,2.05 -0.17,3.72 -1.08,4.89l3.15 0.02c28.52,0.01 57.05,-0.06 85.56,0.08zm-25.18 345.62c0.97,-21.23 0.78,-44.74 -5.57,-65.17 -6.1,-19.63 -24.6,-27.6 -43.91,-28.28 -20.73,-0.73 -39.99,6 -50.46,24.84 -11.04,19.86 -8.47,42.97 -5.39,64.53 0,0 0,0.02 0,0.03 35.15,1.72 70.07,4.27 105.32,4.04zm-8.09 27.48c0.68,-8.14 1.37,-16.29 2.05,-24.45 -31.07,0.18 -62.58,-0.35 -93.43,-4.02 2.65,13.99 2.07,28.8 6.64,42.39 6.04,17.88 21.48,22.98 38.97,23.05 5.8,0.02 12.49,0.05 18.93,-0.88 -1.78,-1.47 -3.44,-3.12 -5.02,-4.79 -1.73,-1.8 -4.25,-3.95 -4.9,-6.42 -0.07,-0.23 0.17,-0.53 0.42,-0.43 2.28,0.92 4.03,3.25 5.84,4.89 2.25,2.05 4.69,3.92 6.94,5.99 0.05,0.05 0.08,0.12 0.12,0.18 6.15,-1.28 11.87,-3.67 16.08,-8.12 6.83,-7.26 6.62,-18.08 7.38,-27.38zm-49.91 -271.79c8.35,-0.42 16.96,-0.78 25.56,-0.68 -0.33,-3.32 -0.58,-6.7 -0.78,-10.12 -13.77,1.43 -27.96,1.97 -41.81,1.15 -0.42,3.7 -0.97,7.39 -1.68,11.02 6.26,-0.63 12.51,-1.05 18.71,-1.37zm25.28 -45.96c0.32,-3.37 0.72,-6.72 1.23,-9.99 -3.17,0.12 -6.34,0.25 -9.51,0.33 -11.79,0.35 -23.6,0.53 -35.39,0.55 0.55,3.47 1,6.95 1.35,10.47 0.37,3.62 0.62,7.25 0.77,10.91 9.39,-0.67 18.78,-1.15 28.15,-1.72 2.73,-0.17 5.57,-0.13 8.29,-0.5 0.95,-0.13 3.39,-1.19 4.24,-1.02 0.08,0.02 0.15,0.02 0.22,0.02 0.12,-2.18 0.27,-4.34 0.43,-6.49 -13.49,-0.02 -27.01,-0.02 -40.5,-0.45 -0.53,-0.03 -0.8,-0.43 -0.8,-0.83 0,-0.4 0.27,-0.8 0.8,-0.84 13.56,-0.43 27.15,-0.45 40.72,-0.45zm-0.63 32.87c-0.17,-3.25 -0.27,-6.52 -0.3,-9.81 -0.17,0.12 -0.35,0.22 -0.6,0.25 -13.22,1.57 -26.65,2.4 -39.97,2.04 -0.12,3.12 -0.32,6.22 -0.62,9.3 13.84,-0.55 27.65,-1 41.49,-1.78zm-0.32 -11.8c-0.02,-3.09 0.05,-6.17 0.17,-9.25 -0.49,0.28 -0.92,0.49 -1.02,0.53 -2.37,1.55 -10.34,0.57 -13.24,0.7 -8.81,0.4 -17.63,0.7 -26.43,0.73 0.1,3.35 0.12,6.72 0.03,10.07 13.34,-0.72 26.6,-1.52 39.9,-2.88 0.23,-0.02 0.42,0.03 0.58,0.1zm-0.88 -160.6c0.22,-2.05 0.58,-5.22 -0.03,-6 -1.52,-1.92 -8.31,-1.33 -10.49,-1.38 -5.29,-0.1 -10.57,-0.22 -15.86,-0.32 -5.82,-0.12 -11.64,-0.23 -17.44,-0.38 -2.43,-0.05 -5.54,-0.68 -7.94,-0.18 -2.42,-1.08 -3.72,-0.49 -3.88,1.82 -0.67,1.32 -0.97,2.72 -0.97,4.2 5.72,0.23 11.46,0.45 17.18,0.68 13.14,0.52 26.28,1.05 39.44,1.57zm-2.07 -10.09c1.13,-16.49 -3.9,-34 -23.49,-34.47 -17.76,-0.43 -27.43,17.33 -25.08,33.2 0.02,0.08 0,0.17 0,0.25 2.87,0.08 5.99,0.6 8.4,0.63 1.93,0.05 3.87,0.08 5.8,0.12 -0.27,-4.25 -1.03,-8.24 -2.6,-12.07 -1.15,0.7 -2.32,1.6 -3.47,2.75 -0.72,0.72 -1.7,-0.33 -1.1,-1.08 1.1,-1.37 2.35,-2.55 3.74,-3.52 -0.3,-0.62 -0.62,-1.22 -0.97,-1.84 -0.77,-1.33 1.33,-2.54 2.05,-1.2 0.32,0.62 0.62,1.25 0.92,1.88 1.78,-0.88 3.72,-1.45 5.82,-1.57 4.07,-0.25 7.95,1.84 11.85,3.12 0.97,-2.68 2.25,-5.24 3.88,-7.5 0.82,-1.13 2.54,-0.17 1.9,1.12 -1.19,2.42 -2.24,4.75 -3.12,7.1 2.28,0.45 4.59,0.4 6.94,-0.77 1.39,-0.7 2.6,1.38 1.22,2.08 -3.09,1.55 -5.92,1.62 -8.94,0.9 -1.13,3.44 -1.92,6.95 -2.28,10.86 0,0.02 -0.02,0.05 -0.02,0.07 3.37,0.07 6.72,0.15 10.09,0.22 1.84,0.03 5.57,-0.49 8.47,-0.22 0,-0.01 -0.01,-0.03 -0.01,-0.06zm-18.81 -11.64c-0.18,-0.07 -0.37,-0.13 -0.57,-0.2 -5.62,-2.12 -10.67,-3.47 -15.57,-1.5 1.67,4.17 2.6,8.59 2.45,13.12 2.72,0.05 5.45,0.1 8.19,0.17l4.03 0.08c0,-0.02 0,-0.02 0,-0.03 -0.12,-3.8 0.37,-7.82 1.47,-11.64zm-80.01 228.36c-5.97,-0.98 -11.92,-0.37 -17.19,1.92 0,0.63 -0.72,1.28 -1.5,0.93 -0.07,-0.03 -0.15,-0.08 -0.22,-0.12 -3.37,1.75 -6.39,4.22 -8.89,7.44 -5.99,7.7 -10.47,24.3 1.53,29.33 0.05,0.02 0.08,0.05 0.12,0.07 5.2,-15.99 13.69,-29.6 26.14,-39.57zm-33.92 15.32c2.63,-6.12 6.97,-10.85 12.22,-13.97 -7.4,-3.83 -13.84,-8.92 -19.43,-14.86 -0.07,0.2 -0.18,0.38 -0.4,0.55 -5.95,4.32 -12.72,8.26 -19.74,10.74 7.07,9.19 15.47,17.56 25.86,22.19 0.4,-1.7 0.9,-3.29 1.49,-4.65zm-2 -209.84c-1,-1.32 -2.43,-3.02 -3.72,-3.44 -2.32,-0.75 -3.83,1.48 -5.27,2.75 -2.59,2.3 -5.15,4.62 -7.79,6.85 1.25,1.84 2.3,3.82 3.15,5.9 3.79,-4.75 8.57,-8.72 13.62,-12.07zm-6.7 179.67c0.07,-0.05 0.13,-0.07 0.2,-0.08 -5.4,-6.02 -9.97,-12.84 -13.79,-20.08 -5.49,4.94 -11.99,9.1 -19.11,11.22 1.62,2.94 3.33,5.84 5.14,8.67 2.47,3.87 5.14,7.82 8,11.66 6.69,-3.62 13.24,-7.12 19.56,-11.39zm-8.27 -149.22c2.82,-11.32 -2.28,-24.63 -12.49,-30.53 -10.8,-6.24 -28.31,-3.33 -38.69,3.1 -6.79,4.22 -7.92,13.19 -7.25,20.61 0.87,9.59 12.07,16.31 21.21,16.02 1.15,-0.03 1.57,1.03 1.28,1.87 13.34,3.55 31.65,6.15 35.94,-11.07zm-1.93 -45.01c-1.07,-0.6 -2.18,-1.13 -3.39,-1.37 -2.4,-0.45 -3.59,0.83 -4.69,2.78 -1.62,2.88 -2.9,5.95 -4.38,8.9 1.92,0.78 3.72,1.77 5.39,2.95 1.65,-4.81 4.03,-9.22 7.07,-13.27zm-4.62 172.2c0.07,-0.05 0.13,-0.07 0.18,-0.12 -2.74,-5.42 -5.09,-11.04 -7.07,-16.72 -6.37,4.09 -13.64,6.64 -21.24,6.99 -0.1,0 -0.18,-0.02 -0.27,-0.05 2.75,7.47 6.04,14.74 9.82,21.73 6.77,-3.17 12.97,-6.7 18.58,-11.82zm-7.64 -19.11c-0.2,-0.57 -0.4,-1.13 -0.58,-1.7 -1.67,-5.22 -3.24,-10.62 -4.65,-16.11 -7,2.62 -14.56,4.18 -22.05,4.44 0.82,3.87 1.78,7.72 2.88,11.54 0.98,3.37 2.08,6.7 3.27,10.01 0.08,-0.17 0.22,-0.3 0.45,-0.33 7.52,-1.32 14.29,-3.72 20.68,-7.84zm-5.8 -20.06c-1.43,-5.75 -2.7,-11.61 -3.68,-17.51 -6.95,1.07 -13.96,2.1 -20.96,2.74 0.55,6.7 1.5,13.39 2.85,20.03 7.57,-0.92 14.62,-2.55 21.79,-5.25zm-5.22 -57.53c0.57,-4.87 1.43,-9.67 2.7,-14.37 -5.55,-0.52 -11.21,-2.02 -16.13,-3.77 -0.2,-0.07 -0.33,-0.18 -0.43,-0.32 -0.05,0 -0.1,0 -0.15,0 0.49,0.27 0.8,0.78 0.6,1.47 -1.52,5.17 -2.75,10.39 -3.74,15.66 5.74,1.13 11.37,1.55 17.14,1.33zm-0.27 2.25c-5.78,0.15 -11.61,-0.53 -17.18,-2.07 -1.15,6.4 -1.9,12.86 -2.28,19.34 6.37,0.43 12.67,0.42 19.04,-0.25 -0.22,-5.72 -0.12,-11.41 0.42,-17.03zm1.47 35.65c-0.85,-5.47 -1.48,-10.96 -1.78,-16.44 -6.42,0.57 -12.84,0.55 -19.23,-0.23 -0.32,6.72 -0.23,13.46 0.27,20.18 6.85,-1.45 13.82,-2.5 20.74,-3.5zm-8.99 -105.07c2.43,-0.23 4.87,-0.3 7.17,-0.22 -0.37,-4.75 0.42,-9.74 1.52,-14.39 -3.27,0.6 -6.55,0.69 -9.86,0.27 1.2,4.65 1.82,9.57 1.17,14.34zm-12.29 2.7c-1.87,-3.9 -3.59,-7.87 -5.34,-11.84 -0.33,0.2 -0.7,0.37 -1.1,0.5 -1.85,0.65 -2.92,-0.03 -3.19,2.22 -0.4,3.45 2.72,8.29 4.07,11.69 1.72,-1 3.59,-1.85 5.55,-2.57z"/>
    <path class="fil6" d="M732.44 489.66c1.98,-0.1 2.63,1.32 1.97,4.27 -1.6,0.98 -5.43,0.42 -7.27,0.47 -1.82,0.07 -10.92,0.4 -7.8,-3.6 0.08,-0.12 0.12,-0.22 0.17,-0.33 2.39,-0.1 4.77,-0.32 7.15,-0.52 1.22,-0.12 2.47,-0.3 3.68,-0.33 0.7,-0.08 1.4,-0.07 2.1,0.05z"/>
    <path class="fil6" d="M732.21 451.35c4.65,0.38 4.07,3.83 1.33,5.55 -2.17,1.37 -4.95,1.02 -7.39,0.87 -2.28,-0.13 -4.57,-0.27 -6.85,-0.42 -0.02,-1.37 -0.02,-2.75 -0.07,-4.12 0.15,0.08 0.33,0.13 0.55,0.1 2.59,-0.37 5.15,-0.87 7.74,-1.28 1.42,-0.23 3.23,-0.82 4.68,-0.7z"/>
    <path class="fil6" d="M729.79 470.66c1.8,0 3.67,-0.23 3.62,1.95 0,0.73 -0.3,1.5 -0.48,2.28 -2.95,0.27 -5.92,0.53 -8.87,0.8 -1.9,0.17 -4.64,1.02 -5.77,-1.4 -0.49,-1.03 0.07,-2.7 0.32,-3.88 3.74,0.12 7.47,0.22 11.19,0.25z"/>
    <path class="fil4" d="M726.46 497.69c0.27,0 0.27,0.4 0,0.4 -0.27,0 -0.27,-0.4 0,-0.4z"/>
    <path class="fil4" d="M708.65 372.68c0.12,0.82 -1.03,1.19 -1.27,0.35 -0.97,-3.29 -1.55,-6.74 -2.04,-10.12 -0.08,-0.6 0.75,-0.87 0.93,-0.25 0.97,3.27 1.87,6.65 2.37,10.02z"/>
    <path class="fil4" d="M705.95 372.72c0.13,0.8 -1.05,1.15 -1.23,0.33 -0.87,-3.87 -1.53,-7.82 -2.22,-11.72 -0.12,-0.67 0.87,-0.97 1.02,-0.28 0.87,3.87 1.75,7.77 2.43,11.67z"/>
    <path class="fil5" d="M701.04 455.14c0.73,13.37 1.43,26.76 2.15,40.15 -11.56,-5.07 -13.06,-33.53 -3.1,-39.52 0.22,-0.13 0.32,-0.33 0.33,-0.53 0.22,-0.04 0.4,-0.07 0.62,-0.1z"/>
    <path class="fil7" d="M527.57 559.39c5.42,40.35 4.94,82.14 2.43,122.73 -16.94,-1.03 -34.72,-1.37 -51.59,0.95 -1.13,-9.62 -2.52,-19.81 -6.94,-28.4 -8.64,-16.72 -28.45,-22.51 -46.07,-22.61 -20.53,-0.12 -39.29,7 -49.94,25.35 -3.79,6.52 -6.17,13.46 -7.54,20.63 -18.71,1.12 -37.12,0.88 -55.84,0 -6.77,-34.07 -4.18,-68.75 0.27,-103 4.1,-31.43 14.52,-62.45 45.54,-76.39 15.57,-6.99 32.92,-9.3 49.77,-10.69 18.04,-1.5 36.47,-2.02 54.51,-0.32 18.29,1.72 35.1,7.75 46.91,22.43 11.31,14.05 16.13,31.73 18.49,49.32zm0.15 116.24c0.93,-3.53 1.57,-7.54 0.97,-11.17 -0.13,-0.8 -1.35,-0.57 -1.37,0.18 -0.13,3.64 -0.07,7.05 -0.78,10.65 -0.15,0.77 0.99,1.1 1.19,0.33zm-3.37 -2.5c0.55,-3.64 0.68,-7.67 -0.25,-11.26 -0.2,-0.8 -1.57,-0.67 -1.48,0.2 0.35,3.68 0.75,7.19 0.55,10.89 -0.03,0.67 1.09,0.83 1.18,0.17zm-15.81 -81.86c1.97,-25.03 2.17,-51.76 -19.13,-68.95 -20.48,-16.52 -47.86,-17.23 -72.82,-14.54 -24.1,2.6 -48.57,5.84 -65.03,25.46 -13.24,15.79 -19.83,38.64 -13.31,58.63 0.03,0.07 0.07,0.12 0.1,0.18 -0.85,0.38 -0.73,1.84 0.4,1.88 27.71,1.08 55.64,-0.13 83.38,-0.43 27.76,-0.32 55.61,-0.12 83.36,-1 0.2,-0.02 0.37,-0.07 0.52,-0.13 0.82,0.65 2.43,0.28 2.53,-1.1zm-62.43 -94.3c0.87,0.35 1.5,-1.13 0.63,-1.52 -3.57,-1.58 -7.57,-2.15 -11.44,-1.5 -0.72,0.12 -0.55,1.3 0.17,1.25 3.78,-0.21 7.13,0.32 10.64,1.77zm-2.27 3.17c0.84,0.12 1.02,-1.3 0.2,-1.47 -6.12,-1.35 -12.66,-1.1 -18.74,0.3 -0.75,0.18 -0.42,1.28 0.33,1.17 6.22,-1 11.99,-0.82 18.21,0zm-96.75 104.48c1.08,0.02 1.08,-1.72 0,-1.7 -4.17,0.08 -8.34,0.1 -12.51,0.25 -0.78,0.02 -0.78,1.19 0,1.2 4.17,0.15 8.34,0.16 12.51,0.25zm-0.6 -5c1.07,-0.22 0.62,-1.84 -0.45,-1.63 -4.4,0.82 -8.66,1.07 -13.12,0.88 -0.92,-0.03 -0.87,1.3 0,1.4 4.52,0.48 9.12,0.23 13.57,-0.65z"/>
    <path class="fil4" d="M528.69 664.46c0.6,3.64 -0.03,7.64 -0.97,11.17 -0.2,0.77 -1.33,0.43 -1.18,-0.33 0.72,-3.6 0.65,-7.02 0.78,-10.65 0.01,-0.75 1.23,-0.98 1.36,-0.18z"/>
    <path class="fil5" d="M524.29 508.3c5.05,7.34 10.32,22.98 1.8,29.85 -5.09,-16.86 -13.87,-31.97 -27.8,-41.74 10.16,-0.85 19.99,3.2 26,11.89z"/>
    <path class="fil4" d="M524.11 661.88c0.93,3.59 0.8,7.62 0.25,11.26 -0.1,0.67 -1.22,0.5 -1.18,-0.17 0.2,-3.7 -0.2,-7.2 -0.55,-10.89 -0.08,-0.87 1.28,-1 1.48,-0.2z"/>
    <path class="fil4" d="M489.42 522.32c21.29,17.19 21.09,43.92 19.13,68.95 -0.1,1.38 -1.72,1.75 -2.54,1.1 -0.15,0.07 -0.32,0.12 -0.52,0.13 -27.75,0.88 -55.59,0.69 -83.36,1 -27.73,0.3 -55.66,1.52 -83.38,0.43 -1.13,-0.05 -1.25,-1.5 -0.4,-1.88 -0.03,-0.07 -0.07,-0.12 -0.1,-0.18 -6.52,-19.99 0.07,-42.84 13.31,-58.63 16.46,-19.63 40.94,-22.86 65.03,-25.46 24.97,-2.69 52.35,-1.99 72.82,14.54zm16.28 67.4c1.73,-22.76 2.12,-47.42 -16.54,-63.75 -18.98,-16.61 -45.52,-17.86 -69.42,-15.52 -23.29,2.27 -48.07,4.69 -64.65,23.11 -14.32,15.94 -19.06,37.03 -14.96,57.8 0.03,0.2 0,0.37 -0.05,0.52 27.26,-1.58 54.76,-1.03 82.06,-1.35 27.76,-0.3 55.59,-1.12 83.36,-0.85 0.09,-0 0.14,0.03 0.2,0.05z"/>
    <path class="fil6" d="M489.16 525.98c18.66,16.32 18.27,40.99 16.54,63.75 -0.07,-0.02 -0.12,-0.05 -0.2,-0.05 -27.76,-0.27 -55.59,0.55 -83.36,0.85 -27.3,0.32 -54.79,-0.23 -82.06,1.35 0.05,-0.15 0.08,-0.32 0.05,-0.52 -4.1,-20.76 0.64,-41.85 14.96,-57.8 16.57,-18.42 41.35,-20.84 64.65,-23.11 23.89,-2.33 50.44,-1.08 69.42,15.53zm11.22 53.23c0.49,-0.17 0.88,-0.58 0.87,-1.28 -0.27,-17.22 -2.65,-36.74 -16.86,-48.41 -16.08,-13.21 -39.89,-13.87 -59.61,-12.81 -19.91,1.07 -41.3,3.37 -57.36,16.33 -13.26,10.69 -23.7,29.13 -22.19,46.57 0.03,0.52 0.57,0.85 1.02,0.83l0.03 0.2c-1.18,0.05 -1.18,1.82 0,1.84 51.31,1.33 102.92,-0.08 154.24,-0.72 1.65,-0.02 1.65,-2.55 0,-2.55 -0.05,-0 -0.1,-0 -0.13,-0z"/>
    <path class="fil8" d="M502.44 402.86c0,5.5 0.17,10.77 -3.95,15.04 -3.42,3.55 -7.7,4.47 -12.41,5.1 -8.94,1.2 -18.12,1.3 -27.13,1.74 -20.54,0.97 -41.12,1.45 -61.68,1.43 -9.75,0 -19.49,-0.12 -29.23,-0.35 -7.42,-0.17 -31.6,2.15 -36.42,-6.75 0.33,-12.07 0.27,-24.16 0.15,-36.23l0.32 0c0,0.42 0.27,0.84 0.84,0.87 0.73,0.03 1.5,0.08 2.28,0.13 -0.35,0.12 -0.7,0.2 -1.05,0.33 -0.03,0.02 -0.03,0.08 0,0.1 6.14,2.42 13.36,1.43 19.86,1.45 6.62,0 13.22,0.02 19.84,0.03 14.32,0 28.66,0.02 42.99,0.02 28.51,0.03 57.04,0.13 85.56,0.05 0.02,5.68 0.03,11.35 0.03,17.04zm-5.93 8.4c0.13,-0.85 -1.07,-1.23 -1.33,-0.37 -1.07,3.49 -3.55,6.14 -7.29,6.65 -0.55,0.08 -0.43,1.03 0.13,0.98 3.92,-0.33 7.82,-3.22 8.49,-7.27zm-1.32 -3.1c0.38,-0.78 -0.75,-1.45 -1.17,-0.68 -1.32,2.42 -3.37,3.87 -6.12,4.25 -0.47,0.07 -0.35,0.8 0.1,0.82 2.94,0.03 5.91,-1.74 7.19,-4.39zm-26.08 -8.05c0.52,-0.84 0.15,-2.2 -1.12,-2.19 -35.94,0.37 -72.35,-0.4 -108.19,2.27 -0.57,-0.12 -1.25,0.27 -1.3,0.98 -0.12,1.67 0.1,3.39 0.08,5.05 -0.02,1.68 -0.18,3.35 -0.35,5.02 -0.05,0.47 0.25,0.75 0.62,0.83 -0.42,0.57 -0.18,1.57 0.75,1.58 35.93,0.7 72.5,1.17 108.39,-0.77 1.38,-0.07 1.52,-1.88 0.4,-2.28 0.92,-3.39 1.19,-7.04 0.72,-10.51z"/>
    <path class="fil5" d="M502.29 349.12c0.03,11.26 0.08,22.51 0.12,33.77 -28.51,-0.13 -57.05,-0.07 -85.56,-0.08l-3.15 -0.02c0.92,-1.17 0.83,-2.83 1.08,-4.89 0.98,-8.49 1.47,-17.04 2.02,-25.56 1.12,-17.03 2,-34.13 2.04,-51.19 0,-0.15 -0.03,-0.27 -0.07,-0.4 5.12,0.22 10.22,0.42 15.34,0.62 8.67,0.35 17.33,0.7 26,1.03 9.1,0.37 19.24,-0.43 28.16,1.47 18.71,3.97 13.99,31.1 14.02,45.26zm-16.76 -17.53c0.37,0.85 1.85,0.25 1.53,-0.65 -1.35,-3.74 -4.29,-7.04 -7.84,-8.84 -0.72,-0.37 -1.32,0.65 -0.63,1.08 3.29,2.13 5.42,4.84 6.94,8.4zm-1.25 18.96c1.15,-3 1.23,-6.37 -0.27,-9.5 -2.37,-4.94 -7.72,-8 -13.02,-7.82 0.2,-0.5 -0.3,-1.22 -0.93,-1.07 -12.79,3.05 -27.06,19.21 -15.37,31.7 11.01,11.76 27.42,0.75 29.85,-12.34 0.06,-0.38 -0.05,-0.72 -0.25,-0.97zm-1.9 -16.54c0.45,0.7 1.72,0.27 1.42,-0.6 -0.65,-1.87 -2.07,-3.48 -3.6,-4.72 -1.7,-1.37 -3.29,-1.93 -5.37,-2.35 -0.45,-0.08 -0.62,0.55 -0.18,0.7 3.5,1.25 5.82,3.94 7.74,6.97zm-50.77 -15.83c2.7,-1.15 4.4,-4.12 3.22,-6.97 -1.12,-2.72 -4.27,-4.27 -7.07,-3.35 -0.22,0.07 -0.35,0.22 -0.4,0.37 -0.28,-0.2 -0.65,-0.28 -1,-0.05 -2.37,1.58 -3.03,4.82 -1.93,7.37 1.23,2.82 4.42,3.82 7.19,2.63zm-4.52 33c3.07,0 5.89,-2.25 5.72,-5.47 -0.13,-2.6 -2.13,-5.2 -4.77,-5.44 -0.13,-0.3 -0.43,-0.53 -0.9,-0.55 -3.13,-0.03 -5.65,2.92 -5.77,5.94 -0.12,3.22 2.63,5.5 5.72,5.52zm1.02 27.4c3.5,-1.02 5.78,-5.35 3.59,-8.57 -1.84,-2.63 -6.12,-3.55 -8.59,-1.28 -0.13,0.12 -0.2,0.25 -0.23,0.4 -1.18,1.02 -1.73,2.62 -1.62,4.17 0.25,3.4 3.37,6.3 6.85,5.29z"/>
    <path class="fil4" d="M500.28 263.79c0.88,-0.1 1.33,0.88 1.22,1.6 -0.65,3.74 -1.33,7.47 -2.02,11.21 -0.42,2.3 -0.38,7.44 -1.8,9.29 -1.17,1.55 -1.25,1.22 -3.02,1.4 -4.03,0.42 -12.56,-4.94 -16.08,-6.74 -6.72,-3.45 -12.99,-7.57 -18.96,-12.19 -1.33,-1.03 -0.02,-3.33 1.33,-2.3 0.1,0.08 0.2,0.15 0.3,0.23 5.9,4.52 12.06,8.57 18.66,11.97 3.2,1.63 9.19,5.87 12.61,5.52 2.68,1.48 3.82,0.72 3.4,-2.28 0.35,-1.87 0.7,-3.74 1.03,-5.58 0.5,-2.75 2.57,-7.45 0.38,-9.37 -1.15,-1.02 -9.94,0.53 -11.72,0.57 -7.84,0.15 -15.67,-0.17 -23.46,-1.02 -0.23,-0.02 -0.4,-0.13 -0.53,-0.28 -0.33,-0.43 -0.18,-1.2 0.53,-1.17 12.74,0.67 25.41,0.64 38.12,-0.85z"/>
    <path class="fil4" d="M501.24 577.92c0.02,0.7 -0.38,1.12 -0.87,1.28l-1 0c-0.52,-0.17 -0.92,-0.58 -0.93,-1.28 -0.37,-17.98 -2.83,-37.72 -18.96,-48.62 -15.99,-10.84 -37.69,-10.92 -56.21,-9.81 -19.53,1.19 -40.64,3.53 -55.94,16.98 -13.22,11.64 -18.11,26.5 -20.44,43.36 -0.05,0.42 -0.33,0.6 -0.65,0.62 -0.45,0.02 -0.98,-0.32 -1.02,-0.83 -1.5,-17.44 8.94,-35.88 22.19,-46.57 16.06,-12.96 37.45,-15.26 57.36,-16.33 19.73,-1.07 43.54,-0.4 59.61,12.81 14.21,11.67 16.59,31.18 16.86,48.41z"/>
    <path class="fil4" d="M500.51 579.2c1.65,0 1.65,2.54 0,2.55 -51.33,0.63 -102.93,2.05 -154.24,0.72 -1.18,-0.02 -1.18,-1.78 0,-1.84 18.38,-0.73 36.8,-1.1 55.24,-1.3 -0.08,-0.08 -0.13,-0.2 -0.17,-0.33 -2.32,-14.01 12.82,-19.44 24.26,-16.71 0.02,-0.02 0.02,-0.03 0.03,-0.03 9.3,-10.29 19.51,-19.79 29.32,-29.61 0.67,-0.67 1.87,-0.18 1.85,0.77 -0.05,6.07 -5.15,11.59 -8.4,16.41 -4,5.95 -8.12,11.91 -12.69,17.44 -0.23,0.28 -0.52,0.37 -0.82,0.33 2.35,2.82 3.44,6.6 2.28,11.37 -0.03,0.08 -0.07,0.12 -0.1,0.18 20.79,-0.02 41.57,0.08 62.3,0.05l1 0c0.04,0 0.09,0 0.14,0zm-56.21 -27.68c2.75,-3.94 7.9,-9.59 9.69,-14.84 -8.82,8.77 -17.49,17.76 -26.76,26.05 2.52,0.8 4.75,2.04 6.54,3.67 0,-0.17 0.03,-0.35 0.15,-0.52 3.4,-4.84 7.02,-9.5 10.39,-14.36zm-9.72 26.73c4.2,-17.81 -31.92,-20.06 -31.55,0.52 0,0.23 -0.08,0.42 -0.22,0.55 10.62,-0.1 21.24,-0.15 31.88,-0.15 -0.13,-0.27 -0.2,-0.57 -0.12,-0.92z"/>
    <path class="fil9" d="M499.38 579.2c-20.73,0.03 -41.5,-0.07 -62.3,-0.05 0.03,-0.07 0.07,-0.1 0.1,-0.18 1.15,-4.77 0.07,-8.55 -2.28,-11.37 0.3,0.03 0.58,-0.05 0.82,-0.33 4.57,-5.54 8.69,-11.49 12.69,-17.44 3.25,-4.82 8.35,-10.34 8.4,-16.41 0.02,-0.95 -1.19,-1.43 -1.85,-0.77 -9.8,9.82 -20.01,19.33 -29.32,29.61 -0.02,0 -0.02,0.02 -0.03,0.03 -11.44,-2.73 -26.58,2.7 -24.26,16.71 0.03,0.13 0.08,0.25 0.17,0.33 -18.44,0.2 -36.87,0.57 -55.24,1.3l-0.03 -0.2c0.32,-0.02 0.6,-0.2 0.65,-0.62 2.33,-16.86 7.22,-31.72 20.44,-43.35 15.31,-13.44 36.42,-15.79 55.94,-16.98 18.53,-1.12 40.22,-1.03 56.21,9.81 16.13,10.91 18.59,30.65 18.96,48.62 0.01,0.7 0.41,1.12 0.93,1.29zm-4.7 -11.12c1.27,0.02 1.28,-1.98 0,-1.97 -3.89,0.02 -7.79,0.1 -11.67,0.22 -0.98,0.03 -0.98,1.5 0,1.53 3.88,0.11 7.79,0.2 11.67,0.22zm-14.44 -28.77c0.75,-0.63 -0.2,-1.72 -1,-1.3 -2.82,1.47 -5.42,3.65 -8.02,5.47 -0.75,0.52 -0.07,1.73 0.72,1.23 2.75,-1.75 5.8,-3.33 8.3,-5.4zm-52.99 -12.24c0.1,-0.98 -1.58,-1.22 -1.75,-0.23 -0.43,2.5 -0.87,5.19 -0.83,7.72 0.02,0.73 1.08,0.88 1.28,0.17 0.73,-2.42 1.04,-5.14 1.3,-7.66zm-35.07 14.64c0.63,0.8 1.95,0.1 1.42,-0.83 -1.5,-2.59 -3.4,-4.99 -5.12,-7.44 -0.52,-0.73 -1.73,-0.05 -1.23,0.72 1.61,2.52 3.12,5.19 4.93,7.55zm-24.46 22.86c0.9,0.28 1.23,-1.07 0.38,-1.4 -3.29,-1.22 -6.67,-2.24 -9.99,-3.33 -0.73,-0.23 -1.03,0.88 -0.32,1.15 3.3,1.2 6.57,2.5 9.92,3.59z"/>
    <path class="fil8" d="M497.34 266.55c2.18,1.92 0.12,6.62 -0.38,9.37 -0.33,1.85 -0.68,3.72 -1.03,5.59 0.42,3 -0.72,3.77 -3.4,2.28 -3.42,0.35 -9.4,-3.89 -12.61,-5.52 -6.6,-3.4 -12.76,-7.45 -18.66,-11.97l0.37 -0.49c0.13,0.15 0.3,0.27 0.53,0.28 7.79,0.85 15.63,1.17 23.46,1.02 1.79,-0.03 10.57,-1.58 11.72,-0.56z"/>
    <path class="fil4" d="M495.17 410.9c0.27,-0.87 1.47,-0.48 1.33,0.37 -0.67,4.05 -4.57,6.94 -8.49,7.27 -0.57,0.05 -0.68,-0.9 -0.13,-0.98 3.74,-0.52 6.22,-3.17 7.29,-6.65z"/>
    <path class="fil4" d="M494.02 407.48c0.42,-0.77 1.55,-0.1 1.17,0.68 -1.28,2.65 -4.25,4.42 -7.19,4.38 -0.45,-0.02 -0.57,-0.75 -0.1,-0.82 2.75,-0.38 4.8,-1.83 6.12,-4.25z"/>
    <path class="fil4" d="M494.67 566.11c1.28,-0.02 1.27,1.98 0,1.97 -3.89,-0.02 -7.79,-0.1 -11.67,-0.22 -0.98,-0.03 -0.98,-1.5 0,-1.53 3.88,-0.11 7.79,-0.2 11.67,-0.22z"/>
    <path class="fil4" d="M491.09 232.95c0.22,0.65 -0.4,1.53 -1.12,1.47 -8.24,-0.9 -16.28,-0.33 -24.15,2.4 -6.47,2.25 -12.17,5.9 -18.91,7.42 -1.77,0.4 -2.37,-2.04 -0.73,-2.68 0.22,-0.08 0.42,-0.15 0.62,-0.23 0,-0.17 0.05,-0.32 0.17,-0.47 9.84,-12.66 20.06,-25.05 30.17,-37.5 0.42,-0.53 1.4,-0.37 1.68,0.22 4.77,9.54 8.84,19.29 12.27,29.38zm-3.23 -2.39c0.38,-0.82 -2.27,-6.24 -2.72,-7.4 -0.97,-2.48 -4.77,-15.41 -7.65,-15.74 -2.52,-0.28 -7.2,7.65 -9.01,9.84 -6.42,7.82 -12.82,15.66 -19.39,23.36 0.08,0.03 0.18,0.05 0.25,0.08 7.75,-2.39 14.71,-6.69 22.88,-8.15 4,-0.72 7.92,-0.6 11.94,-0.93 1.75,-0.15 2.8,0.78 3.7,-1.05z"/>
    <path class="fil8" d="M485.14 223.16c0.45,1.17 3.1,6.59 2.72,7.4 -0.9,1.84 -1.95,0.9 -3.7,1.05 -4.02,0.33 -7.94,0.22 -11.94,0.93 -8.17,1.47 -15.12,5.77 -22.88,8.15 -0.07,-0.03 -0.17,-0.05 -0.25,-0.08 6.57,-7.7 12.97,-15.54 19.39,-23.36 1.8,-2.18 6.49,-10.12 9.01,-9.84 2.88,0.33 6.69,13.26 7.65,15.74z"/>
    <path class="fil4" d="M487.07 330.95c0.32,0.9 -1.17,1.5 -1.53,0.65 -1.52,-3.57 -3.65,-6.27 -6.94,-8.4 -0.68,-0.43 -0.08,-1.45 0.63,-1.08 3.55,1.8 6.49,5.1 7.84,8.84z"/>
    <path class="fil4" d="M484.02 341.05c1.5,3.13 1.42,6.5 0.27,9.5 0.2,0.25 0.32,0.58 0.25,0.97 -2.43,13.09 -18.84,24.1 -29.85,12.34 -11.69,-12.49 2.59,-28.65 15.37,-31.7 0.64,-0.15 1.13,0.57 0.93,1.07 5.3,-0.18 10.65,2.88 13.02,7.82zm-7.99 14.82c4.74,-2.45 7.47,-7.85 5.79,-12.72 -6.54,0.07 -13.12,0.1 -19.66,-0.32 -0.1,0 -0.18,-0.03 -0.27,-0.07 -2,7.65 4.97,17.87 14.14,13.11zm4.59 -15.08c-0.02,-0.03 -0.03,-0.05 -0.05,-0.08 -2.95,-4.1 -7.94,-5.55 -12.67,-4.38 -2.68,1 -4.42,2.74 -5.4,4.79 6.04,-0.37 12.09,-0.37 18.12,-0.32zm-8.54 24.11c4.12,-1.8 6.82,-5.07 8.55,-8.94 -1.35,1.25 -2.94,2.27 -4.65,2.94 -2.28,0.87 -4.4,1.08 -6.3,0.8 -2.52,1.8 -4.7,3.79 -6.72,6.05 3.01,0.67 6.27,0.38 9.12,-0.85zm-4.54 -5.75c-2.22,-0.83 -4.07,-2.35 -5.47,-4.25 -2.07,1.72 -4.17,3.45 -6.37,4.99 -0.32,0.22 -0.65,0.02 -0.77,-0.27 -0.07,-0.2 -0.05,-0.42 0.12,-0.58 1.95,-1.9 4.08,-3.65 6.2,-5.39 -1.17,-1.95 -1.93,-4.18 -2.2,-6.44 -0.75,0.5 -1.48,1.02 -2.13,1.68 -1.13,1.17 -1.97,2.55 -2.48,4.09 -0.23,0.67 -1.27,0.38 -1.05,-0.28 0.82,-2.63 2.83,-5.73 5.57,-6.89 -0.07,-2 0.27,-3.97 1.05,-5.69 -5.8,5 -9.57,11.81 -5.25,19.59 0.05,0.13 0.12,0.25 0.2,0.38 1.55,2.65 3.97,4.4 6.7,5.3 1.53,-2.4 3.58,-4.55 5.88,-6.25z"/>
    <path class="fil4" d="M483.8 333.41c0.3,0.87 -0.97,1.3 -1.42,0.6 -1.92,-3.03 -4.24,-5.72 -7.74,-6.97 -0.43,-0.15 -0.27,-0.78 0.18,-0.7 2.08,0.42 3.67,0.98 5.37,2.35 1.53,1.23 2.95,2.85 3.6,4.72z"/>
    <path class="fil9" d="M481.82 343.15c1.68,4.87 -1.05,10.27 -5.79,12.72 -9.17,4.77 -16.14,-5.45 -14.14,-13.11 0.08,0.03 0.17,0.07 0.27,0.07 6.54,0.42 13.12,0.38 19.66,0.32zm-6.04 7.02c1.02,-2.5 -0.83,-5.47 -3.68,-4.84 -0.87,0.2 -1.67,0.75 -2.12,1.5 -1.25,1.02 -1.87,2.94 -1.15,4.38 0.6,1.23 2.5,1.5 3.72,1.33 1.44,-0.18 2.67,-1.03 3.24,-2.38z"/>
    <path class="fil6" d="M480.57 340.71c0.02,0.03 0.03,0.05 0.05,0.08 -6.04,-0.05 -12.09,-0.05 -18.12,0.32 0.98,-2.05 2.72,-3.79 5.4,-4.79 4.73,-1.17 9.72,0.28 12.67,4.39z"/>
    <path class="fil4" d="M479.23 538.01c0.8,-0.42 1.75,0.67 1,1.3 -2.5,2.07 -5.55,3.65 -8.31,5.4 -0.78,0.5 -1.47,-0.72 -0.72,-1.23 2.6,-1.82 5.21,-4 8.02,-5.47z"/>
    <path class="fil6" d="M480.63 355.97c-1.73,3.87 -4.43,7.14 -8.55,8.94 -2.85,1.23 -6.1,1.52 -9.12,0.85 2.02,-2.27 4.2,-4.25 6.72,-6.05 1.9,0.28 4.02,0.07 6.3,-0.8 1.72,-0.67 3.3,-1.69 4.65,-2.94z"/>
    <path class="fil5" d="M471.66 663.34c6.35,20.43 6.54,43.94 5.57,65.17 -35.25,0.23 -70.17,-2.32 -105.32,-4.03 0,-0.02 0,-0.03 0,-0.03 -3.09,-21.56 -5.65,-44.67 5.39,-64.53 10.47,-18.84 29.73,-25.58 50.46,-24.84 19.31,0.68 37.8,8.65 43.91,28.28zm-69.02 -14.04c0.63,-0.6 -0.23,-1.78 -0.97,-1.25 -4,2.92 -7.82,5.72 -12.2,8.04 -0.65,0.35 -0.08,1.23 0.55,0.97 4.46,-1.9 9.03,-4.45 12.62,-7.75zm-7.49 -1.62c0.5,-0.47 -0.02,-1.43 -0.7,-1.2 -4.87,1.78 -9.29,6.95 -12.07,11.17 -0.43,0.65 0.62,1.48 1.12,0.85 1.65,-2.1 3.37,-4.12 5.37,-5.92 1.97,-1.78 4.35,-3.09 6.29,-4.9z"/>
    <path class="fil4" d="M472.1 345.34c2.85,-0.63 4.7,2.34 3.68,4.84 -0.57,1.35 -1.8,2.2 -3.24,2.39 -1.22,0.17 -3.12,-0.1 -3.72,-1.33 -0.72,-1.45 -0.1,-3.37 1.15,-4.38 0.45,-0.75 1.25,-1.3 2.12,-1.5z"/>
    <path class="fil10" d="M471.19 731.54c-0.68,8.15 -1.37,16.31 -2.05,24.45 -0.77,9.3 -0.55,20.13 -7.39,27.38 -4.2,4.45 -9.92,6.84 -16.08,8.12 -0.03,-0.07 -0.07,-0.13 -0.12,-0.18 -2.25,-2.07 -4.69,-3.94 -6.94,-5.99 -1.8,-1.63 -3.55,-3.97 -5.84,-4.89 -0.25,-0.1 -0.48,0.2 -0.42,0.43 0.65,2.47 3.17,4.62 4.9,6.42 1.58,1.67 3.24,3.32 5.02,4.79 -6.44,0.93 -13.12,0.9 -18.93,0.88 -17.49,-0.07 -32.93,-5.17 -38.97,-23.05 -4.57,-13.59 -3.99,-28.4 -6.64,-42.39 30.85,3.67 62.37,4.2 93.43,4.02zm-21.01 33.28c1.52,-0.6 0.97,-2.97 -0.7,-2.5 -14.89,4.1 -31.38,9.02 -45.19,15.94 -0.72,0.37 -0.2,1.35 0.5,1.22 15.02,-2.85 31.22,-8.95 45.39,-14.66zm-7.84 -28.26c1.27,-1.18 -0.58,-2.92 -1.87,-1.87 -4.95,4.02 -9.99,7.6 -15.44,10.92 -1.07,0.63 -0.13,2.09 0.93,1.62 5.92,-2.62 11.6,-6.3 16.37,-10.67zm-17.03 25.8c1.28,1.13 3.15,-0.68 1.9,-1.92 -7.7,-7.59 -15.96,-14.69 -24.11,-21.76 -0.83,-0.73 -2.02,0.42 -1.22,1.22 7.64,7.62 15.31,15.33 23.43,22.46z"/>
    <path class="fil4" d="M467.99 397.93c1.27,-0.02 1.63,1.35 1.12,2.19 0.47,3.47 0.2,7.12 -0.72,10.5 1.12,0.4 0.98,2.22 -0.4,2.28 -35.88,1.93 -72.45,1.47 -108.39,0.77 -0.93,-0.02 -1.17,-1.02 -0.75,-1.58 -0.37,-0.08 -0.67,-0.37 -0.62,-0.83 0.17,-1.67 0.33,-3.33 0.35,-5.02 0.02,-1.67 -0.2,-3.39 -0.08,-5.05 0.05,-0.72 0.73,-1.1 1.3,-0.98 35.83,-2.66 72.25,-1.9 108.19,-2.26zm-1.4 12.56c0.28,-3.27 0.33,-6.45 0.25,-9.72 -3.44,0.08 -6.9,0.18 -10.36,0.27 -0.43,2.94 -0.95,5.85 -1.57,8.75 -0.03,0.17 -0.13,0.3 -0.25,0.38 3.98,0.08 7.95,0.18 11.92,0.32zm-12.27 -9.39c-4.65,0.12 -9.29,0.23 -13.94,0.35 -0.3,2.85 -0.67,5.72 -1.2,8.54 4.8,0.02 9.59,0.07 14.37,0.17 -0.17,-0.13 -0.27,-0.33 -0.25,-0.58 0.27,-2.84 0.6,-5.67 1.02,-8.47zm-15.92 0.42c-3.85,0.1 -7.7,0.22 -11.57,0.32 -0.25,2.37 -0.72,4.75 -1.15,7.09 -0.07,0.37 -0.37,0.53 -0.68,0.53 -0.38,0 -0.8,-0.27 -0.77,-0.73 0.12,-2.25 0.23,-4.57 0.52,-6.84 -4.03,0.1 -8.07,0.2 -12.11,0.28 -0.33,2.7 -0.6,5.25 -0.53,8.02 4.3,-0.07 8.6,-0.13 12.89,-0.15 4.23,-0.05 8.47,-0.05 12.71,-0.05 0.08,-2.82 0.36,-5.67 0.69,-8.47zm-27.76 8.7c-0.57,-2.5 -0.65,-5.45 -0.07,-8.02 -3.62,0.07 -7.24,0.15 -10.85,0.18 0.35,2.72 0.1,5.43 -0.65,8.07 3.85,-0.1 7.72,-0.17 11.57,-0.23zm-13.14 0.27c0.52,-2.7 0.57,-5.35 0.32,-8.09 -4.12,0.03 -8.24,0.05 -12.36,0.03 -4.45,-0.02 -8.92,-0.07 -13.37,-0.17 0.32,2.9 0.08,6.02 -0.12,8.92 0,0.03 0,0.05 -0.02,0.07 4.27,-0.15 8.54,-0.28 12.81,-0.42 -0.25,-2.35 -0.58,-5.1 -0.15,-7.39 0.08,-0.42 0.47,-0.63 0.85,-0.63 0.38,0 0.77,0.22 0.85,0.63 0.43,2.27 0.1,5 -0.15,7.35 3.77,-0.12 7.55,-0.22 11.34,-0.32zm-26.88 0.82c0,-0.03 -0.02,-0.07 -0.02,-0.12 -0.2,-2.92 -0.43,-6.05 -0.12,-8.97 -3.25,-0.08 -6.49,-0.17 -9.72,-0.3 0.58,3.09 0.03,6.67 -0.75,9.59 -0.02,0.07 -0.07,0.13 -0.1,0.18 3.57,-0.13 7.14,-0.25 10.7,-0.38z"/>
    <path class="fil9" d="M466.84 400.76c0.08,3.27 0.03,6.45 -0.25,9.72 -3.97,-0.13 -7.94,-0.23 -11.92,-0.32 0.12,-0.08 0.22,-0.22 0.25,-0.38 0.62,-2.9 1.13,-5.82 1.57,-8.75 3.45,-0.08 6.92,-0.18 10.36,-0.27z"/>
    <path class="fil6" d="M462.07 354.91c1.4,1.9 3.25,3.42 5.47,4.25 -2.3,1.7 -4.35,3.85 -5.89,6.25 -2.73,-0.9 -5.15,-2.65 -6.7,-5.3 -0.08,-0.13 -0.15,-0.25 -0.2,-0.38l0.18 -0.1c0.12,0.28 0.45,0.49 0.77,0.27 2.2,-1.53 4.3,-3.27 6.37,-4.99z"/>
    <path class="fil6" d="M459.06 347.22c0.27,2.25 1.03,4.49 2.2,6.44 -2.12,1.73 -4.25,3.48 -6.2,5.39 -0.17,0.17 -0.18,0.38 -0.12,0.58l-0.18 0.1c-4.32,-7.79 -0.55,-14.59 5.25,-19.59 -0.78,1.72 -1.12,3.68 -1.05,5.69 -2.74,1.15 -4.75,4.25 -5.57,6.89 -0.22,0.67 0.82,0.95 1.05,0.28 0.52,-1.53 1.35,-2.92 2.48,-4.09 0.65,-0.67 1.38,-1.18 2.14,-1.69z"/>
    <path class="fil9" d="M440.38 401.45c4.65,-0.12 9.29,-0.23 13.94,-0.35 -0.42,2.8 -0.75,5.64 -1.02,8.47 -0.02,0.25 0.08,0.45 0.25,0.58 -4.79,-0.1 -9.57,-0.15 -14.37,-0.17 0.53,-2.82 0.9,-5.68 1.2,-8.54z"/>
    <path class="fil4" d="M449.48 762.33c1.67,-0.47 2.22,1.9 0.7,2.5 -14.17,5.7 -30.37,11.81 -45.39,14.66 -0.7,0.13 -1.22,-0.85 -0.5,-1.22 13.81,-6.92 30.3,-11.84 45.19,-15.94z"/>
    <path class="fil4" d="M446.75 495.46c0.87,0.38 0.23,1.87 -0.63,1.52 -3.5,-1.45 -6.85,-1.98 -10.64,-1.77 -0.72,0.05 -0.88,-1.13 -0.17,-1.25 3.87,-0.65 7.87,-0.08 11.44,1.5z"/>
    <path class="fil4" d="M444.05 498.68c0.82,0.17 0.64,1.58 -0.2,1.47 -6.22,-0.82 -11.99,-1 -18.21,0 -0.75,0.12 -1.08,-0.98 -0.33,-1.17 6.09,-1.4 12.62,-1.65 18.74,-0.3z"/>
    <path class="fil8" d="M442.65 292.71c0.62,0.78 0.25,3.95 0.03,6 -13.16,-0.52 -26.29,-1.05 -39.44,-1.57 -5.72,-0.23 -11.46,-0.45 -17.18,-0.68 0,-1.48 0.3,-2.88 0.97,-4.2 0.17,-2.3 1.47,-2.9 3.89,-1.82 2.4,-0.5 5.5,0.13 7.94,0.18 5.8,0.15 11.62,0.27 17.44,0.38 5.29,0.1 10.57,0.22 15.86,0.32 2.18,0.05 8.97,-0.54 10.49,1.38z"/>
    <path class="fil4" d="M440.48 734.7c1.28,-1.05 3.13,0.68 1.87,1.87 -4.77,4.37 -10.45,8.05 -16.37,10.67 -1.07,0.47 -2,-0.98 -0.93,-1.62 5.45,-3.32 10.49,-6.9 15.44,-10.92z"/>
    <path class="fil9" d="M417.12 254.16c19.59,0.47 24.63,17.98 23.49,34.47 0,0.03 0.02,0.05 0.02,0.07 -2.9,-0.27 -6.64,0.25 -8.47,0.22 -3.37,-0.07 -6.72,-0.15 -10.09,-0.22 0,-0.02 0.02,-0.05 0.02,-0.07 0.37,-3.9 1.15,-7.42 2.28,-10.85 3.02,0.72 5.85,0.65 8.94,-0.9 1.38,-0.7 0.17,-2.78 -1.22,-2.08 -2.35,1.17 -4.65,1.22 -6.94,0.77 0.88,-2.35 1.93,-4.69 3.12,-7.1 0.63,-1.28 -1.08,-2.25 -1.9,-1.12 -1.63,2.27 -2.92,4.82 -3.89,7.5 -3.9,-1.28 -7.79,-3.37 -11.85,-3.12 -2.1,0.12 -4.03,0.68 -5.82,1.57 -0.3,-0.63 -0.6,-1.27 -0.92,-1.88 -0.72,-1.33 -2.82,-0.13 -2.05,1.2 0.35,0.62 0.67,1.22 0.97,1.84 -1.38,0.97 -2.63,2.15 -3.74,3.52 -0.6,0.75 0.38,1.8 1.1,1.08 1.15,-1.15 2.32,-2.05 3.47,-2.75 1.57,3.84 2.34,7.82 2.6,12.07 -1.93,-0.03 -3.87,-0.07 -5.8,-0.12 -2.42,-0.03 -5.54,-0.55 -8.4,-0.63 0,-0.08 0.02,-0.17 0,-0.25 -2.35,-15.88 7.32,-33.63 25.08,-33.2z"/>
    <path class="fil9" d="M426.82 401.83c3.87,-0.1 7.72,-0.22 11.57,-0.32 -0.33,2.8 -0.62,5.65 -0.7,8.47 -4.23,0 -8.47,0 -12.71,0.05l0 -0.58c0.32,0 0.62,-0.17 0.68,-0.53 0.44,-2.33 0.9,-4.72 1.15,-7.09z"/>
    <path class="fil4" d="M434.83 311.22c1.18,2.85 -0.52,5.82 -3.22,6.97 -2.77,1.19 -5.95,0.18 -7.19,-2.63 -1.1,-2.55 -0.43,-5.79 1.93,-7.37 0.35,-0.23 0.72,-0.15 1,0.05 0.05,-0.15 0.18,-0.3 0.4,-0.37 2.8,-0.92 5.95,0.63 7.07,3.35zm-4.3 5.4c1.9,-0.6 3.37,-2.48 2.74,-4.54 -0.65,-2.13 -3.02,-3.53 -5.17,-3.02 -0.12,0.03 -0.2,0.03 -0.28,0.02 0,0.22 -0.1,0.43 -0.3,0.58 -3.12,2.52 -1.44,8.35 3.02,6.95z"/>
    <path class="fil6" d="M403.03 578.77c-0.37,-20.58 35.75,-18.33 31.55,-0.52 -0.08,0.35 -0.02,0.65 0.12,0.92 -10.64,0 -21.26,0.05 -31.88,0.15 0.13,-0.13 0.22,-0.31 0.22,-0.55z"/>
    <path class="fil6" d="M433.26 312.08c0.63,2.05 -0.83,3.94 -2.74,4.54 -4.45,1.4 -6.14,-4.43 -3.02,-6.95 0.2,-0.15 0.3,-0.37 0.3,-0.58 0.08,0.02 0.17,0.02 0.28,-0.02 2.15,-0.52 4.52,0.89 5.17,3.02z"/>
    <path class="fil4" d="M432.81 345.72c0.17,3.22 -2.65,5.47 -5.72,5.47 -3.09,-0.02 -5.84,-2.3 -5.72,-5.52 0.12,-3.02 2.63,-5.97 5.77,-5.94 0.47,0.02 0.77,0.25 0.9,0.55 2.64,0.23 4.63,2.83 4.77,5.43zm-5.52 3.32c4.85,-0.15 3.95,-5.97 0.48,-7.55 -0.15,0.15 -0.35,0.28 -0.63,0.3 -2.04,0.22 -3.64,2.02 -3.64,4.08 0,2.07 1.87,3.22 3.79,3.17z"/>
    <path class="fil4" d="M431.69 370.02c2.2,3.22 -0.08,7.55 -3.59,8.57 -3.49,1.02 -6.6,-1.88 -6.85,-5.29 -0.12,-1.55 0.43,-3.15 1.62,-4.17 0.03,-0.15 0.1,-0.28 0.23,-0.4 2.47,-2.27 6.76,-1.35 8.59,1.28zm-3.13 6.2c2.05,-1.27 2.85,-4.17 0.82,-5.84 -0.67,-0.55 -1.42,-0.85 -2.18,-0.92 -0.08,0.28 -0.4,0.5 -0.75,0.33 -0.25,-0.13 -0.47,-0.2 -0.68,-0.25 -0.52,0.13 -1.04,0.35 -1.52,0.65 -0.08,0.03 -0.15,0.05 -0.22,0.08 -0.78,1.08 -0.93,3.03 -0.5,4.1 0.85,2.07 3.03,3.07 5.04,1.83z"/>
    <path class="fil6" d="M429.37 370.38c2.04,1.67 1.23,4.57 -0.82,5.84 -2,1.23 -4.19,0.23 -5.04,-1.84 -0.43,-1.07 -0.28,-3.02 0.5,-4.1 0.07,-0.03 0.13,-0.05 0.22,-0.08 0.48,-0.3 1,-0.52 1.52,-0.65 0.22,0.05 0.43,0.12 0.68,0.25 0.35,0.17 0.67,-0.05 0.75,-0.33 0.77,0.07 1.52,0.37 2.18,0.92z"/>
    <path class="fil4" d="M429.34 189.16c1.45,5.32 -1.82,12.49 -3.19,17.53 -2.39,8.81 -4.69,17.66 -7.24,26.4 0.22,0.42 0.23,0.95 -0.15,1.32 -0.18,0.2 -0.37,0.38 -0.55,0.57 -0.69,0.72 -1.62,0.3 -1.92,-0.43 -0.02,0.85 -1.47,1 -1.63,0.12 -3.17,-16.13 -4.2,-33.18 -11.76,-48.07 -0.47,-0.92 0.13,-1.8 1.1,-1.9 5.93,-0.69 23.19,-3.34 25.33,4.48zm-3.22 7.64c0.72,-3.44 1.72,-7.3 -1.78,-9.15 -2,-1.07 -6.3,-0.68 -8.49,-0.73 -3.29,-0.08 -6.62,-0.1 -9.92,0.15 6.69,14.37 8.62,31.05 10.3,46.67 2.3,-12.52 7.27,-24.46 9.89,-36.94z"/>
    <path class="fil6" d="M427.77 341.48c3.47,1.58 4.37,7.4 -0.48,7.55 -1.92,0.05 -3.79,-1.1 -3.79,-3.17 0,-2.07 1.6,-3.87 3.64,-4.09 0.28,-0.02 0.48,-0.15 0.63,-0.3z"/>
    <path class="fil4" d="M427.22 760.44c1.25,1.23 -0.62,3.05 -1.9,1.92 -8.12,-7.14 -15.79,-14.84 -23.43,-22.46 -0.8,-0.8 0.38,-1.95 1.22,-1.22 8.15,7.07 16.41,14.17 24.11,21.76z"/>
    <path class="fil4" d="M425.49 526.84c0.17,-0.98 1.85,-0.75 1.75,0.23 -0.27,2.52 -0.57,5.24 -1.3,7.65 -0.2,0.72 -1.27,0.57 -1.28,-0.17 -0.04,-2.53 0.4,-5.21 0.83,-7.72z"/>
    <path class="fil8" d="M424.34 187.64c3.5,1.85 2.5,5.72 1.78,9.15 -2.62,12.47 -7.59,24.41 -9.89,36.94 -1.68,-15.62 -3.62,-32.3 -10.3,-46.67 3.3,-0.25 6.64,-0.23 9.92,-0.15 2.18,0.05 6.49,-0.33 8.49,0.73z"/>
    <path class="fil9" d="M424.99 409.45l0 0.58c-4.29,0.02 -8.59,0.08 -12.89,0.15 -0.07,-2.77 0.2,-5.32 0.53,-8.02 4.03,-0.08 8.07,-0.18 12.11,-0.28 -0.28,2.27 -0.4,4.59 -0.52,6.84 -0.03,0.47 0.38,0.73 0.77,0.73z"/>
    <path class="fil9" d="M421.24 276.78c0.2,0.07 0.38,0.13 0.57,0.2 -1.1,3.82 -1.58,7.84 -1.47,11.64 0,0.02 0,0.02 0,0.03l-4.03 -0.08c-2.73,-0.07 -5.47,-0.12 -8.19,-0.17 0.15,-4.54 -0.78,-8.95 -2.45,-13.12 4.9,-1.96 9.96,-0.61 15.58,1.5z"/>
    <path class="fil7" d="M378.88 299.16c12.42,0.49 24.85,0.98 37.27,1.48 -0.05,0.15 -0.1,0.3 -0.12,0.5 -0.47,13.34 -0.77,26.68 -1.47,40 -0.33,6.4 -0.72,12.79 -1.15,19.19 -0.38,5.75 0.68,17.26 -1.9,22.44l-37.65 -0.03c-6.62,0 -13.22,0 -19.84,0 -4.62,0.02 -9.57,-0.47 -14.26,0.1 0,-0.47 -0.23,-0.93 -0.73,-1 -1.97,-0.28 -4.12,0.03 -6.1,0.12 -0.57,0.03 -0.84,0.45 -0.84,0.87l-0.32 0c-0.07,-6.25 -0.15,-12.49 -0.18,-18.73 -0.05,-8.69 -0.13,-17.37 -0.2,-26.06 -0.08,-8.66 -1.37,-18.31 0.25,-26.85 3.63,-19.21 33.33,-12.61 47.24,-12.04zm-31.27 64.73c14.31,10.29 32.77,-2.98 30.58,-19.41 -0.05,-0.35 -0.23,-0.6 -0.47,-0.78 0.57,-9.4 -7.1,-12.91 -15.62,-13.04 -0.43,0 -0.73,0.17 -0.93,0.42 -0.12,0.02 -0.22,0.05 -0.33,0.07 -0.17,-0.18 -0.43,-0.28 -0.72,-0.2 -7.14,2.1 -14.02,6.22 -17.22,13.21 -3.24,7.05 -1.72,15.12 4.72,19.74zm6.49 -36.3c0.57,-0.25 0.3,-1.25 -0.32,-1.18 -3.35,0.42 -6.55,2.7 -8.9,5 -0.43,0.43 0.22,1.05 0.67,0.67 2.63,-2.15 5.52,-3.12 8.55,-4.48zm-0.98 -5.02c0.8,-0.12 0.62,-1.5 -0.2,-1.42 -2.97,0.32 -6.04,1.3 -8.55,2.94 -0.42,0.28 -0.15,1.08 0.37,0.87 2.78,-1.15 5.4,-1.94 8.39,-2.38z"/>
    <path class="fil9" d="M410.56 402.2c-0.58,2.57 -0.5,5.52 0.07,8.02 -3.85,0.07 -7.72,0.13 -11.57,0.23 0.75,-2.63 1,-5.35 0.65,-8.07 3.62,-0.03 7.24,-0.11 10.86,-0.18z"/>
    <path class="fil4" d="M401.68 648.05c0.73,-0.53 1.6,0.65 0.97,1.25 -3.59,3.3 -8.15,5.85 -12.62,7.75 -0.64,0.27 -1.2,-0.62 -0.55,-0.97 4.39,-2.32 8.21,-5.12 12.21,-8.04z"/>
    <path class="fil9" d="M397.81 402.4c0.25,2.73 0.2,5.39 -0.32,8.09 -3.79,0.1 -7.57,0.2 -11.34,0.32 0.25,-2.35 0.58,-5.09 0.15,-7.35 -0.08,-0.42 -0.47,-0.64 -0.85,-0.64l0 -0.38c4.12,0.02 8.24,0 12.36,-0.03z"/>
    <path class="fil4" d="M394.46 646.49c0.68,-0.23 1.2,0.73 0.7,1.2 -1.93,1.82 -4.32,3.12 -6.29,4.9 -2,1.8 -3.72,3.82 -5.37,5.92 -0.5,0.63 -1.55,-0.2 -1.12,-0.85 2.78,-4.22 7.2,-9.39 12.07,-11.17z"/>
    <path class="fil4" d="M393.59 540.88c0.53,0.93 -0.78,1.63 -1.42,0.84 -1.82,-2.37 -3.32,-5.04 -4.94,-7.55 -0.5,-0.77 0.72,-1.45 1.23,-0.72 1.72,2.45 3.62,4.85 5.12,7.44z"/>
    <path class="fil4" d="M393.01 244.4c1.07,0.97 0.03,2.32 -1.1,2.25 -0.02,0.65 -0.69,1.27 -1.45,0.87 -15.66,-8.34 -31.02,-17.39 -46.31,-26.4 -2.54,-1.5 -5.02,-2.22 -4.37,-5.35 0.7,-3.5 9.62,-8.54 12.32,-10.79 0.57,-0.47 1.53,-0.65 2.1,0 11.99,14.16 25.07,26.98 38.81,39.42zm-5.05 -0.75c-6.72,-5.8 -13.16,-11.97 -19.34,-18.33 -3.59,-3.67 -7.09,-7.42 -10.49,-11.26 -0.9,-1.02 -2.78,-4.18 -4.03,-4.64 -2.68,-0.95 -3.53,0.68 -5.49,2.3 -0.57,0.47 -5.7,3.89 -5.6,4.64 0.27,1.84 5.62,4.02 6.92,4.79 4.32,2.52 8.62,5.05 12.94,7.57 8.39,4.94 16.82,9.8 25.09,14.92z"/>
    <path class="fil9" d="M385.45 402.43l0 0.38c-0.38,0 -0.77,0.22 -0.85,0.64 -0.43,2.28 -0.1,5.04 0.15,7.39 -4.27,0.13 -8.54,0.27 -12.81,0.42 0.02,-0.02 0.02,-0.03 0.02,-0.07 0.2,-2.9 0.43,-6.02 0.12,-8.92 4.45,0.1 8.92,0.15 13.37,0.17z"/>
    <path class="fil4" d="M378.2 344.48c2.18,16.42 -16.28,29.7 -30.58,19.41 -6.44,-4.62 -7.95,-12.69 -4.72,-19.74 3.2,-6.99 10.09,-11.11 17.23,-13.21 0.28,-0.08 0.55,0.02 0.72,0.2 0.12,-0.02 0.22,-0.05 0.33,-0.07 0.2,-0.25 0.5,-0.42 0.93,-0.42 8.52,0.13 16.19,3.64 15.62,13.04 0.24,0.18 0.42,0.44 0.47,0.79zm-3.55 1.5c0.38,-1.72 0.45,-3.24 0.27,-4.55 -0.1,0.03 -0.18,0.08 -0.28,0.08 -7.22,0.58 -14.44,1.22 -21.68,1.38 -0.53,0.02 -0.8,-0.57 -0.69,-1 0.07,-0.22 0.22,-0.38 0.49,-0.42 7.17,-0.97 14.39,-1.53 21.58,-2.1 -1.75,-4.17 -6.75,-5.79 -12.22,-6.27 -0.23,-0.02 -0.42,-0.1 -0.58,-0.2 -4.22,1.43 -8.02,4.67 -9.39,8.94l-0.02 0c-0.28,0.88 -0.47,1.8 -0.52,2.75 -0.35,5.7 4.14,10.45 9.52,11.64 6.77,1.5 12.16,-4.03 13.53,-10.25zm0.52 6.07c-2.47,4.12 -6.5,7.09 -11.52,7.17 -2.6,1.62 -4.77,3.42 -6.6,5.95 7.91,0.7 15.53,-5.19 18.13,-13.12zm-19.34 12.97c1.12,-2.3 2.85,-4.45 4.97,-6.04 -2.33,-0.45 -4.54,-1.47 -6.4,-2.92 0.02,0.18 -0.03,0.37 -0.17,0.52 -1.68,1.85 -3.85,3.37 -5.87,4.9 2.4,1.98 4.94,3.1 7.47,3.53zm-2.43 -9.51c0.08,-0.05 0.15,-0.07 0.22,-0.08 -1.88,-1.67 -3.33,-3.79 -4.14,-6.15 -1.68,1.95 -3.82,3.68 -5.97,5.14 0.53,2.08 1.75,4.17 3.88,6.2 1.9,-1.78 3.84,-3.72 6.01,-5.1zm-4.42 -7.5c0.03,-0.05 0.08,-0.07 0.13,-0.08 -0.23,-1.08 -0.33,-2.2 -0.27,-3.33 0.13,-1.93 0.65,-3.77 1.47,-5.42 -4.45,4.02 -7.77,9.05 -7.04,14.17 1.84,-1.83 3.72,-3.7 5.7,-5.34z"/>
    <path class="fil9" d="M374.91 341.43c0.18,1.32 0.12,2.83 -0.27,4.55 -1.37,6.22 -6.75,11.76 -13.53,10.26 -5.39,-1.18 -9.87,-5.94 -9.52,-11.64 0.05,-0.95 0.23,-1.87 0.52,-2.75l0.02 -0 0.13 0.05c-0.12,0.43 0.15,1.02 0.69,1 7.24,-0.17 14.46,-0.8 21.68,-1.38 0.1,-0 0.18,-0.05 0.28,-0.09zm-9.8 8.77c1.02,-1.07 1.13,-2.65 0.4,-3.9 -0.77,-1.32 -2.54,-2.08 -3.92,-1.25 -0.6,0.37 -1,0.97 -1.18,1.65 -0.57,0.53 -0.97,1.25 -0.97,2.04 -0.02,3.03 4.02,3.19 5.67,1.47z"/>
    <path class="fil4" d="M372.11 266.8c1.22,0.03 1.2,1.82 0,1.88 -0.45,0.02 -0.9,0.07 -1.37,0.1 -0.28,0.53 -0.85,0.92 -1.62,0.72 -0.5,-0.15 -1.02,-0.32 -1.53,-0.47 -8.77,0.9 -17.18,2.98 -25.33,6.64 -0.87,0.38 -1.88,0.12 -2.17,-0.87 -1.68,-6 -3.2,-12.04 -4.59,-18.13 -0.3,-1.33 1.02,-2.2 2.18,-1.68 10.47,4.72 21.19,8.52 32.22,11.65 0.13,0.03 0.22,0.1 0.32,0.15 0.63,0 1.25,-0.01 1.88,0zm-29.6 5.64c6.27,-2.57 12.67,-4.32 19.28,-5.12 -7.72,-2.42 -15.29,-5.29 -22.71,-8.52 1.07,4.57 2.22,9.1 3.43,13.64z"/>
    <path class="fil6" d="M363.64 359.23c5.02,-0.08 9.05,-3.05 11.52,-7.17 -2.6,7.94 -10.22,13.82 -18.12,13.12 1.83,-2.54 4,-4.34 6.6,-5.95z"/>
    <path class="fil8" d="M368.61 225.33c6.19,6.35 12.62,12.52 19.34,18.33 -8.27,-5.12 -16.71,-9.99 -25.1,-14.92 -4.32,-2.52 -8.62,-5.05 -12.94,-7.57 -1.3,-0.77 -6.65,-2.95 -6.92,-4.79 -0.1,-0.75 5.04,-4.17 5.6,-4.64 1.95,-1.62 2.8,-3.25 5.49,-2.3 1.25,0.45 3.13,3.62 4.03,4.64 3.4,3.83 6.91,7.59 10.49,11.26z"/>
    <path class="fil9" d="M370.59 411.19c0,0.05 0.02,0.08 0.02,0.12 -3.57,0.13 -7.14,0.25 -10.71,0.38 0.03,-0.05 0.08,-0.12 0.1,-0.18 0.78,-2.92 1.33,-6.5 0.75,-9.59 3.24,0.13 6.47,0.22 9.72,0.3 -0.31,2.92 -0.08,6.05 0.12,8.97z"/>
    <path class="fil6" d="M362.11 333.11c5.47,0.49 10.47,2.1 12.22,6.27 -7.19,0.57 -14.41,1.13 -21.58,2.1 -0.27,0.03 -0.42,0.2 -0.49,0.42l-0.13 -0.05c1.37,-4.27 5.17,-7.5 9.39,-8.94 0.17,0.1 0.35,0.18 0.58,0.2z"/>
    <path class="fil4" d="M368.09 563.18c0.85,0.33 0.52,1.68 -0.38,1.4 -3.35,-1.08 -6.62,-2.39 -9.92,-3.59 -0.72,-0.27 -0.42,-1.38 0.32,-1.15 3.32,1.1 6.7,2.12 9.99,3.33z"/>
    <path class="fil4" d="M365.51 346.3c0.73,1.25 0.62,2.83 -0.4,3.9 -1.65,1.72 -5.69,1.57 -5.67,-1.47 0,-0.78 0.4,-1.5 0.97,-2.04 0.18,-0.68 0.58,-1.28 1.19,-1.65 1.38,-0.83 3.15,-0.06 3.92,1.25z"/>
    <path class="fil6" d="M360.79 358.99c-2.12,1.58 -3.85,3.74 -4.97,6.04 -2.54,-0.43 -5.07,-1.55 -7.47,-3.53 2.02,-1.53 4.19,-3.05 5.87,-4.9 0.13,-0.15 0.18,-0.33 0.17,-0.52 1.87,1.45 4.07,2.47 6.4,2.92z"/>
    <path class="fil4" d="M353.79 326.41c0.62,-0.07 0.88,0.93 0.32,1.18 -3.03,1.37 -5.92,2.33 -8.55,4.49 -0.45,0.38 -1.1,-0.23 -0.67,-0.67 2.35,-2.3 5.55,-4.59 8.9,-5z"/>
    <path class="fil6" d="M353.6 355.44c-0.07,0.02 -0.13,0.03 -0.22,0.08 -2.17,1.38 -4.1,3.32 -6,5.1 -2.13,-2.04 -3.35,-4.12 -3.89,-6.2 2.15,-1.45 4.29,-3.19 5.97,-5.14 0.8,2.37 2.25,4.49 4.13,6.15z"/>
    <path class="fil4" d="M352.92 321.16c0.82,-0.08 1,1.3 0.2,1.42 -2.98,0.45 -5.6,1.23 -8.39,2.39 -0.52,0.22 -0.78,-0.58 -0.37,-0.87 2.52,-1.63 5.59,-2.62 8.56,-2.94z"/>
    <path class="fil6" d="M349.1 347.94c-0.05,0.02 -0.1,0.03 -0.13,0.08 -1.98,1.63 -3.87,3.5 -5.7,5.34 -0.73,-5.12 2.59,-10.16 7.04,-14.17 -0.82,1.65 -1.33,3.48 -1.47,5.42 -0.07,1.13 0.04,2.25 0.27,3.33z"/>
    <path class="fil4" d="M347.1 602.93c1.08,-0.02 1.08,1.72 0,1.7 -4.17,-0.08 -8.34,-0.1 -12.51,-0.25 -0.78,-0.02 -0.78,-1.18 0,-1.2 4.17,-0.15 8.34,-0.16 12.51,-0.25z"/>
    <path class="fil4" d="M346.05 597.99c1.07,-0.2 1.52,1.42 0.45,1.63 -4.45,0.88 -9.05,1.13 -13.57,0.65 -0.87,-0.1 -0.92,-1.43 0,-1.4 4.47,0.18 8.72,-0.07 13.12,-0.88z"/>
    <path class="fil8" d="M361.79 267.31c-6.6,0.8 -13.01,2.55 -19.28,5.12 -1.22,-4.54 -2.37,-9.07 -3.44,-13.64 7.42,3.24 14.99,6.1 22.71,8.52z"/>
    <path class="fil5" d="M324.61 507.27c5.27,-2.28 11.22,-2.9 17.19,-1.92 -12.46,9.97 -20.95,23.58 -26.15,39.57 -0.03,-0.02 -0.07,-0.05 -0.12,-0.07 -12,-5.04 -7.52,-21.63 -1.53,-29.33 2.5,-3.22 5.52,-5.69 8.89,-7.44 0.07,0.03 0.15,0.08 0.22,0.12 0.79,0.35 1.5,-0.3 1.5,-0.93z"/>
    <path class="fil3" d="M320.1 506.7c-5.25,3.12 -9.59,7.85 -12.22,13.97 -0.58,1.37 -1.08,2.95 -1.48,4.65 -10.39,-4.64 -18.79,-13.01 -25.86,-22.19 7.02,-2.48 13.79,-6.42 19.74,-10.74 0.22,-0.17 0.33,-0.35 0.4,-0.55 5.59,5.94 12.02,11.03 19.42,14.86zm-15.67 7.57c1,0.23 1.4,-1.23 0.42,-1.53 -3.47,-1.03 -6.15,-2.88 -8.25,-5.87 -0.42,-0.6 -1.33,-0.08 -0.98,0.57 1.77,3.37 5.1,6.01 8.82,6.84zm-4.32 1.63c0.63,0.32 1.15,-0.55 0.55,-0.93 -3.33,-2.22 -6.45,-4.34 -9.32,-7.19 -0.33,-0.32 -0.78,0.17 -0.5,0.5 2.5,2.99 5.75,5.9 9.27,7.62z"/>
    <path class="fil4" d="M304.85 512.73c0.98,0.3 0.58,1.77 -0.42,1.53 -3.72,-0.83 -7.05,-3.47 -8.82,-6.84 -0.35,-0.65 0.57,-1.17 0.98,-0.57 2.1,2.98 4.78,4.83 8.25,5.87z"/>
    <path class="fil6" d="M302.16 307.4c1.28,0.42 2.72,2.12 3.72,3.44 -5.05,3.35 -9.84,7.32 -13.62,12.07 -0.85,-2.08 -1.9,-4.07 -3.15,-5.9 2.63,-2.24 5.2,-4.55 7.79,-6.85 1.44,-1.27 2.95,-3.5 5.27,-2.75z"/>
    <path class="fil4" d="M300.66 514.97c0.6,0.38 0.08,1.25 -0.55,0.93 -3.52,-1.72 -6.77,-4.64 -9.27,-7.62 -0.28,-0.33 0.17,-0.82 0.5,-0.5 2.87,2.85 5.98,4.97 9.32,7.19z"/>
    <path class="fil5" d="M278.42 310.75c10.21,5.9 15.31,19.21 12.49,30.53 -4.29,17.23 -22.59,14.62 -35.94,11.07 0.28,-0.83 -0.13,-1.9 -1.28,-1.87 -9.14,0.28 -20.34,-6.44 -21.21,-16.02 -0.67,-7.42 0.47,-16.39 7.25,-20.61 10.37,-6.44 27.88,-9.34 38.68,-3.1zm-26.33 31.82c0.85,0.1 1.03,-1.32 0.2,-1.5 -4.4,-1.02 -7.9,-3.9 -9.05,-8.37 -0.22,-0.85 -1.47,-0.49 -1.3,0.35 1,4.9 5.1,8.99 10.16,9.52zm-8.42 0.48c0.65,0.18 1.12,-0.82 0.49,-1.12 -3.8,-1.73 -6.52,-4.82 -6.77,-9.12 -0.03,-0.67 -1.05,-0.69 -1.03,0 0.03,4.47 2.88,8.99 7.32,10.24z"/>
    <path class="fil6" d="M285.59 294.91c1.2,0.23 2.32,0.77 3.39,1.37 -3.03,4.05 -5.42,8.46 -7.07,13.27 -1.67,-1.18 -3.47,-2.17 -5.39,-2.95 1.48,-2.95 2.77,-6.02 4.38,-8.9 1.1,-1.96 2.29,-3.24 4.69,-2.79z"/>
    <path class="fil4" d="M273.01 446.24c0.33,0.49 -0.38,0.98 -0.78,0.6 -2.55,-2.43 -3.55,-6.5 -2.95,-9.9 0.08,-0.48 0.85,-0.35 0.84,0.12 -0.14,3.63 0.9,6.22 2.9,9.19z"/>
    <path class="fil4" d="M270.88 447.4c0.67,0.63 -0.33,1.6 -1.02,1 -2.8,-2.42 -3.94,-6.24 -3.2,-9.82 0.12,-0.5 0.97,-0.38 0.92,0.13 -0.33,3.37 0.87,6.34 3.3,8.69z"/>
    <path class="fil6" d="M265.08 304.4c-2.3,-0.08 -4.74,-0.02 -7.17,0.22 0.65,-4.77 0.03,-9.69 -1.17,-14.34 3.3,0.42 6.59,0.33 9.86,-0.27 -1.1,4.65 -1.89,9.64 -1.52,14.39z"/>
    <path class="fil4" d="M252.29 341.07c0.83,0.18 0.65,1.6 -0.2,1.5 -5.05,-0.53 -9.16,-4.62 -10.16,-9.52 -0.17,-0.84 1.08,-1.2 1.3,-0.35 1.15,4.47 4.65,7.35 9.05,8.37z"/>
    <path class="fil4" d="M244.15 341.93c0.63,0.3 0.17,1.3 -0.49,1.12 -4.44,-1.25 -7.29,-5.77 -7.32,-10.24 -0.02,-0.69 1,-0.67 1.03,0 0.25,4.3 2.97,7.39 6.77,9.12z"/>
    <path class="fil6" d="M240.28 295.48c1.75,3.97 3.47,7.94 5.34,11.84 -1.97,0.72 -3.84,1.57 -5.55,2.57 -1.35,-3.4 -4.47,-8.24 -4.07,-11.69 0.27,-2.25 1.33,-1.57 3.19,-2.22 0.4,-0.13 0.77,-0.3 1.1,-0.5z"/>
   </g>
   <g>
    <path class="fil11" d="M911.88 120.41c-9.95,-0.62 -20.02,-1.31 -29.99,-1.38 -1.79,-0.02 -1.96,2.55 -0.18,2.76 9.89,1.23 19.96,1.86 29.91,2.54 2.51,0.16 2.79,-3.76 0.26,-3.93zm-49.81 -5.92c13.91,0.94 27.77,1.37 41.66,2.86 2.62,0.27 2.87,-3.81 0.27,-4.09 -13.87,-1.51 -28.19,-2.5 -42.12,-1.47 -1.58,0.1 -1.32,2.61 0.19,2.7zm-162.84 229.24c-61.72,-13.1 -123.35,-27.69 -185.5,-38.67 0,-0.02 0.02,-0.05 0.02,-0.07 4.56,-12.69 4.85,-25.82 5.46,-39.3 0.78,-17.04 1.55,-34.11 2.31,-51.15 1.5,-33.46 2.99,-66.91 4.49,-100.35 33.38,-1.19 66.74,-4.1 100.1,-5.67 33.88,-1.58 67.77,-2.65 101.66,-3.22 68.91,-1.16 137.82,-0.17 206.67,2.85 0.98,0.03 1.65,-0.48 2,-1.14 0.22,0.03 0.41,0.08 0.61,0.12 0.18,0.05 0.36,0.08 0.55,0.09 0.59,0.12 1.19,0.18 1.79,0.2 -3.81,46.67 -9.46,93.19 -17.04,139.41 -3.94,23.89 -8.35,47.71 -13.28,71.44 -2.44,11.69 -5,23.35 -7.67,34.98 -1.14,4.9 -3.87,28.49 -11.35,30.96 -1,-0.22 -1.99,-0.43 -3,-0.63 -62.61,-13.29 -125.23,-26.56 -187.83,-39.83zm-164.48 -52.09c-1.54,-0.27 -2.06,2.29 -0.54,2.69 8.51,2.24 16.32,5.25 24.3,8.94 1.85,0.86 3.44,-2.26 1.61,-3.2 -7.89,-4.09 -16.64,-6.89 -25.37,-8.43zm16.32 12.6c-8.89,-3.57 -18.65,-5.85 -27.91,-8.36 -1.43,-0.39 -2.2,1.69 -0.76,2.21 9.01,3.25 18.31,6.98 27.64,9.13 1.94,0.46 2.95,-2.2 1.03,-2.98z"/>
    <path class="fil4" d="M911.88 120.41c2.53,0.16 2.26,4.09 -0.26,3.93 -9.95,-0.69 -20.02,-1.31 -29.91,-2.54 -1.77,-0.22 -1.6,-2.78 0.18,-2.76 9.97,0.07 20.04,0.76 29.99,1.38z"/>
    <path class="fil4" d="M933.6 201.89c-0.37,2.65 -0.73,5.32 -1.11,7.97 0.25,-0.99 0.5,-1.96 0.76,-2.93 0.02,-0.1 0.06,-0.15 0.08,-0.23 0.27,-1.57 0.52,-3.14 0.79,-4.71 -0.18,-0.01 -0.36,-0.06 -0.53,-0.1zm12.31 -90.25c-0.41,-0.71 -0.77,-1.44 -1.16,-2.15 -0.3,-0.45 -0.63,-0.91 -0.95,-1.37 -0.24,2.84 -0.47,5.7 -0.73,8.54 0.38,-1.24 0.78,-2.49 1.21,-3.71 0.25,-0.74 0.91,-1.16 1.63,-1.31zm-8.99 120.26c1.6,-5.53 2.48,-11.03 2.72,-16.6 -0.65,2.46 -1.31,4.93 -1.97,7.37 -0.18,3.28 -0.46,6.52 -0.87,9.74 -0.64,4.92 -1.54,9.77 -2.71,14.58 0.24,0.35 0.38,0.79 0.28,1.31 -0.95,5.35 -2.05,10.64 -3.3,15.91 0.05,0.19 0.11,0.39 0.1,0.61 -0.13,2.73 -0.32,5.46 -0.57,8.18 0.26,-1.44 0.54,-2.86 0.8,-4.28 2.09,-11.56 4.09,-23.13 6,-34.7 -0.39,-0.41 -0.61,-0.96 -0.56,-1.61 0.01,-0.16 0.04,-0.33 0.08,-0.51zm-31.43 123.14c-1.19,5.17 -2.4,10.34 -3.67,15.48 -0.32,1.28 -0.62,2.58 -0.94,3.87 0.4,-0.54 0.81,-1.1 1.24,-1.66 1.03,-5.31 2.15,-10.62 3.36,-15.91 0,-0.6 -0.01,-1.19 -0,-1.79zm41.05 -152.1c-4.07,26.92 -8.61,53.75 -13.62,80.51 -4.83,25.87 -10.1,51.64 -15.84,77.34 -2.29,10.25 -4.72,22.1 -10.89,30.77 -0.65,1.51 -1.28,3.01 -1.9,4.52 -1.09,2.6 -2.02,5.9 -4.14,7.88 -2.51,2.36 -4.85,1.65 -7.2,0.5 -0.52,0.5 -1.25,0.8 -2.13,0.61 -0.35,-0.07 -0.68,-0.15 -1.02,-0.22l0.92 -4.3c0.03,-0.2 0.08,-0.38 0.17,-0.56 -0.38,-0.08 -0.77,-0.17 -1.15,-0.23l0.84 -4.21c0.26,-0.33 0.53,-0.65 0.78,-0.98 -0.19,-0.11 -0.37,-0.24 -0.51,-0.42 -0.27,0.49 -0.75,0.77 -1.31,0.85l-2.1 -1.14c-0.04,-0.1 -0.11,-0.17 -0.13,-0.28 -0.06,-0.32 -0.08,-0.62 -0.11,-0.92 -0.88,-0.14 -1.74,-0.25 -2.62,-0.36l0.32 -3.87c0.37,0.02 0.71,0.06 1.08,0.1 0.01,-0.2 0.06,-0.41 0.16,-0.63l0.92 -4.35c1.01,0.2 2,0.41 3,0.63 7.48,-2.47 10.21,-26.05 11.35,-30.96 2.66,-11.62 5.23,-23.29 7.67,-34.98 4.93,-23.72 9.34,-47.55 13.28,-71.44 7.59,-46.21 13.24,-92.73 17.04,-139.41 -0.6,-0.02 -1.2,-0.08 -1.79,-0.2l0.43 -2.53c0.73,0.1 1.45,0.13 2.15,0.12 0.39,-0.34 0.92,-0.52 1.44,-0.54 0.18,-0.99 1.4,-1.71 2.23,-0.69 2.53,3.02 5,6.09 7.4,9.22 1.45,1.88 4.52,4.69 4.73,7.21 -0,0.07 -0.01,0.12 -0.01,0.18 0.39,0.14 0.71,0.4 0.9,0.78 0.5,0.57 0.78,1.34 0.61,2.13 -0.21,0.85 -0.43,1.69 -0.62,2.55 -1.63,25.78 -6.49,51.81 -10.33,77.28zm0.23 -59.39c-0.03,-0.03 -0.05,-0.07 -0.08,-0.11 -0.59,3.65 -1.24,7.29 -1.92,10.95 -0.13,0.71 -0.26,1.42 -0.39,2.13 0.29,-0.06 0.57,-0.08 0.87,-0.01 0.5,-4.33 1.02,-8.64 1.52,-12.97zm-31.81 178.43c0.07,-1.03 0.13,-2.06 0.2,-3.09 -1.24,4.1 -2.28,8.26 -3.1,12.45 0.5,-1.74 0.96,-3.48 1.49,-5.2 0.15,-0.54 0.56,-0.9 1.02,-1.1 0.15,-1.01 0.27,-2.02 0.38,-3.05z"/>
    <path class="fil4" d="M903.72 117.35c-13.89,-1.49 -27.75,-1.92 -41.66,-2.86 -1.52,-0.1 -1.77,-2.61 -0.19,-2.7 13.92,-1.03 28.24,-0.04 42.12,1.47 2.6,0.29 2.35,4.37 -0.27,4.09z"/>
    <path class="fil4" d="M558.5 303.28c-7.98,-3.7 -15.79,-6.7 -24.3,-8.94 -1.51,-0.4 -0.99,-2.96 0.54,-2.69 8.72,1.54 17.48,4.34 25.37,8.43 1.83,0.94 0.23,4.06 -1.61,3.2z"/>
    <path class="fil4" d="M523.15 295.88c9.26,2.51 19.02,4.79 27.91,8.36 1.92,0.78 0.91,3.44 -1.03,2.97 -9.33,-2.15 -18.63,-5.88 -27.64,-9.13 -1.44,-0.51 -0.66,-2.6 0.76,-2.2z"/>
    <path class="fil4" d="M626.12 108.53c-33.36,1.56 -66.72,4.48 -100.1,5.67l-0.41 -3.44c32.31,-3.77 65.08,-5 97.54,-6.55 34.41,-1.64 68.84,-2.75 103.29,-3.33 69.44,-1.19 138.91,-0.22 208.31,2.83 0.55,0.02 0.99,0.22 1.31,0.49 0.33,0.11 0.65,0.21 1.02,0.3 0.33,0.07 0.66,0.14 0.97,0.2l-0.43 2.53c-0.18,-0.01 -0.37,-0.04 -0.55,-0.09 -0.2,-0.05 -0.39,-0.09 -0.61,-0.12 -0.34,0.66 -1.01,1.17 -1.99,1.14 -68.85,-3.02 -137.77,-4 -206.67,-2.85 -33.89,0.58 -67.79,1.65 -101.66,3.23z"/>
    <path class="fil4" d="M545.74 315.86c0.73,0.32 1.45,0.65 2.18,0.98 4.57,0.88 9.15,1.84 13.7,2.83 -0.01,-0.07 -0.04,-0.14 -0.05,-0.22 -5.29,-1.17 -10.56,-2.38 -15.82,-3.59zm309.22 76.78c-0.03,-0.34 0.11,-0.68 0.36,-0.91 -3.53,-0.75 -7.05,-1.5 -10.58,-2.25 0.45,0.26 0.71,0.66 0.83,1.09 3.13,0.69 6.26,1.38 9.39,2.07zm-333.61 -81.5c-0.32,-0.3 -0.52,-0.72 -0.58,-1.17 -1.74,-0.41 -3.51,-0.82 -5.25,-1.25 0.69,0.75 1.35,1.53 2.02,2.29 0.08,0.04 0.16,0.08 0.24,0.12 1.19,0.01 2.37,0 3.56,0.02zm184.09 53.52c-60.1,-13.12 -121,-24.44 -180.51,-40.08 -0.69,0.29 -1.52,0.2 -2.17,-0.58 -0.81,-0.2 -1.59,-0.41 -2.4,-0.63 -1.2,-0.33 -1.03,-2.06 -0.09,-2.48 -3.16,-3.98 -6.23,-8.18 -9,-12.42 -0.46,-0.11 -0.87,-0.48 -0.95,-1.02 -0.11,-0.02 -0.23,-0.05 -0.35,-0.09 -1.02,-0.25 -1.16,-1.45 -0.72,-2.22 -0.19,-0.9 0.97,-1.54 1.78,-1.09l2.71 0.93c0,0.02 -0.02,0.05 -0.02,0.07 62.15,10.98 123.77,25.58 185.5,38.67 62.6,13.27 125.21,26.54 187.83,39.83l-0.92 4.35 -5.52 -1.16c0.18,0.11 0.32,0.24 0.43,0.38 0.67,0.18 1.37,0.34 2.04,0.5 0.54,0.14 0.92,0.41 1.17,0.74 0.22,0.01 0.43,0.04 0.65,0.06l-0.32 3.87c0.95,0.53 1.9,1.04 2.86,1.56l2.1 1.14c0.34,0.17 0.69,0.36 1.03,0.55l-0.84 4.21c-5.36,-1.1 -10.74,-2.07 -16.15,-3.01 5.71,1.27 11.43,2.52 17.13,3.8l-0.92 4.3c-45.95,-9.79 -91.86,-19.9 -137.76,-29.98 -15.08,-2.74 -30.07,-6.03 -44.94,-9.84 -0.55,-0.12 -1.11,-0.24 -1.65,-0.36zm-179.35 -42.93c0.45,0.08 0.89,0.16 1.34,0.24 -1.53,-0.38 -0.87,-2.5 0.53,-2.52 -1.74,-0.68 -3.48,-1.41 -5.21,-2.14 1.05,1.32 2.08,2.66 3.08,4 0.11,0.14 0.18,0.28 0.25,0.43zm135.79 22.55c6.03,1.35 12.06,2.69 18.08,4.04 -5.9,-2.01 -11.77,-4.06 -17.63,-6.18 -0.18,-0.06 -0.32,-0.16 -0.49,-0.27 -5.38,-0.97 -10.78,-1.92 -16.19,-2.9 4.99,1.41 9.96,2.82 14.93,4.23 0.69,0.2 1.1,0.59 1.29,1.07zm-78.37 -11.36c8.24,1.74 16.48,3.53 24.7,5.36 -7.21,-1.84 -14.43,-3.74 -21.62,-5.73 -0.31,0.36 -0.79,0.6 -1.46,0.54 -0.55,-0.05 -1.08,-0.12 -1.63,-0.17z"/>
    <path class="fil4" d="M517.2 210.96c1.44,-32.21 2.88,-64.4 4.32,-96.61 -0.04,0.02 -0.08,0.01 -0.13,0.01 -1.76,0.05 -1.93,-2.87 -0.22,-3.07 1.48,-0.19 2.96,-0.36 4.45,-0.53l0.41 3.44c-1.5,33.44 -2.99,66.9 -4.49,100.35 -0.76,17.05 -1.53,34.11 -2.31,51.15 -0.61,13.48 -0.91,26.61 -5.46,39.3l-2.71 -0.93c3.4,-14.75 3.38,-30.22 4.03,-45.26 0.69,-15.95 1.42,-31.91 2.12,-47.86z"/>
   </g>
   <path class="fil12" d="M598.81 161.88l36.69 2.39c2.35,0.15 3.36,2.09 2.99,5.82 -0.66,6.76 -1.51,10.12 -2.53,10.06 -1.2,0.25 -2.23,0.36 -3.07,0.3l-25.04 -1.63c-1.36,-0.09 -2.09,0.54 -2.23,1.9l-2.42 24.6c-0.13,1.36 0.47,2.08 1.83,2.17l21.74 1.42c2.2,0.14 3.18,1.41 2.95,3.77 -0.17,1.78 -0.35,4.49 -0.54,8.14 -0.57,2.69 -1.89,3.97 -3.96,3.84l-21.74 -1.42c-1.36,-0.09 -2.09,0.54 -2.23,1.9l-2.42 24.6c-0.13,1.28 0.29,2.15 1.26,2.63 3.64,0.08 6.35,0.17 8.12,0.29l1.02 0.07c2.66,0.17 5.34,0.44 8.07,0.77 0.94,-0.09 1.88,-0.12 2.81,-0.06 1.15,0.4 2.15,0.64 2.99,0.7l3.78 0.25c1.86,0.12 2.64,1.7 2.34,4.75l-0.32 3.29c-0.45,4.57 -1.26,6.83 -2.44,6.75l-1.54 0.16 -7.08 -0.46c-0.47,-0.03 -0.95,-0.24 -1.46,-0.62 -0.22,0.51 -0.76,0.71 -1.61,0.66l-5.05 -0.33 -0.94 -0.82 -1.59 0.66c-1,-0.24 -1.5,-0.43 -1.48,-0.6l-7.65 0.26c-0.8,-0.05 -1.63,-0.19 -2.5,-0.43 -2.09,0.04 -4.13,-0.01 -6.11,-0.14 -5.55,-0.36 -8.28,-1.04 -8.18,-2.06 -0.28,-0.67 -0.39,-1.36 -0.32,-2.07l7.72 -78.68 0.38 -1.24 0.76 0.05c0.76,0.05 1.1,1.86 0.99,5.43 -0.01,0.06 -0.13,0.41 -0.34,0.98l0.09 1.55 -1.34 3.49 -0.07 0.76c1.08,0.92 1.31,4.86 0.62,11.79 -0.49,1.41 -0.75,2.33 -0.79,2.76 0.23,1.21 0.31,2.15 0.24,2.83l-0.69 1.74c0.39,1.38 0.55,2.17 0.53,2.32 -0.05,0.52 -0.19,1.1 -0.41,1.76 -0.08,2.31 -0.18,4.26 -0.34,5.86l-0.27 2.79c0.61,1.06 0.79,5.41 0.5,13.07l-0.15 1.52c-0.06,0.58 -0.22,1.34 -0.46,2.26 0.25,0.74 0.29,2.11 0.1,4.1l-0.12 1.26c-0.64,1.42 -1.18,3.43 -1.61,6.04 -1.01,1.64 -1.53,2.71 -1.57,3.21l0.49 0.03c1.02,0.07 2.16,-2.93 3.42,-8.97l0.22 -2.27c0.17,-1.69 0.08,-2.57 -0.25,-2.59l0.54 -3.02 0.27 -2.79c-0.01,-4.95 0.06,-8.34 0.24,-10.21 -0.64,-0.35 -0.93,-0.95 -0.84,-1.84l0.2 -2.04c0.03,-0.28 0.77,-0.76 2.18,-1.38l0.03 -0.26c0.02,-0.19 -0.51,-0.75 -1.62,-1.63 -0.14,-0.31 -0.2,-0.64 -0.16,-1.03l0.42 -4.31c0.02,-0.17 0.36,-1 1.03,-2.48 0.06,-0.65 -0.29,-1.44 -1.05,-2.38l0.17 -1.77c0.07,-0.72 0.31,-1.38 0.69,-1.98l-0.19 -0.54 0.39 -1.5c0.08,-4.14 0.15,-6.6 0.22,-7.4 0.47,-1.26 0.7,-2 0.72,-2.26 -0.99,-0.07 -1.45,-0.68 -1.34,-1.87 0.62,-1.01 1.13,-2.85 1.56,-5.5 -0.26,-0.87 -0.46,-1.32 -0.63,-1.33l0.38 -1.26 0.02 -0.24c0.04,-0.43 -0.12,-1.47 -0.48,-3.1 0.06,-0.63 0.76,-1.52 2.04,-2.68 0.1,-1.06 -0.37,-2.18 -1.45,-3.41l0.12 -1.28c1.25,-0.99 2.09,-1.78 2.54,-2.38 -0.88,-1.45 -1.27,-2.59 -1.19,-3.39 0.39,-1.52 1.07,-2.24 1.99,-2.18 -0.31,-0.43 -0.45,-0.7 -0.44,-0.79l0.07 -0.76c0.04,-0.39 1.08,-0.56 3.12,-0.56 -0,-0.39 -0.8,-0.86 -2.4,-1.44l0.07 -0.76c0.96,-1.14 1.95,-1.66 2.94,-1.6zm-7.47 6.16l0.26 0.02c0.32,0.07 0.48,0.23 0.45,0.53l-0.03 0.26c-0.03,0.32 -0.22,0.49 -0.55,0.46l-0.26 -0.02c-0.35,-0.02 -0.48,-0.21 -0.45,-0.53l0.03 -0.26c0.08,-0.34 0.24,-0.49 0.55,-0.47zm8.81 8.75c-0.02,0.15 -0.13,0.41 -0.31,0.74l0.47 0.29c0.35,0.02 0.54,-0.14 0.57,-0.49l0.05 -0.5 -0.78 -0.05zm-9.87 -0.64c1.08,1.2 1.56,2.26 1.47,3.15l-0.05 0.52c-0.02,0.24 -0.29,0.48 -0.83,0.71l-0.5 -0.03c-0.71,-0.05 -1.04,-1.09 -0.97,-3.14 0.21,-0.84 0.51,-1.23 0.88,-1.21zm9.92 8.06c0.09,0.68 0.57,1.04 1.41,1.1l0.31 -0.48 0.03 -0.26c0.03,-0.26 -0.29,-0.61 -0.91,-1.09 -0.26,-0.02 -0.54,0.23 -0.83,0.73zm22.72 71.97l-0.31 0.48 -0.1 1.02 0.5 0.03 0.38 -1.24 -0.47 -0.29zm-3.41 6.16l-0.1 1.02 0.5 0.03c0.35,0.02 0.54,-0.14 0.57,-0.49l0.12 -1.26 -0.26 -0.02c-0.26,-0.02 -0.54,0.21 -0.83,0.71zm-5.82 2.17l-0.03 0.26c0.02,0.24 0.96,1.09 2.82,2.47l0.07 -0.76c-0.39,-0.03 -1.08,-0.75 -2.09,-2.19 -0.36,0.15 -0.61,0.22 -0.78,0.21zm-4.13 0.49c-0.03,0.35 -0.2,0.51 -0.55,0.49 0.14,0.34 0.2,0.6 0.19,0.78l0.24 0.02c0.35,0.02 0.53,-0.14 0.57,-0.49l0.02 -0.24c0.03,-0.35 -0.12,-0.53 -0.47,-0.55zm40.82 -100.01c5.7,0.55 9.58,0.89 11.61,1.02 0.41,0.03 1.08,0.33 1.95,0.89 2.82,0.01 5.03,0.07 6.59,0.17l1.27 0.08c0.54,0.04 0.96,0.15 1.22,0.34l1.3 -0.18c4.95,0.5 8.24,0.8 9.84,0.9 1.81,0.12 3.91,1.96 6.32,5.54l-0.05 0.5 -0.46 2.26c0.75,-0.8 1.22,-1.19 1.38,-1.18l0.26 0.02c0.34,0.07 0.5,0.25 0.47,0.53l-0.3 3.05c-0.1,0.97 -0.24,1.55 -0.43,1.76 -0.24,4.67 -0.31,8.74 -0.18,12.24 -0.57,4.06 -0.97,7.26 -1.21,9.64l-0.87 8.88c-1.15,7.25 -2.17,10.84 -3.1,10.78 -4.04,3.14 -6.12,5.31 -6.24,6.48 -0.17,1.69 0.09,6.13 0.73,13.34 -0.1,0.97 0.33,7.04 1.27,18.22 -0.02,0.24 0.19,4 0.68,11.27 -0.13,1.37 -1.21,1.97 -3.24,1.84l-10.12 -0.66c-2.18,-0.14 -3.23,-1.58 -3.14,-4.3 -0.66,-3.62 -1.12,-8.25 -1.44,-13.87 0.21,-0.34 0.32,-0.59 0.33,-0.74 -0.41,-0.03 -0.66,-1.07 -0.72,-3.12 0.02,-0.17 0.11,-0.25 0.28,-0.24 0.08,-0.76 -0.2,-3.94 -0.85,-9.49l-0.78 -12.82c0.03,-0.26 -0.35,-0.63 -1.15,-1.1 -3.88,-0.25 -5.91,0.47 -6.08,2.15 0.06,2.9 0.07,4.6 0.02,5.1 -0.02,0.17 -0.11,0.25 -0.28,0.24l0.13 1.3 -0.1 1.02c-0.07,0.67 -0.18,0.99 -0.36,0.98l0.09 1.79 -0.67 6.86c-0.1,1.06 -0.74,2.2 -1.88,3.45 0.91,1.13 1.34,2.01 1.28,2.63l-0.1 1.02c-0.06,0.63 -0.52,1.8 -1.36,3.49l0.63 1.33 -0.05 0.5c-0.05,0.54 -0.18,0.97 -0.39,1.26 0.19,1.58 0.19,3.37 -0,5.36 -0.25,2.53 -0.89,3.78 -1.91,3.71l-0.76 -0.05 0.21 0.52 -0.1 1.02c-0.03,0.33 -0.31,0.48 -0.81,0.45l-1.74 -0.35c-0.59,0.29 -1.11,0.43 -1.58,0.4 -0.58,-0.04 -1.55,-0.6 -2.87,-1.71 -1.16,0.95 -2.05,1.39 -2.7,1.35l-2.01 -0.13c-2.2,-0.14 -3.19,-1.32 -2.98,-3.51l3.94 -40.11c0.11,-1.1 0.07,-2.28 -0.15,-3.58 0.28,-2.88 1.21,-9.62 2.75,-20.24l3.46 -35.28c0.18,-1.82 1.88,-2.82 5.14,-3zm25.49 10.1l-0.05 0.5c-0.01,0.35 0.14,0.53 0.44,0.55l1.02 0.07c0.93,0.06 2.2,-0.03 3.85,-0.27l1.48 0.36 0.31 -0.48 0.05 -0.52 -1.3 0.18 -0.5 -0.03c-1.83,-0.8 -2.99,-1.22 -3.44,-1.25l-0.78 -0.05c-0.24,-0.02 -0.62,0.31 -1.09,0.95zm7.94 -0.51l-0.03 0.26 0.76 0.05 0.03 -0.26 -0.76 -0.05zm1.85 1.91l-0.07 0.76 0.75 0.05c0.02,-0.24 -0.21,-0.51 -0.68,-0.81zm2.56 2.21l0.94 0.82 0.52 0.03 0.22 -2.27c-0.26,-0.02 -0.8,0.45 -1.68,1.41zm-28.05 5.82l-2.34 23.86c-0.2,2.04 0.46,3.1 1.97,3.2 2.2,-0.71 3.43,-1.06 3.67,-1.05l6.32 0.41c1.19,0.08 1.83,-0.47 1.94,-1.66l2.37 -24.1c0.12,-1.19 -0.41,-1.81 -1.6,-1.89l-4.79 -0.31c-1.19,-0.08 -2.76,-0.44 -4.74,-1.07 -1.68,-0.11 -2.62,0.77 -2.8,2.61zm43.72 -16.05c5.7,0.55 9.58,0.89 11.61,1.02 0.41,0.03 1.08,0.33 1.96,0.89 2.82,0.01 5.03,0.07 6.59,0.17l1.27 0.08c0.54,0.04 0.96,0.15 1.22,0.34l1.3 -0.18c4.95,0.5 8.24,0.8 9.84,0.9 1.81,0.12 3.91,1.95 6.32,5.53l-0.05 0.5 -0.46 2.26c0.75,-0.8 1.22,-1.19 1.38,-1.18l0.26 0.02c0.34,0.07 0.5,0.25 0.47,0.53l-0.3 3.05c-0.1,0.97 -0.24,1.55 -0.43,1.76 -0.24,4.67 -0.32,8.74 -0.18,12.24 -0.57,4.06 -0.97,7.26 -1.21,9.64l-0.87 8.88c-1.15,7.25 -2.17,10.84 -3.1,10.78 -4.04,3.14 -6.12,5.31 -6.24,6.48 -0.17,1.69 0.09,6.13 0.73,13.34 -0.1,0.97 0.33,7.04 1.27,18.22 -0.02,0.24 0.19,4 0.68,11.27 -0.13,1.37 -1.21,1.97 -3.24,1.84l-10.13 -0.66c-2.18,-0.14 -3.23,-1.58 -3.14,-4.3 -0.66,-3.62 -1.12,-8.25 -1.44,-13.87 0.21,-0.34 0.32,-0.59 0.33,-0.74 -0.41,-0.03 -0.66,-1.07 -0.72,-3.12 0.02,-0.17 0.11,-0.25 0.28,-0.24 0.08,-0.76 -0.2,-3.94 -0.85,-9.49l-0.78 -12.82c0.03,-0.26 -0.35,-0.63 -1.15,-1.1 -3.89,-0.25 -5.91,0.47 -6.08,2.15 0.06,2.9 0.07,4.6 0.02,5.1 -0.02,0.17 -0.11,0.25 -0.29,0.24l0.13 1.3 -0.1 1.02c-0.07,0.67 -0.18,0.99 -0.36,0.98l0.09 1.79 -0.67 6.86c-0.1,1.06 -0.74,2.2 -1.88,3.45 0.91,1.13 1.34,2.01 1.28,2.63l-0.1 1.02c-0.06,0.63 -0.52,1.8 -1.36,3.49l0.63 1.33 -0.05 0.5c-0.05,0.54 -0.18,0.97 -0.39,1.26 0.19,1.58 0.19,3.37 -0,5.36 -0.25,2.53 -0.89,3.78 -1.91,3.71l-0.76 -0.05 0.21 0.52 -0.1 1.02c-0.03,0.33 -0.31,0.48 -0.81,0.45l-1.74 -0.35c-0.59,0.29 -1.11,0.43 -1.58,0.4 -0.58,-0.04 -1.55,-0.6 -2.87,-1.71 -1.16,0.95 -2.05,1.39 -2.7,1.35l-2.01 -0.13c-2.2,-0.14 -3.19,-1.32 -2.98,-3.51l3.94 -40.11c0.11,-1.1 0.07,-2.28 -0.15,-3.58 0.28,-2.88 1.21,-9.62 2.75,-20.24l3.46 -35.28c0.18,-1.82 1.88,-2.82 5.14,-3zm25.49 10.1l-0.05 0.5c-0.01,0.35 0.15,0.53 0.45,0.55l1.01 0.07c0.93,0.06 2.2,-0.03 3.85,-0.27l1.48 0.36 0.31 -0.48 0.05 -0.52 -1.3 0.18 -0.5 -0.03c-1.83,-0.8 -2.99,-1.22 -3.44,-1.25l-0.78 -0.05c-0.24,-0.02 -0.62,0.31 -1.09,0.95zm7.94 -0.51l-0.03 0.26 0.76 0.05 0.03 -0.26 -0.76 -0.05zm1.85 1.91l-0.07 0.76 0.75 0.05c0.02,-0.24 -0.21,-0.51 -0.68,-0.8zm2.56 2.21l0.94 0.82 0.52 0.03 0.22 -2.27c-0.26,-0.02 -0.8,0.45 -1.68,1.41zm-28.05 5.82l-2.34 23.86c-0.2,2.04 0.45,3.1 1.97,3.2 2.2,-0.71 3.43,-1.06 3.66,-1.05l6.32 0.41c1.19,0.08 1.83,-0.47 1.94,-1.66l2.37 -24.1c0.12,-1.19 -0.41,-1.81 -1.59,-1.89l-4.79 -0.31c-1.19,-0.08 -2.76,-0.44 -4.74,-1.07 -1.68,-0.11 -2.62,0.77 -2.8,2.61zm49.53 -15.67l11.14 0.73c3.8,0.25 9.19,0.69 16.16,1.32 0.97,0.06 3.29,2.35 6.95,6.84 0.9,1.26 1.3,2.46 1.19,3.65l-8.07 82.23 -0.41 1.5c0.14,0.32 0.19,0.73 0.13,1.3l-0.08 0.76c-0.18,1.86 -2.56,4.43 -7.12,7.71 -0.09,0.93 -1.51,1.43 -4.23,1.51l-1.77 -0.12c-0.5,-0.03 -0.75,-0.14 -0.73,-0.31l-1.28 0.18 -16.45 -1.07c-7.25,-0.47 -10.82,-1.29 -10.7,-2.49 -2.62,-2.31 -4.51,-4.72 -5.65,-7.26 0.16,-1.62 0.4,-3.22 0.73,-4.81 1.08,-12.79 2.07,-23.71 2.96,-32.76l0.37 -3.81 0.41 -1.5c-0.14,-0.31 -0.19,-0.73 -0.13,-1.29l0.72 -7.34c0.23,-1.01 0.52,-1.51 0.91,-1.49l1.51 0.1 0.05 -0.5c-1.35,-1.7 -2.01,-2.77 -1.97,-3.2 0.02,-0.17 0.49,-0.73 1.45,-1.69 -0.69,-0.05 -0.97,-0.56 -0.87,-1.58 0.02,-0.17 0.11,-0.25 0.26,-0.24l-0.19 -0.51c0.06,-0.56 0.35,-1.13 0.93,-1.73 -0.65,-0.26 -0.92,-1.04 -0.79,-2.36 0.23,-1.01 0.52,-1.49 0.9,-1.47l0.76 0.05 0.71 0.55 0.07 -0.76c-0.63,-0.04 -1.3,-0.93 -2.02,-2.68l0.56 -3.04 1.57 -15.98c0.19,-1.91 3.41,-4.66 9.72,-8.3 0.94,-0.11 1.71,-0.15 2.29,-0.11zm3.25 18.87c-0.02,0.24 -0.04,1.26 -0.06,3.05 -0.04,0.39 -0.16,0.73 -0.34,1 0.04,1.16 0.03,2.09 -0.04,2.81l-0.6 6.08c-0.13,1.32 -0.53,2.06 -1.22,2.23l-0.49 -0.29c-0.02,0.17 -0.11,0.25 -0.28,0.24 0.29,0.56 0.41,1.09 0.37,1.55l-1.66 1.18 0.49 0.27 0.26 0.02c0.09,0.01 0.34,-0.13 0.81,-0.45l0.26 0.02c0.28,0.02 0.49,0.53 0.61,1.57 -0.33,0.68 -0.62,0.98 -0.86,0.97 -0.33,-0.2 -0.58,-0.28 -0.75,-0.29l-0.29 0.48c0.49,0.58 0.84,1.36 1.03,2.36 0.34,0.07 0.5,0.25 0.47,0.55 -0.01,0.13 -0.16,0.8 -0.46,2.02 0.28,0.69 0.38,1.2 0.35,1.55 -0.18,1.86 -0.68,2.77 -1.53,2.71l-0.03 0.26c0.76,0.94 1.1,1.64 1.05,2.1 -0.04,0.39 -0.16,0.71 -0.34,1l0.11 1.29c-0.15,1.51 -0.33,2.53 -0.53,3.02 -0.27,4.3 -0.52,7.68 -0.76,10.17l-0.72 7.36c-0.58,5.87 -1.12,9.84 -1.67,11.9 -0.07,2.04 0.26,3.76 1.01,5.16 2.15,-0.19 3.42,-0.28 3.85,-0.25 0.82,0.25 1.23,0.54 1.2,0.84 -0.2,0.29 -0.32,0.61 -0.36,1 0.74,-1.15 1.56,-1.69 2.44,-1.63 1.94,0.13 3.18,0.54 3.7,1.27l0.26 0.02c0.03,-0.3 0.77,-0.93 2.23,-1.9 0.22,-1.19 0.46,-1.76 0.67,-1.75l-0.01 -2.55 0.37 -3.81c0.26,-2.62 0.68,-4.29 1.28,-5.04 -0.5,-0.19 -0.71,-0.72 -0.63,-1.57l0.3 -3.03c0.13,-0.86 0.34,-1.26 0.64,-1.24 -0.29,-0.56 -0.41,-1.09 -0.37,-1.55l0.6 -6.11c0.23,-1.01 0.54,-1.49 0.93,-1.47 0.48,0.21 0.69,0.72 0.61,1.57l0.24 0.02 0.38 -1.24 0.22 -2.29c0.08,-0.84 0.43,-1.67 1.01,-2.48 -0.48,-0.21 -0.69,-0.72 -0.61,-1.57 0.89,-1.81 2,-2.68 3.32,-2.59 0.95,-1.01 1.54,-2.84 1.8,-5.51l0.26 0.02 -0.46 -3.1c-0.53,0.14 -0.82,0.64 -0.91,1.49 0.21,1.13 0.31,1.89 0.27,2.31l-0.13 1.28c-0.38,1.68 -0.79,2.5 -1.26,2.47l-2.01 -0.13c-0.08,0.84 -0.47,1.26 -1.14,1.21 0.04,1.18 0.06,1.88 0.04,2.03 -0.22,1.36 -0.52,2.02 -0.96,1.99l0.13 1.29 -0.18 1.78c-0.03,0.33 -0.22,0.49 -0.55,0.47 -0.5,-0.21 -0.71,-0.72 -0.63,-1.57 0.12,-1.19 0.35,-1.76 0.69,-1.74 -0.29,-0.59 -0.41,-1.1 -0.37,-1.55l0.15 -1.54c0.04,-0.45 0.27,-0.96 0.67,-1.48 -0.29,-0.56 -0.42,-1.01 -0.39,-1.31l1.98 -4.47 0.05 -0.5c-0.78,-0.73 -1.16,-1.19 -1.15,-1.36l0.1 -1.02c0.08,-0.32 0.27,-0.48 0.57,-0.46l0.5 0.03c0.5,0.03 0.72,0.4 0.66,1.07l0.26 0.02c0.37,0.02 0.67,-0.39 0.88,-1.23 -1.23,-0.08 -1.82,-0.97 -1.78,-2.67 -0.5,-0.03 -0.74,-0.22 -0.71,-0.55l0.03 -0.26c0.08,-0.34 0.26,-0.48 0.57,-0.46l0.24 0.02c0.34,0.04 0.5,0.23 0.47,0.53l1.04 -0.19c1.64,0.11 2.54,1.36 2.67,3.75 0.39,0.02 0.83,-1.12 1.36,-3.49 1.11,-0.47 2.35,-1.85 3.7,-4.09 0.48,0.03 0.88,-0.79 1.26,-2.47 -0.24,-0.01 -0.47,-0.29 -0.68,-0.8l0.07 -0.76 0.31 -0.5c-0.17,-0.01 -0.25,-0.1 -0.23,-0.28l-1.28 0.18c-1.61,-1.09 -2.37,-1.99 -2.3,-2.7l-0.5 -0.03c-0.79,0.75 -1.54,1.29 -2.2,1.64 -0.1,1.02 -0.8,2.24 -2.14,3.7 -1.34,-0.09 -1.94,-1.06 -1.76,-2.93 0.4,-0.54 0.62,-1.03 0.67,-1.5 -0.35,-0.02 -0.5,-0.19 -0.47,-0.53l0.95 -9.64c0.14,-1.36 -0.73,-2.1 -2.58,-2.22 -1.36,-0.26 -3.47,-0.49 -6.3,-0.67l-4.3 -0.28c-0.88,0.38 -1.37,1.11 -1.48,2.21zm-9 0.94l-0.31 0.48 -0.12 1.28c0.51,-0.14 0.82,-0.62 0.9,-1.47l-0.47 -0.29zm-3.09 5.42l-0.36 1.24 -0.05 0.52 0.5 0.03c0.26,0.02 0.52,-0.23 0.83,-0.71 -0.14,-0.32 -0.19,-0.67 -0.16,-1.04l-0.75 -0.05zm31.04 5.34l0.52 0.03c0.34,0.07 0.47,0.25 0.44,0.55l-0.05 0.5c-0.03,0.35 -0.2,0.51 -0.55,0.49l-0.52 -0.03c-0.32,-0.02 -0.48,-0.21 -0.44,-0.55l0.05 -0.5c0.08,-0.34 0.27,-0.5 0.55,-0.49zm-28.95 1.95l0.11 1.53 0.5 0.03c0.04,-0.37 0.35,-0.87 0.93,-1.47l-1.53 -0.1zm-0.74 5.05l0.24 0.02 1.56 -0.14c0.27,0.56 0.39,1.07 0.35,1.55l-0.38 1.26 0.11 1.53c-0.79,0.27 -1.25,0.59 -1.37,0.93 0.13,0.01 0.52,0.45 1.15,1.34l0.26 0.02 0.2 -2.01 0.86 -0.97c-0.26,-0.02 -0.49,-0.29 -0.68,-0.81l0.1 -1.02c0.39,-0.67 0.94,-0.96 1.61,-0.92l-0.13 -1.29 0.88 -1.21 -0.24 -0.02c-1.11,0.93 -2.09,1.39 -2.93,1.34 -1.02,-0.07 -1.53,0.07 -1.56,0.4zm24.46 -0.19l0.24 0.02c0.34,0.07 0.5,0.25 0.47,0.55 -0.03,0.33 -0.22,0.49 -0.57,0.47l-0.24 -0.02c-0.34,-0.02 -0.5,-0.21 -0.47,-0.53 0.08,-0.34 0.27,-0.51 0.57,-0.49zm-21.24 3.74c0.01,0.33 0.14,0.51 0.45,0.53l0.05 -0.5 -0.5 -0.03zm28.27 2.34l-0.07 0.76c0.01,0.35 0.16,0.54 0.47,0.55 0.32,0.02 0.52,-0.14 0.55,-0.49 -0.14,-0.34 -0.2,-0.6 -0.19,-0.77l-0.76 -0.05zm-34.51 4.14c0.17,0.01 0.23,0.1 0.21,0.27 1.24,-0.44 1.89,-0.9 1.94,-1.4l-0.13 -1.29c-0.22,-0.01 -0.88,0.79 -2.02,2.42zm4.48 1.06c0.01,0.35 0.14,0.53 0.44,0.55l0.05 -0.52 -0.5 -0.03zm-7.72 0.78l-0.1 1.02 1.02 0.07 0.05 -0.52c0.03,-0.33 -0.12,-0.51 -0.45,-0.53l-0.52 -0.03zm33.22 9.05l0.13 1.3 0.26 0.02 0.13 -1.28 -0.52 -0.03zm-24.95 0.16l-0.07 0.76 0.26 0.02 0.08 -0.76 -0.26 -0.02zm21.05 5.97l-0.15 1.54c0.01,0.33 0.17,0.51 0.47,0.53l0.07 -0.76 -0.13 -1.29 -0.26 -0.02zm0.46 3.1c-0.19,1.91 -0.54,3.06 -1.1,3.5 0.03,1.03 0.15,1.54 0.37,1.55 -0.4,2.33 -0.83,4.09 -1.3,5.28 0.04,2.73 0.25,4.11 0.62,4.14l0.03 -0.26c0.09,-2.72 0.18,-4.33 0.24,-4.84 0.04,-0.41 0.28,-1.33 0.77,-2.74 -0.11,-0.71 -0.13,-1.3 -0.09,-1.79l1.09 -0.71 -0.48 -2.84 0.31 -0.48c-0.14,-0.36 -0.2,-0.6 -0.18,-0.78l-0.26 -0.02zm-1.47 14.97c-0.58,2.14 -1.16,3.63 -1.7,4.49l-0.05 0.52c0.15,0.01 0.64,0.37 1.41,1.12 0.43,-0.84 0.71,-1.24 0.88,-1.23 -0.05,-3.25 -0.24,-4.88 -0.54,-4.89zm-1.89 8.81c0.88,1.47 1.29,2.53 1.23,3.15l-0.13 1.28c-0.05,0.54 -0.18,0.97 -0.38,1.24 0.12,0.49 0.09,1.75 -0.12,3.83l0.24 0.02 0.38 -1.26 0.45 -4.57c0.06,-0.59 0.22,-1.34 0.48,-2.26 -0.16,-0.55 -0.51,-1.19 -1.1,-1.86l-1.06 0.43zm-5.81 4.74c0.01,0.33 0.17,0.51 0.47,0.53 0.04,-0.37 0.16,-0.71 0.34,-1l-0.24 -0.02c-0.35,0.02 -0.54,0.18 -0.57,0.49zm9.63 5.73l-0.05 0.52c0.99,-0.63 1.7,-0.91 2.13,-0.88l-0.13 -1.3c-0.26,-0.02 -0.9,0.53 -1.94,1.66zm-9.92 -0.12l-0.2 2.01 0.26 0.02 0.2 -2.01 -0.26 -0.02zm6.25 1.17l-0.15 1.52 0.26 0.02 0.15 -1.52 -0.26 -0.02zm35.07 -99.89c5.7,0.55 9.58,0.89 11.61,1.02 0.41,0.03 1.08,0.33 1.95,0.89 2.82,0.01 5.03,0.07 6.59,0.17l1.27 0.08c0.54,0.04 0.96,0.15 1.22,0.34l1.3 -0.18c4.95,0.5 8.24,0.8 9.84,0.9 1.81,0.12 3.91,1.96 6.32,5.54l-0.05 0.5 -0.46 2.26c0.75,-0.8 1.22,-1.19 1.38,-1.18l0.26 0.02c0.34,0.07 0.5,0.25 0.47,0.53l-0.3 3.05c-0.1,0.97 -0.24,1.55 -0.43,1.76 -0.24,4.67 -0.31,8.74 -0.18,12.24 -0.57,4.06 -0.97,7.26 -1.21,9.64l-0.87 8.88c-1.15,7.25 -2.17,10.84 -3.1,10.78 -4.04,3.14 -6.12,5.31 -6.24,6.48 -0.17,1.69 0.09,6.13 0.73,13.34 -0.1,0.97 0.33,7.04 1.27,18.22 -0.02,0.24 0.19,4 0.68,11.27 -0.13,1.37 -1.21,1.97 -3.24,1.84l-10.13 -0.66c-2.18,-0.14 -3.23,-1.58 -3.14,-4.3 -0.66,-3.62 -1.12,-8.25 -1.44,-13.87 0.21,-0.34 0.32,-0.59 0.33,-0.74 -0.41,-0.03 -0.66,-1.07 -0.72,-3.12 0.02,-0.17 0.11,-0.25 0.29,-0.24 0.07,-0.76 -0.2,-3.94 -0.85,-9.49l-0.78 -12.82c0.03,-0.26 -0.35,-0.63 -1.15,-1.1 -3.88,-0.25 -5.91,0.47 -6.08,2.15 0.06,2.9 0.07,4.6 0.02,5.1 -0.02,0.17 -0.11,0.25 -0.28,0.24l0.13 1.3 -0.1 1.02c-0.07,0.67 -0.18,0.99 -0.36,0.98l0.09 1.79 -0.67 6.86c-0.1,1.06 -0.74,2.2 -1.88,3.45 0.91,1.13 1.34,2.01 1.28,2.63l-0.1 1.02c-0.06,0.63 -0.53,1.8 -1.36,3.49l0.63 1.33 -0.05 0.5c-0.05,0.54 -0.18,0.97 -0.39,1.26 0.19,1.58 0.19,3.37 -0,5.36 -0.25,2.53 -0.89,3.78 -1.91,3.71l-0.76 -0.05 0.21 0.52 -0.1 1.02c-0.03,0.33 -0.31,0.48 -0.81,0.45l-1.74 -0.35c-0.59,0.29 -1.11,0.43 -1.58,0.4 -0.58,-0.04 -1.55,-0.6 -2.87,-1.71 -1.16,0.95 -2.05,1.39 -2.7,1.35l-2.01 -0.13c-2.2,-0.14 -3.19,-1.32 -2.98,-3.51l3.94 -40.11c0.11,-1.1 0.07,-2.28 -0.15,-3.58 0.28,-2.88 1.21,-9.62 2.75,-20.24l3.46 -35.28c0.18,-1.82 1.88,-2.82 5.14,-3zm25.49 10.1l-0.05 0.5c-0.01,0.35 0.14,0.53 0.44,0.55l1.02 0.07c0.93,0.06 2.2,-0.03 3.85,-0.27l1.48 0.36 0.31 -0.48 0.05 -0.52 -1.3 0.18 -0.5 -0.03c-1.83,-0.8 -2.99,-1.22 -3.44,-1.25l-0.78 -0.05c-0.24,-0.02 -0.62,0.31 -1.09,0.95zm7.94 -0.51l-0.03 0.26 0.76 0.05 0.03 -0.26 -0.76 -0.05zm1.85 1.91l-0.07 0.76 0.75 0.05c0.02,-0.24 -0.21,-0.51 -0.68,-0.81zm2.56 2.21l0.94 0.82 0.52 0.03 0.22 -2.27c-0.26,-0.02 -0.8,0.45 -1.68,1.41zm-28.05 5.82l-2.34 23.86c-0.2,2.04 0.46,3.1 1.97,3.2 2.2,-0.71 3.43,-1.06 3.67,-1.05l6.32 0.41c1.19,0.08 1.83,-0.47 1.94,-1.66l2.37 -24.1c0.12,-1.19 -0.41,-1.81 -1.6,-1.89l-4.79 -0.31c-1.18,-0.08 -2.76,-0.44 -4.74,-1.07 -1.68,-0.11 -2.62,0.77 -2.8,2.61z"/>
  </g>
  <rect class="fil13" x="-0" y="0" width="1060.1" height="871.56"/>
 </g>
</svg>
