<?xml version="1.0" encoding="UTF-8"?>
<!DOCTYPE svg PUBLIC "-//W3C//DTD SVG 1.1//EN" "http://www.w3.org/Graphics/SVG/1.1/DTD/svg11.dtd">
<!-- Creator: CorelDRAW 2018 (64-Bit) -->
<svg xmlns="http://www.w3.org/2000/svg" xml:space="preserve" width="0.0533386in" height="0.0533386in" version="1.1" style="shape-rendering:geometricPrecision; text-rendering:geometricPrecision; image-rendering:optimizeQuality; fill-rule:evenodd; clip-rule:evenodd"
viewBox="0 0 0.35 0.35"
 xmlns:xlink="http://www.w3.org/1999/xlink">
 <defs>
  <style type="text/css">
   <![CDATA[
    .fil2 {fill:none}
    .fil0 {fill:#BDBFC1;fill-rule:nonzero}
    .fil1 {fill:#7D3B92;fill-rule:nonzero}
   ]]>
  </style>
 </defs>
 <g id="Layer_x0020_1">
  <metadata id="CorelCorpID_0Corel-Layer"/>
  <g id="_1928294624624">
   <path class="fil0" d="M0.13 0.24l0.04 -0.01c0.01,0 0.02,0.01 0.03,0.01 0.02,0 0.03,-0.01 0.04,-0.02 0.01,-0.01 0.02,-0.03 0.02,-0.04 0,-0.02 -0.01,-0.03 -0.02,-0.04 -0.01,-0.01 -0.03,-0.02 -0.04,-0.02 -0.02,0 -0.03,0.01 -0.04,0.02 -0.01,0.01 -0.02,0.03 -0.02,0.04 0,0.01 0,0.02 0.01,0.03l-0.01 0.04zm-0.03 -0.01l-0 -0c-0.02,-0.04 -0.02,-0.1 0.02,-0.13 0.04,-0.04 0.11,-0.04 0.15,0 0.04,0.04 0.04,0.11 0,0.15 -0.03,0.03 -0.09,0.04 -0.13,0.02l-0 -0 -0.06 0.01 0.01 -0.06z"/>
   <path class="fil1" d="M0.07 0.29c-0.03,-0.03 -0.04,-0.07 -0.04,-0.12 0,-0.05 0.02,-0.09 0.05,-0.12 0.07,-0.07 0.18,-0.07 0.24,-0l-0.03 0.03c-0.05,-0.05 -0.13,-0.05 -0.18,0 -0.04,0.04 -0.05,0.1 -0.02,0.15l-0.02 0.06zm0.07 -0c0.05,0.02 0.11,0.02 0.15,-0.02l0.03 0.03c-0.03,0.03 -0.07,0.05 -0.12,0.05 -0.04,0 -0.09,-0.01 -0.12,-0.04l0.06 -0.02z"/>
   <path class="fil1" d="M0.18 0.17c0,0.01 -0,0.01 -0.01,0.01 -0.01,0 -0.01,-0 -0.01,-0.01 0,-0.01 0,-0.01 0.01,-0.01 0.01,0 0.01,0 0.01,0.01z"/>
   <path class="fil1" d="M0.21 0.17c0,0.01 -0,0.01 -0.01,0.01 -0.01,0 -0.01,-0 -0.01,-0.01 0,-0.01 0,-0.01 0.01,-0.01 0.01,0 0.01,0 0.01,0.01z"/>
   <path class="fil1" d="M0.24 0.17c0,0.01 -0,0.01 -0.01,0.01 -0.01,0 -0.01,-0 -0.01,-0.01 0,-0.01 0,-0.01 0.01,-0.01 0.01,0 0.01,0 0.01,0.01z"/>
  </g>
  <rect class="fil2" x="0" y="0" width="0.35" height="0.35"/>
 </g>
</svg>
