<?xml version="1.0" encoding="UTF-8"?>
<!DOCTYPE svg PUBLIC "-//W3C//DTD SVG 1.0//EN" "http://www.w3.org/TR/2001/REC-SVG-20010904/DTD/svg10.dtd">
<!-- Creator: CorelDRAW 2018 (64-Bit) -->
<svg xmlns="http://www.w3.org/2000/svg" xml:space="preserve" width="0.129346in" height="0.13in" version="1.0" style="shape-rendering:geometricPrecision; text-rendering:geometricPrecision; image-rendering:optimizeQuality; fill-rule:evenodd; clip-rule:evenodd"
viewBox="0 0 1.11 1.11"
 xmlns:xlink="http://www.w3.org/1999/xlink">
 <defs>
  <style type="text/css">
   <![CDATA[
    .fil0 {fill:url(#id0)}
   ]]>
  </style>
  <linearGradient id="id0" gradientUnits="userSpaceOnUse" x1="0.56" y1="0.02" x2="0.55" y2="1.11">
   <stop offset="0" style="stop-opacity:1; stop-color:#7D3B92"/>
   <stop offset="1" style="stop-opacity:1; stop-color:#9B39B9"/>
  </linearGradient>
 </defs>
 <g id="Layer_x0020_1">
  <metadata id="CorelCorpID_0Corel-Layer"/>
  <path class="fil0" d="M-0 1.11c0.02,-0 0.04,-0.01 0.06,-0.02l0.23 -0.06c0,0 0.04,0.02 0.05,0.02 0.04,0.01 0.07,0.03 0.11,0.03 0.13,0.02 0.26,0 0.37,-0.06 0.04,-0.02 0.09,-0.06 0.13,-0.1 0.03,-0.03 0.07,-0.08 0.09,-0.13 0.04,-0.07 0.06,-0.14 0.07,-0.23 0.01,-0.12 -0.03,-0.25 -0.1,-0.35 -0.01,-0.01 -0.02,-0.03 -0.03,-0.04 -0.02,-0.02 -0.04,-0.04 -0.05,-0.06l-0.02 -0.02c-0.11,-0.09 -0.25,-0.13 -0.39,-0.12 -0.18,0.01 -0.31,0.11 -0.39,0.2 -0.09,0.11 -0.15,0.27 -0.11,0.46 0.01,0.06 0.03,0.11 0.06,0.16 0,0.01 -0,0.02 -0,0.03l-0.06 0.2c-0.01,0.02 -0.01,0.04 -0.02,0.06zm0.35 -0.82c-0.03,0.01 -0.06,0.05 -0.07,0.08 -0.01,0.04 -0.01,0.09 0.01,0.13 0.02,0.04 0.04,0.06 0.06,0.09 0.01,0.01 0.05,0.06 0.06,0.07 0.06,0.06 0.1,0.09 0.19,0.13 0.04,0.02 0.08,0.03 0.12,0.02 0.04,-0 0.08,-0.03 0.1,-0.06 0.01,-0.01 0.02,-0.04 0.02,-0.06 0,-0.02 -0,-0.02 -0.01,-0.03l-0.08 -0.04c-0.06,-0.03 -0.05,-0.03 -0.09,0.02 -0.01,0.02 -0.03,0.04 -0.04,0.03 -0.06,-0.02 -0.11,-0.06 -0.15,-0.11 -0.01,-0.01 -0.04,-0.05 -0.04,-0.07 -0,-0.01 0.01,-0.02 0.02,-0.03 0.01,-0.01 0.02,-0.02 0.02,-0.03 0,-0.01 -0,-0.02 -0,-0.03 -0.01,-0.02 -0.04,-0.09 -0.04,-0.11 -0,-0.01 -0.01,-0.01 -0.02,-0.01 -0.01,-0 -0.03,-0 -0.04,0zm-0.22 0.68l0.17 -0.04c0.01,-0 0.01,0 0.02,0.01 0.16,0.1 0.36,0.09 0.51,-0.02 0.01,-0 0.01,-0.01 0.02,-0.01 0.05,-0.04 0.09,-0.09 0.12,-0.15 0.06,-0.12 0.07,-0.27 0.01,-0.39 -0.03,-0.06 -0.06,-0.11 -0.11,-0.16 -0.02,-0.01 -0.03,-0.03 -0.05,-0.04 -0.08,-0.05 -0.18,-0.08 -0.28,-0.08 -0.1,0.01 -0.19,0.04 -0.26,0.1 -0.03,0.02 -0.04,0.03 -0.06,0.06 -0.08,0.09 -0.12,0.23 -0.1,0.37 0.02,0.12 0.08,0.18 0.08,0.19 -0,0.01 -0.04,0.15 -0.04,0.17z"/>
 </g>
</svg>
