<?xml version="1.0" encoding="UTF-8"?>
<!DOCTYPE svg PUBLIC "-//W3C//DTD SVG 1.0//EN" "http://www.w3.org/TR/2001/REC-SVG-20010904/DTD/svg10.dtd">
<!-- Creator: CorelDRAW 2018 (64-Bit) -->
<svg xmlns="http://www.w3.org/2000/svg" xml:space="preserve" width="3in" height="3in" version="1.0" style="shape-rendering:geometricPrecision; text-rendering:geometricPrecision; image-rendering:optimizeQuality; fill-rule:evenodd; clip-rule:evenodd"
viewBox="0 0 283.17 283.17"
 xmlns:xlink="http://www.w3.org/1999/xlink">
 <defs>
  <style type="text/css">
   <![CDATA[
    .str3 {stroke:#0E0300;stroke-width:3.15;stroke-miterlimit:22.9256}
    .str0 {stroke:#0E0300;stroke-width:6.29;stroke-miterlimit:22.9256}
    .str2 {stroke:black;stroke-width:5.03;stroke-miterlimit:22.9256}
    .str1 {stroke:#0E0300;stroke-width:5.03;stroke-miterlimit:22.9256}
    .fil0 {fill:none}
    .fil1 {fill:#0E0300}
    .fil4 {fill:#805630}
    .fil2 {fill:#D79F60}
    .fil5 {fill:#D79F60}
    .fil3 {fill:#EBBE93}
   ]]>
  </style>
 </defs>
 <g id="Layer_x0020_1">
  <metadata id="CorelCorpID_0Corel-Layer"/>
  <polygon class="fil0" points="-0,0 283.17,0 283.17,283.17 -0,283.17 "/>
  <g id="_1333269165568">
   <path class="fil1" d="M20.11 187.59c-3.72,13.67 -5.58,23.52 3.61,34.18 6.4,7.41 18.53,12.26 32.34,9.75 5.21,5.75 3.87,6.25 12.45,10.82 14.84,7.89 2.67,-0.81 13.46,10.07 9.35,9.43 20.02,11.2 36.16,7.19 10.94,-2.72 16.71,9.39 37.84,-3.68 13.63,-8.43 25.42,1.97 38.29,-10.39 7.88,-7.57 5.64,-9.95 10.03,-13.56 5.1,-4.2 4.61,-0.3 12.97,-10.64 6.69,-8.28 18.07,-5.32 22.27,-25.2 2.45,-11.62 2.46,-6.91 9,-14.39 3.85,-4.41 6.37,-10.01 6.88,-17.31 0.7,-10.04 -1.45,-12.45 -4.72,-19.61 -3.08,-6.74 -0.17,-14.58 -1.97,-23.01 -17.47,-8.18 -23.89,-7.82 -30.71,-26.26 -3.13,-8.49 -2.07,-15.52 -11.92,-15.97 -4.92,-0.22 -45.46,13.46 -64.68,-12.97 -13.48,-18.53 -2.64,-35.89 -3.9,-44.69 -4.83,-1.67 -32.7,-0.48 -38.19,0.64 -8.15,1.66 -7.11,5.05 -12.19,7.57 -4.46,2.21 -11.07,1.54 -16.52,4.26 -5.43,2.71 -6.64,6.86 -10.75,8.74 -5.42,2.49 -8.63,1.54 -14.99,5.76 -4.2,2.79 -6.2,5.43 -8.87,10.67 -1.65,3.24 -1.72,3.46 -2.51,7.04 -0.2,0.9 -0.75,4.2 -0.9,4.64 -1.09,3.23 0.03,1.41 -2.11,3.59 -1.81,1.84 -14.97,8.54 -14.46,25.66 0.29,9.85 3.43,6.91 -1.09,15.64 -10,19.34 1.95,18.5 -5.03,29.62 -9.88,15.72 -4.31,33.94 10.22,41.84z"/>
   <path class="fil2" d="M68.35 43.32c0.58,7.06 12.86,24.57 -3.66,43.47 -11.28,12.91 -22.96,13.02 -41.55,8.46 -1.87,19.47 6.67,8.61 -2.25,24.11 -7.19,12.49 0.65,18.12 -1.58,24.81 -2.25,6.76 -10.14,8.62 -6.79,23.67 2.15,9.64 9.32,13.15 16.04,16.73 -1.46,10.4 -10.7,19.62 -0.08,32.47 8.59,10.38 17.24,6.87 31.85,7.12 3.18,6.58 7.34,11.01 14.33,13.38 7,2.37 4.86,-0.18 8.66,5.17 15.29,21.54 31.41,9.18 37.12,8.54 6.68,-0.74 12.47,11.11 32.07,-1.61 14.14,-9.18 28.21,2.49 40.35,-12.46 3.19,-3.93 2.83,-6.5 4.86,-9.04 1.92,-2.41 6.36,-3.79 9.54,-5.51 -8.2,-9.93 -25.18,-24.24 -9.06,-49.55 3.99,-6.27 11.73,-12.13 22.14,-13.82 17.71,-2.89 20.43,5.6 28.43,6.63 0.49,-12.6 -4.79,-16.04 -6.85,-26.05 -15.23,-1.63 -30.57,-9.54 -38.82,-21.05 -4.38,-6.11 -4.66,-9.33 -8.08,-13.28 -19.73,3.66 -38.5,13.72 -65.17,-12.08 -17.71,-17.13 -19.87,-38.07 -10.59,-65.21 -15.83,1.85 -15.29,-3.42 -26.27,6.35 -7.68,6.83 -4.31,-1.4 -24.62,8.75z"/>
   <path class="fil3" d="M242.85 131.03c-0.66,-8.53 2.08,-2.93 -4.21,-6.17 -5.53,-2.85 -11.71,-4.28 -17.59,-11.55 -12.53,-15.47 -8.12,-18.39 -13.53,-26.68 -4.51,-0.39 -90.66,21.63 -77.54,-59.07 -15.26,6.87 -17.26,64.31 28.22,75.23 9.21,2.21 19.05,1.5 27.89,-1.51 23.75,-8.06 9.13,7.94 33.18,23.59 3.72,2.42 5.64,3.73 9.88,5.45 14.57,5.89 12.97,1.26 13.7,0.71z"/>
   <path class="fil4 str0" d="M90.22 178.42c-4.49,1.55 -9.74,6.26 -11.97,9.5 -15.7,22.81 20.37,49.81 37.77,23.72 4.97,-7.44 4.09,-19.03 -1.18,-25.42 -5.73,-6.94 -15.35,-11 -24.63,-7.79z"/>
   <path class="fil4" d="M211.67 216.38c0.26,-0.26 0.61,-1.09 0.74,-0.84l2.3 -2.24c2.91,-2.18 1.05,-0.85 4.64,-2.31 17.52,-7.14 13.13,-22.67 14.75,-25.8 6.25,-5.36 7.83,-3.47 11.45,-11.11 -23.43,-28.62 -70.94,15.94 -33.88,42.3z"/>
   <path class="fil5 str1" d="M191.66 26.06c-3.54,1.74 -7.75,6.49 -6.45,13.03 1.46,7.3 5.89,4.22 9.56,10.19 1.83,2.98 2.14,20.79 21.96,13.31 22.2,-8.38 -6.43,-45.68 -25.07,-36.53z"/>
   <path class="fil4" d="M39.25 78.29c-2.74,1.09 -4.54,1.55 -7.23,3.55l-5.41 6.14c10.24,8.95 49.17,3.78 36.83,-37.78 -19.35,0.56 -23,9.84 -24.19,28.09z"/>
   <path class="fil5 str1" d="M252.65 74.48c-17.08,7.09 -0.67,36.64 19.41,29.53 13.98,-4.95 2.92,-38.79 -19.41,-29.53z"/>
   <path class="fil5 str2" d="M159.72 24.64c-12.38,5.65 -13.68,32.37 4.55,27.6 12.68,-3.32 11.01,-34.7 -4.55,-27.6z"/>
   <path class="fil5 str2" d="M249 44.43c-11.55,5.68 -5.16,26.91 8.99,19.23 10.89,-5.9 3.47,-25.36 -8.99,-19.23z"/>
   <path class="fil4 str3" d="M144.55 169.87c-1.86,0.64 -4.03,2.59 -4.95,3.93 -6.5,9.44 8.43,20.6 15.63,9.81 2.05,-3.08 1.69,-7.87 -0.49,-10.52 -2.37,-2.87 -6.35,-4.55 -10.19,-3.22z"/>
   <path class="fil4 str3" d="M56.41 129.12c-2.18,0.75 -4.72,3.03 -5.8,4.6 -7.61,11.05 9.87,24.13 18.3,11.49 2.41,-3.61 1.98,-9.22 -0.57,-12.31 -2.77,-3.36 -7.43,-5.33 -11.93,-3.77z"/>
   <path class="fil4 str3" d="M132.32 109.66c-1.28,0.44 -2.77,1.78 -3.41,2.7 -4.47,6.5 5.8,14.18 10.76,6.75 1.41,-2.12 1.17,-5.42 -0.34,-7.24 -1.63,-1.98 -4.37,-3.13 -7.01,-2.22z"/>
  </g>
 </g>
</svg>
