<?xml version="1.0" encoding="UTF-8"?>
<!DOCTYPE svg PUBLIC "-//W3C//DTD SVG 1.0//EN" "http://www.w3.org/TR/2001/REC-SVG-20010904/DTD/svg10.dtd">
<!-- Creator: CorelDRAW 2018 (64-Bit) -->
<svg xmlns="http://www.w3.org/2000/svg" xml:space="preserve" width="10.01in" height="2.62445in" version="1.0" style="shape-rendering:geometricPrecision; text-rendering:geometricPrecision; image-rendering:optimizeQuality; fill-rule:evenodd; clip-rule:evenodd"
viewBox="0 0 2905.03 761.65"
 xmlns:xlink="http://www.w3.org/1999/xlink">
 <defs>
  <style type="text/css">
   <![CDATA[
    .str0 {stroke:#3B345D;stroke-width:5.8;stroke-miterlimit:22.9256}
    .fil3 {fill:none}
    .fil2 {fill:#3B345D;fill-rule:nonzero}
    .fil1 {fill:#7D3B92;fill-rule:nonzero}
    .fil0 {fill:#BDBFC1;fill-rule:nonzero}
   ]]>
  </style>
 </defs>
 <g id="Layer_x0020_1">
  <metadata id="CorelCorpID_0Corel-Layer"/>
  <g id="_1886833629072">
   <g>
    <path class="fil0" d="M234.16 527.48l84.69 -22.69c19.15,9.58 40.56,14.63 62.05,14.63 37.05,0 71.87,-14.42 98.07,-40.62 26.2,-26.2 40.62,-61.02 40.62,-98.07 0,-37.05 -14.43,-71.88 -40.62,-98.07 -26.19,-26.2 -61.02,-40.62 -98.07,-40.62 -37.05,0 -71.87,14.43 -98.07,40.62 -26.2,26.2 -40.62,61.02 -40.62,98.07 0,21.5 5.05,42.91 14.62,62.06l-22.68 84.69 0 0zm-59.59 -29.3l-1.02 -1.82c-51.47,-92.16 -35.22,-208.72 39.52,-283.45 92.54,-92.54 243.13,-92.54 335.67,0 92.54,92.55 92.54,243.13 0,335.68 -74.73,74.74 -191.29,90.99 -283.45,39.52l-1.82 -1.02 -121.44 32.56 32.55 -121.44 -0.01 -0.01z"/>
    <path class="fil1" d="M95.69 633.21c-63.34,-71.4 -97.24,-162.97 -95.64,-258.88 1.66,-99.3 41.26,-192.69 111.51,-262.94 147.3,-147.3 386.22,-148.51 535.02,-3.62l-69.78 69.78c-110.32,-106.42 -286.63,-105.21 -395.46,3.62 -86.78,86.78 -107.64,218.05 -52.19,327.25l-33.46 124.79 0 -0zm157.54 -0.71c107.66,54.67 236.79,35.16 323.57,-48.58l69.78 69.78c-69.82,67.99 -161.68,106.27 -259.26,107.9 -95.92,1.61 -187.48,-32.3 -258.89,-95.64l124.79 -33.46 0 0.01z"/>
    <path class="fil1" d="M334.06 380.74c0,11.87 -9.62,21.48 -21.48,21.48 -11.87,0 -21.48,-9.62 -21.48,-21.48 0,-11.87 9.62,-21.48 21.48,-21.48 11.86,0 21.48,9.62 21.48,21.48z"/>
    <path class="fil1" d="M402.39 380.74c0,11.87 -9.62,21.48 -21.48,21.48 -11.87,0 -21.48,-9.62 -21.48,-21.48 0,-11.87 9.62,-21.48 21.48,-21.48 11.87,0 21.48,9.62 21.48,21.48z"/>
    <path class="fil1" d="M470.73 380.74c0,11.87 -9.62,21.48 -21.48,21.48 -11.87,0 -21.48,-9.62 -21.48,-21.48 0,-11.87 9.62,-21.48 21.48,-21.48 11.87,0 21.48,9.62 21.48,21.48z"/>
    <path class="fil2" d="M1191.73 463.35c0,-155.16 -103.75,-259.87 -249.4,-259.87 -145.64,0 -253.21,107.56 -253.21,257.01 0,150.4 108.52,257.96 271.29,257.96 83.77,0 153.26,-28.56 198.95,-81.86l-50.45 -59.02c-37.13,40.93 -86.63,60.92 -145.64,60.92 -99.95,0 -171.34,-59.02 -182.77,-147.54l409.31 0c0.95,-8.57 1.9,-19.99 1.9,-27.6l0 -0.01zm-249.4 -182.76c88.53,0 152.3,59.97 161.82,144.69l-323.65 0c9.52,-85.67 74.25,-144.69 161.82,-144.69l0 0zm344.38 432.16l91.38 0 0 -706.31 -91.38 0 0 706.31zm233.96 0l91.38 0 0 -504.5 -91.38 0 0 504.5zm489.07 -95.19c-19.04,15.23 -44.74,23.8 -71.39,23.8 -50.45,0 -79.01,-30.46 -79.01,-84.72l0 -273.19 144.69 0 0 -75.2 -144.69 0 0 -110.42 -91.38 0 0 110.42 -85.67 0 0 75.2 85.67 0 0 277c0,101.85 58.06,158.01 159.92,158.01 40.93,0 82.82,-11.42 110.42,-35.22l-28.56 -65.68 -0 -0zm107.36 95.19l91.38 0 0 -504.5 -91.38 0 0 504.5zm659.46 0l-200.85 -257.96 190.38 -246.54 -99.95 0 -138.02 181.81 -138.98 -181.81 -101.85 0 189.43 246.54 -198.95 257.96 101.85 0 147.54 -193.24 145.64 193.24 103.76 0z"/>
    <path class="fil1" d="M1628.1 69.67c0,34.42 -27.9,62.32 -62.33,62.32 -34.41,0 -62.32,-27.9 -62.32,-62.32 0,-34.42 27.91,-62.33 62.32,-62.33 34.42,0 62.33,27.9 62.33,62.33z"/>
    <path class="fil1" d="M2226.24 69.67c0,34.42 -27.9,62.32 -62.31,62.32 -34.43,0 -62.33,-27.9 -62.33,-62.32 0,-34.42 27.9,-62.33 62.33,-62.33 34.41,0 62.31,27.9 62.31,62.33z"/>
   </g>
   <path class="fil3 str0" d="M2823.21 31.44c43.59,0 78.92,35.33 78.92,78.92 0,43.59 -35.33,78.92 -78.92,78.92 -43.58,0 -78.92,-35.33 -78.92,-78.92 0,-43.58 35.33,-78.92 78.92,-78.92z"/>
   <path class="fil2" d="M2784.34 143.74l0 -49.96 -17.8 0 0 -10.16 47.69 0 0 10.16 -17.72 0 0 49.96 -12.18 0zm37.6 0l0 -60.12 18.23 0 10.78 41 10.65 -41 18.28 0 0 60.12 -11.25 0 -0.04 -47.33 -11.85 47.33 -11.7 0 -11.8 -47.33 -0.04 47.33 -11.25 0z"/>
  </g>
 </g>
</svg>
